<svg xmlns="http://www.w3.org/2000/svg" width="22" height="22" viewBox="0 0 22 22">
  <path fill="#FFF" fill-rule="evenodd" d="M775.716328,24.2890737 L785,33.573 L794.283672,24.2890737 C794.644156,23.9285898 795.211387,23.9008602 795.603678,24.2058851 L795.697886,24.2890737 L795.710926,24.3021143 C796.101451,24.6926386 796.101451,25.3258036 795.710926,25.7163279 L795.710926,25.7163279 L786.427,35 L795.710926,44.2836721 C796.101451,44.6741964 796.101451,45.3073614 795.710926,45.6978857 L795.697886,45.7109263 C795.307361,46.1014506 794.674196,46.1014506 794.283672,45.7109263 L785,36.427 L775.716328,45.7109263 C775.355844,46.0714102 774.788613,46.0991398 774.396322,45.7941149 L774.302114,45.7109263 L774.289074,45.6978857 C773.898549,45.3073614 773.898549,44.6741964 774.289074,44.2836721 L774.289074,44.2836721 L783.573,35 L774.289074,25.7163279 C773.898549,25.3258036 773.898549,24.6926386 774.289074,24.3021143 L774.302114,24.2890737 C774.692639,23.8985494 775.325804,23.8985494 775.716328,24.2890737 Z" transform="translate(-774 -24)"/>
</svg>
