<svg xmlns="http://www.w3.org/2000/svg" xmlns:xlink="http://www.w3.org/1999/xlink" width="41" height="36" viewBox="0 0 41 36">
  <defs>
    <polygon id="site_icon4-a" points="0 35.535 39.6 35.535 39.6 0 0 0"/>
  </defs>
  <g fill="none" fill-rule="evenodd" opacity=".8" transform="translate(1)">
    <path fill="#FFF" d="M3.5167,3.50275 L3.5167,32.01825 L6.7832,32.01825 L18.4517,32.01825 C18.4517,33.82275 19.9142,35.28475 21.7182,35.28475 C23.5222,35.28475 24.9847,33.82275 24.9847,32.01825 L24.9847,3.50275 L3.5167,3.50275 Z"/>
    <path stroke="#333133" stroke-linecap="round" stroke-linejoin="round" d="M3.5167,3.50275 L3.5167,32.01825 L6.7832,32.01825 L18.4517,32.01825 C18.4517,33.82275 19.9142,35.28475 21.7182,35.28475 C23.5222,35.28475 24.9847,33.82275 24.9847,32.01825 L24.9847,3.50275 L3.5167,3.50275 Z"/>
    <path fill="#CECECE" d="M18.45155,32.01835 L6.78305,32.01835 L3.51655,32.01835 L0.25005,32.01835 C0.25005,33.82235 1.71255,35.28485 3.51655,35.28485 L21.71805,35.28485 C19.91405,35.28485 18.45155,33.82235 18.45155,32.01835"/>
    <path stroke="#333133" stroke-linecap="round" stroke-linejoin="round" d="M18.45155,32.01835 L6.78305,32.01835 L3.51655,32.01835 L0.25005,32.01835 C0.25005,33.82235 1.71255,35.28485 3.51655,35.28485 L21.71805,35.28485 C19.91405,35.28485 18.45155,33.82235 18.45155,32.01835 Z"/>
    <mask id="site_icon4-b" fill="#fff">
      <use xlink:href="#site_icon4-a"/>
    </mask>
    <polygon fill="#FFF" points="5.883 15.303 8.32 15.303 8.32 12.866 5.883 12.866" mask="url(#site_icon4-b)"/>
    <polygon stroke="#333133" stroke-linecap="round" stroke-linejoin="round" points="5.883 15.303 8.32 15.303 8.32 12.866 5.883 12.866" mask="url(#site_icon4-b)"/>
    <g mask="url(#site_icon4-b)">
      <g transform="translate(10.5 13.535)">
        <line x1=".04" x2="12.264" y1=".55" y2=".55" fill="#FFF"/>
        <line x1=".04" x2="12.264" y1=".55" y2=".55" stroke="#333133" stroke-linecap="round" stroke-linejoin="round"/>
      </g>
    </g>
    <polygon fill="#FFF" points="5.883 19.983 8.32 19.983 8.32 17.546 5.883 17.546" mask="url(#site_icon4-b)"/>
    <polygon stroke="#333133" stroke-linecap="round" stroke-linejoin="round" points="5.883 19.983 8.32 19.983 8.32 17.546 5.883 17.546" mask="url(#site_icon4-b)"/>
    <g mask="url(#site_icon4-b)">
      <g transform="translate(10.5 18.035)">
        <line x1=".04" x2="12.264" y1=".73" y2=".73" fill="#FFF"/>
        <line x1=".04" x2="12.264" y1=".73" y2=".73" stroke="#333133" stroke-linecap="round" stroke-linejoin="round"/>
      </g>
    </g>
    <polygon fill="#FFF" points="5.883 24.663 8.32 24.663 8.32 22.225 5.883 22.225" mask="url(#site_icon4-b)"/>
    <polygon stroke="#333133" stroke-linecap="round" stroke-linejoin="round" points="5.883 24.663 8.32 24.663 8.32 22.225 5.883 22.225" mask="url(#site_icon4-b)"/>
    <g mask="url(#site_icon4-b)">
      <g transform="translate(10.5 23.035)">
        <line x1=".04" x2="12.264" y1=".409" y2=".409" fill="#FFF"/>
        <line x1=".04" x2="12.264" y1=".409" y2=".409" stroke="#333133" stroke-linecap="round" stroke-linejoin="round"/>
      </g>
    </g>
    <polygon fill="#FFF" points="5.883 29.342 8.32 29.342 8.32 26.905 5.883 26.905" mask="url(#site_icon4-b)"/>
    <polygon stroke="#333133" stroke-linecap="round" stroke-linejoin="round" points="5.883 29.342 8.32 29.342 8.32 26.905 5.883 26.905" mask="url(#site_icon4-b)"/>
    <g mask="url(#site_icon4-b)">
      <g transform="translate(10.5 27.535)">
        <line x1=".04" x2="12.264" y1=".589" y2=".589" fill="#FFF"/>
        <line x1=".04" x2="12.264" y1=".589" y2=".589" stroke="#333133" stroke-linecap="round" stroke-linejoin="round"/>
      </g>
    </g>
    <polygon fill="#F36A5D" points="20.942 30.684 19.351 27.758 16.106 28.508 20.287 19.215 25.122 21.39" mask="url(#site_icon4-b)"/>
    <polygon stroke="#333133" stroke-linecap="round" stroke-linejoin="round" points="20.942 30.684 19.351 27.758 16.106 28.508 20.287 19.215 25.122 21.39" mask="url(#site_icon4-b)"/>
    <polygon fill="#F36A5D" points="29.626 30.684 31.218 27.758 34.462 28.508 30.282 19.215 25.446 21.39" mask="url(#site_icon4-b)"/>
    <polygon stroke="#333133" stroke-linecap="round" stroke-linejoin="round" points="29.626 30.684 31.218 27.758 34.462 28.508 30.282 19.215 25.446 21.39" mask="url(#site_icon4-b)"/>
    <path fill="#FDE090" d="M27.2013,6.5696 L27.2013,6.5696 C27.7178,7.3566 28.6623,7.7476 29.5843,7.5571 C31.2003,7.2216 32.6308,8.6516 32.2953,10.2676 C32.1043,11.1896 32.4958,12.1346 33.2828,12.6511 C34.6623,13.5571 34.6623,15.5801 33.2828,16.4856 C32.4958,17.0016 32.1043,17.9466 32.2953,18.8686 C32.6308,20.4846 31.2003,21.9146 29.5843,21.5801 C28.6623,21.3886 27.7178,21.7801 27.2013,22.5666 C26.2953,23.9466 24.2728,23.9466 23.3668,22.5666 C22.8503,21.7801 21.9053,21.3886 20.9838,21.5801 C19.3678,21.9146 17.9373,20.4846 18.2728,18.8686 C18.4638,17.9466 18.0723,17.0016 17.2853,16.4856 C15.9058,15.5801 15.9058,13.5571 17.2853,12.6511 C18.0723,12.1346 18.4638,11.1896 18.2728,10.2676 C17.9373,8.6516 19.3678,7.2216 20.9838,7.5571 C21.9053,7.7476 22.8503,7.3566 23.3668,6.5696 C24.2728,5.1896 26.2953,5.1896 27.2013,6.5696" mask="url(#site_icon4-b)"/>
    <path stroke="#333133" stroke-linecap="round" stroke-linejoin="round" d="M27.2013,6.5696 L27.2013,6.5696 C27.7178,7.3566 28.6623,7.7476 29.5843,7.5571 C31.2003,7.2216 32.6308,8.6516 32.2953,10.2676 C32.1043,11.1896 32.4958,12.1346 33.2828,12.6511 C34.6623,13.5571 34.6623,15.5801 33.2828,16.4856 C32.4958,17.0016 32.1043,17.9466 32.2953,18.8686 C32.6308,20.4846 31.2003,21.9146 29.5843,21.5801 C28.6623,21.3886 27.7178,21.7801 27.2013,22.5666 C26.2953,23.9466 24.2728,23.9466 23.3668,22.5666 C22.8503,21.7801 21.9053,21.3886 20.9838,21.5801 C19.3678,21.9146 17.9373,20.4846 18.2728,18.8686 C18.4638,17.9466 18.0723,17.0016 17.2853,16.4856 C15.9058,15.5801 15.9058,13.5571 17.2853,12.6511 C18.0723,12.1346 18.4638,11.1896 18.2728,10.2676 C17.9373,8.6516 19.3678,7.2216 20.9838,7.5571 C21.9053,7.7476 22.8503,7.3566 23.3668,6.5696 C24.2728,5.1896 26.2953,5.1896 27.2013,6.5696 Z" mask="url(#site_icon4-b)"/>
    <path fill="#FDE090" d="M31.03455,14.56815 C31.03455,17.74415 28.46005,20.31865 25.28405,20.31865 C22.10805,20.31865 19.53355,17.74415 19.53355,14.56815 C19.53355,11.39215 22.10805,8.81765 25.28405,8.81765 C28.46005,8.81765 31.03455,11.39215 31.03455,14.56815" mask="url(#site_icon4-b)"/>
    <path stroke="#333133" stroke-linecap="round" stroke-linejoin="round" d="M31.03455,14.56815 C31.03455,17.74415 28.46005,20.31865 25.28405,20.31865 C22.10805,20.31865 19.53355,17.74415 19.53355,14.56815 C19.53355,11.39215 22.10805,8.81765 25.28405,8.81765 C28.46005,8.81765 31.03455,11.39215 31.03455,14.56815 Z" mask="url(#site_icon4-b)"/>
    <path fill="#FFF" d="M37.4098,9.8045 L37.5713,10.297 C37.7713,10.9065 38.2488,11.384 38.8578,11.584 L39.3508,11.7455 L38.8578,11.907 C38.2488,12.1065 37.7713,12.5845 37.5713,13.1935 L37.4098,13.6865 L37.2478,13.1935 C37.0483,12.5845 36.5708,12.1065 35.9618,11.907 L35.4688,11.7455 L35.9618,11.584 C36.5708,11.384 37.0483,10.9065 37.2478,10.297 L37.4098,9.8045 Z" mask="url(#site_icon4-b)"/>
    <path stroke="#333133" stroke-linecap="round" stroke-linejoin="round" d="M37.4098,9.8045 L37.5713,10.297 C37.7713,10.9065 38.2488,11.384 38.8578,11.584 L39.3508,11.7455 L38.8578,11.907 C38.2488,12.1065 37.7713,12.5845 37.5713,13.1935 L37.4098,13.6865 L37.2478,13.1935 C37.0483,12.5845 36.5708,12.1065 35.9618,11.907 L35.4688,11.7455 L35.9618,11.584 C36.5708,11.384 37.0483,10.9065 37.2478,10.297 L37.4098,9.8045 Z" mask="url(#site_icon4-b)"/>
    <path fill="#FFF" d="M29.75255,0.2498 L29.91355,0.7418 C30.11305,1.3498 30.59005,1.8268 31.19805,2.0263 L31.69005,2.1878 L31.19805,2.3488 C30.59005,2.5488 30.11305,3.0253 29.91355,3.6333 L29.75255,4.1253 L29.59105,3.6333 C29.39155,3.0253 28.91505,2.5488 28.30655,2.3488 L27.81505,2.1878 L28.30655,2.0263 C28.91505,1.8268 29.39155,1.3498 29.59105,0.7418 L29.75255,0.2498 Z" mask="url(#site_icon4-b)"/>
    <path stroke="#333133" stroke-linecap="round" stroke-linejoin="round" d="M29.75255,0.2498 L29.91355,0.7418 C30.11305,1.3498 30.59005,1.8268 31.19805,2.0263 L31.69005,2.1878 L31.19805,2.3488 C30.59005,2.5488 30.11305,3.0253 29.91355,3.6333 L29.75255,4.1253 L29.59105,3.6333 C29.39155,3.0253 28.91505,2.5488 28.30655,2.3488 L27.81505,2.1878 L28.30655,2.0263 C28.91505,1.8268 29.39155,1.3498 29.59105,0.7418 L29.75255,0.2498 Z" mask="url(#site_icon4-b)"/>
  </g>
</svg>
