<svg xmlns="http://www.w3.org/2000/svg" width="36" height="29" viewBox="0 0 36 29">
  <g fill="none" fill-rule="evenodd" opacity=".8" transform="translate(1 1)">
    <polygon fill="#FFF" points=".25 26.929 33.907 26.929 33.907 3.106 .25 3.106"/>
    <polygon stroke="#333133" stroke-linecap="round" stroke-linejoin="round" points=".25 26.929 33.907 26.929 33.907 3.106 .25 3.106"/>
    <path fill="#9CD495" d="M6.2118,19.2655698 L6.2118,11.8150981 L6.2118,19.2655698 Z"/>
    <line x1="6.212" x2="6.212" y1="11.815" y2="19.265" stroke="#333133" stroke-linecap="round" stroke-linejoin="round"/>
    <polygon fill="#9CD495" points="4.654 18.122 7.77 18.122 7.77 12.959 4.654 12.959"/>
    <polygon stroke="#333133" stroke-linecap="round" stroke-linejoin="round" points="4.654 18.122 7.77 18.122 7.77 12.959 4.654 12.959"/>
    <path fill="#9CD495" d="M11.6451,22.4291547 L11.6451,13.1763057 L11.6451,22.4291547 Z"/>
    <line x1="11.645" x2="11.645" y1="13.176" y2="22.429" stroke="#333133" stroke-linecap="round" stroke-linejoin="round"/>
    <polygon fill="#F36A5D" points="10.087 19.626 13.203 19.626 13.203 14.32 10.087 14.32"/>
    <polygon stroke="#333133" stroke-linecap="round" stroke-linejoin="round" points="10.087 19.626 13.203 19.626 13.203 14.32 10.087 14.32"/>
    <path fill="#9CD495" d="M17.07795,22.6185113 L17.07795,11.1786623 L17.07795,22.6185113 Z"/>
    <line x1="17.078" x2="17.078" y1="11.179" y2="22.619" stroke="#333133" stroke-linecap="round" stroke-linejoin="round"/>
    <polygon fill="#F36A5D" points="15.52 20.902 18.636 20.902 18.636 12.322 15.52 12.322"/>
    <polygon stroke="#333133" stroke-linecap="round" stroke-linejoin="round" points="15.52 20.902 18.636 20.902 18.636 12.322 15.52 12.322"/>
    <path fill="#9CD495" d="M22.51125,20.1999736 L22.51125,8.44070943 L22.51125,20.1999736 Z"/>
    <line x1="22.511" x2="22.511" y1="8.441" y2="20.2" stroke="#333133" stroke-linecap="round" stroke-linejoin="round"/>
    <polygon fill="#9CD495" points="20.953 19.056 24.07 19.056 24.07 11.804 20.953 11.804"/>
    <polygon stroke="#333133" stroke-linecap="round" stroke-linejoin="round" points="20.953 19.056 24.07 19.056 24.07 11.804 20.953 11.804"/>
    <path fill="#9CD495" d="M27.94455,20.1999736 L27.94455,7.09121887 L27.94455,20.1999736 Z"/>
    <line x1="27.944" x2="27.944" y1="7.091" y2="20.2" stroke="#333133" stroke-linecap="round" stroke-linejoin="round"/>
    <polygon fill="#9CD495" points="26.387 15.991 29.503 15.991 29.503 9.722 26.387 9.722"/>
    <polygon stroke="#333133" stroke-linecap="round" stroke-linejoin="round" points="26.387 15.991 29.503 15.991 29.503 9.722 26.387 9.722"/>
    <polygon fill="#5F6685" points=".25 3.106 33.907 3.106 33.907 .255 .25 .255"/>
    <polygon stroke="#333133" stroke-linecap="round" stroke-linejoin="round" points=".25 3.106 33.907 3.106 33.907 .255 .25 .255"/>
    <path fill="#9CD495" d="M3.1707,6.18254151 L6.4362,6.18254151 L3.1707,6.18254151 Z"/>
    <line x1="3.171" x2="6.436" y1="6.182" y2="6.182" stroke="#333133" stroke-linecap="round" stroke-linejoin="round"/>
    <path fill="#9CD495" d="M3.1707,8.03392642 L4.9647,8.03392642 L3.1707,8.03392642 Z"/>
    <line x1="3.171" x2="4.965" y1="8.034" y2="8.034" stroke="#333133" stroke-linecap="round" stroke-linejoin="round"/>
    <path fill="#9CD495" d="M28.2978,22.9146962 L31.5633,22.9146962 L28.2978,22.9146962 Z"/>
    <line x1="31.563" x2="28.298" y1="22.915" y2="22.915" stroke="#333133" stroke-linecap="round" stroke-linejoin="round"/>
    <path fill="#9CD495" d="M29.76885,24.7665396 L31.56335,24.7665396 L29.76885,24.7665396 Z"/>
    <line x1="31.563" x2="29.769" y1="24.767" y2="24.767" stroke="#333133" stroke-linecap="round" stroke-linejoin="round"/>
  </g>
</svg>
