<svg xmlns="http://www.w3.org/2000/svg" width="39" height="41" viewBox="0 0 39 41">
  <g fill="none" fill-rule="evenodd" opacity=".8" transform="translate(1 1)">
    <path fill="#FDE090" d="M16.1086849,9.95935 C16.1086849,6.54235 13.2145753,3.79235 9.71326027,3.96335 C6.71626027,4.11035 4.22306849,6.47085 3.96153425,9.41985 C3.81556164,11.06335 4.34369863,12.58235 5.30215068,13.74185 C6.19065753,14.81735 6.74464384,16.12285 6.99147945,17.48885 L7.31231507,19.26435 L12.7340822,19.26435 L13.0549178,17.49035 C13.2992192,16.13535 13.8349589,14.82985 14.7224521,13.76835 C15.5881507,12.73235 16.1086849,11.40685 16.1086849,9.95935"/>
    <path stroke="#333133" stroke-linecap="round" stroke-linejoin="round" d="M16.1086849,9.95935 C16.1086849,6.54235 13.2145753,3.79235 9.71326027,3.96335 C6.71626027,4.11035 4.22306849,6.47085 3.96153425,9.41985 C3.81556164,11.06335 4.34369863,12.58235 5.30215068,13.74185 C6.19065753,14.81735 6.74464384,16.12285 6.99147945,17.48885 L7.31231507,19.26435 L12.7340822,19.26435 L13.0549178,17.49035 C13.2992192,16.13535 13.8349589,14.82985 14.7224521,13.76835 C15.5881507,12.73235 16.1086849,11.40685 16.1086849,9.95935 Z"/>
    <path fill="#FFF" d="M12.4830397,22.05185 C12.4830397,23.39235 11.3816562,24.47885 10.0227932,24.47885 C8.66443699,24.47885 7.56305342,23.39235 7.56305342,22.05185 C7.56305342,20.71185 8.66443699,19.62535 10.0227932,19.62535 C11.3816562,19.62535 12.4830397,20.71185 12.4830397,22.05185"/>
    <path stroke="#333133" stroke-linecap="round" stroke-linejoin="round" d="M12.4830397,22.05185 C12.4830397,23.39235 11.3816562,24.47885 10.0227932,24.47885 C8.66443699,24.47885 7.56305342,23.39235 7.56305342,22.05185 C7.56305342,20.71185 8.66443699,19.62535 10.0227932,19.62535 C11.3816562,19.62535 12.4830397,20.71185 12.4830397,22.05185 Z"/>
    <path fill="#CECECE" d="M12.9958192,19.06995 L7.05047671,19.06995 C6.49395616,19.06995 6.04235342,18.62495 6.04235342,18.07595 C6.04235342,17.52695 6.49395616,17.08195 7.05047671,17.08195 L12.9958192,17.08195 C13.5523397,17.08195 14.0034356,17.52695 14.0034356,18.07595 C14.0034356,18.62495 13.5523397,19.06995 12.9958192,19.06995"/>
    <path stroke="#333133" stroke-linecap="round" stroke-linejoin="round" d="M12.9958192,19.06995 L7.05047671,19.06995 C6.49395616,19.06995 6.04235342,18.62495 6.04235342,18.07595 C6.04235342,17.52695 6.49395616,17.08195 7.05047671,17.08195 L12.9958192,17.08195 C13.5523397,17.08195 14.0034356,17.52695 14.0034356,18.07595 C14.0034356,18.62495 13.5523397,19.06995 12.9958192,19.06995 Z"/>
    <path fill="#CECECE" d="M12.9958192,21.05795 L7.05047671,21.05795 C6.49395616,21.05795 6.04235342,20.61295 6.04235342,20.06395 C6.04235342,19.51495 6.49395616,19.06995 7.05047671,19.06995 L12.9958192,19.06995 C13.5523397,19.06995 14.0034356,19.51495 14.0034356,20.06395 C14.0034356,20.61295 13.5523397,21.05795 12.9958192,21.05795"/>
    <path stroke="#333133" stroke-linecap="round" stroke-linejoin="round" d="M12.9958192,21.05795 L7.05047671,21.05795 C6.49395616,21.05795 6.04235342,20.61295 6.04235342,20.06395 C6.04235342,19.51495 6.49395616,19.06995 7.05047671,19.06995 L12.9958192,19.06995 C13.5523397,19.06995 14.0034356,19.51495 14.0034356,20.06395 C14.0034356,20.61295 13.5523397,21.05795 12.9958192,21.05795 Z"/>
    <path fill="#CECECE" d="M12.9958192,23.046 L7.05047671,23.046 C6.49395616,23.046 6.04235342,22.601 6.04235342,22.052 C6.04235342,21.503 6.49395616,21.058 7.05047671,21.058 L12.9958192,21.058 C13.5523397,21.058 14.0034356,21.503 14.0034356,22.052 C14.0034356,22.601 13.5523397,23.046 12.9958192,23.046"/>
    <path stroke="#333133" stroke-linecap="round" stroke-linejoin="round" d="M12.9958192,23.046 L7.05047671,23.046 C6.49395616,23.046 6.04235342,22.601 6.04235342,22.052 C6.04235342,21.503 6.49395616,21.058 7.05047671,21.058 L12.9958192,21.058 C13.5523397,21.058 14.0034356,21.503 14.0034356,22.052 C14.0034356,22.601 13.5523397,23.046 12.9958192,23.046 Z"/>
    <g transform="translate(7.603 7.668)">
      <path fill="#FFF" d="M24.9092616,31.6251 L24.9092616,21.5071 C27.5230836,19.2651 29.1784534,15.9631 29.1784534,12.2776 C29.1784534,5.5236 23.6279466,0.0481 16.781426,0.0481 C9.93439863,0.0481 4.38439863,5.5236 4.38439863,12.2776 L4.38439863,13.9371 L0.289056164,20.5461 L4.38439863,20.5461 L4.38439863,27.9456 C4.38439863,29.3471 5.53596027,30.4836 6.9566589,30.4836 L7.81323425,30.4836 C9.95264521,30.4836 11.9116178,29.7391 13.451426,28.5041 L13.451426,31.6251"/>
      <path stroke="#333133" stroke-linecap="round" stroke-linejoin="round" d="M24.9092616,31.6251 L24.9092616,21.5071 C27.5230836,19.2651 29.1784534,15.9631 29.1784534,12.2776 C29.1784534,5.5236 23.6279466,0.0481 16.781426,0.0481 C9.93439863,0.0481 4.38439863,5.5236 4.38439863,12.2776 L4.38439863,13.9371 L0.289056164,20.5461 L4.38439863,20.5461 L4.38439863,27.9456 C4.38439863,29.3471 5.53596027,30.4836 6.9566589,30.4836 L7.81323425,30.4836 C9.95264521,30.4836 11.9116178,29.7391 13.451426,28.5041 L13.451426,31.6251"/>
    </g>
    <path fill="#5F6685" d="M33.0753137,21.358 L33.0753137,18.9085 L31.1949027,18.9085 C31.022574,18.0125 30.6687932,17.1805 30.1670123,16.454 L31.4944507,15.144 L29.7387247,13.4115 L28.4107795,14.7215 C27.6743274,14.2265 26.831437,13.8775 25.923163,13.7075 L25.923163,11.8525 L23.4390945,11.8525 L23.4390945,13.7075 C22.5313274,13.8775 21.6879301,14.2265 20.9514781,14.7215 L19.6240397,13.4115 L17.8678068,15.144 L19.1952452,16.454 C18.6939712,17.1805 18.3396836,18.0125 18.1673548,18.9085 L16.2874507,18.9085 L16.2874507,21.358 L18.1673548,21.358 C18.3396836,22.254 18.6939712,23.086 19.1952452,23.8125 L17.8678068,25.122 L19.6240397,26.8545 L20.9514781,25.545 C21.6879301,26.0395 22.5313274,26.389 23.4390945,26.559 L23.4390945,28.4135 L25.923163,28.4135 L25.923163,26.559 C26.831437,26.389 27.6743274,26.0395 28.4107795,25.545 L29.7387247,26.8545 L31.4944507,25.122 L30.1670123,23.8125 C30.6687932,23.086 31.022574,22.254 31.1949027,21.358 L33.0753137,21.358 Z"/>
    <path stroke="#333133" stroke-linecap="round" stroke-linejoin="round" d="M33.0753137,21.358 L33.0753137,18.9085 L31.1949027,18.9085 C31.022574,18.0125 30.6687932,17.1805 30.1670123,16.454 L31.4944507,15.144 L29.7387247,13.4115 L28.4107795,14.7215 C27.6743274,14.2265 26.831437,13.8775 25.923163,13.7075 L25.923163,11.8525 L23.4390945,11.8525 L23.4390945,13.7075 C22.5313274,13.8775 21.6879301,14.2265 20.9514781,14.7215 L19.6240397,13.4115 L17.8678068,15.144 L19.1952452,16.454 C18.6939712,17.1805 18.3396836,18.0125 18.1673548,18.9085 L16.2874507,18.9085 L16.2874507,21.358 L18.1673548,21.358 C18.3396836,22.254 18.6939712,23.086 19.1952452,23.8125 L17.8678068,25.122 L19.6240397,26.8545 L20.9514781,25.545 C21.6879301,26.0395 22.5313274,26.389 23.4390945,26.559 L23.4390945,28.4135 L25.923163,28.4135 L25.923163,26.559 C26.831437,26.389 27.6743274,26.0395 28.4107795,25.545 L29.7387247,26.8545 L31.4944507,25.122 L30.1670123,23.8125 C30.6687932,23.086 31.022574,22.254 31.1949027,21.358 L33.0753137,21.358 Z"/>
    <path fill="#FFF" d="M27.1717863,20.13315 C27.1717863,21.49015 26.0567178,22.59065 24.6811288,22.59065 C23.3055397,22.59065 22.1904712,21.49015 22.1904712,20.13315 C22.1904712,18.77615 23.3055397,17.67565 24.6811288,17.67565 C26.0567178,17.67565 27.1717863,18.77615 27.1717863,20.13315"/>
    <path stroke="#333133" stroke-linecap="round" stroke-linejoin="round" d="M27.1717863,20.13315 C27.1717863,21.49015 26.0567178,22.59065 24.6811288,22.59065 C23.3055397,22.59065 22.1904712,21.49015 22.1904712,20.13315 C22.1904712,18.77615 23.3055397,17.67565 24.6811288,17.67565 C26.0567178,17.67565 27.1717863,18.77615 27.1717863,20.13315 Z"/>
    <g transform="translate(9.63 .168)">
      <line x1=".393" x2=".393" y1="1.777" y2=".207" fill="#FFF"/>
      <line x1=".393" x2=".393" y1="1.777" y2=".207" stroke="#333133" stroke-linecap="round" stroke-linejoin="round"/>
    </g>
    <g transform="translate(5.068 1.167)">
      <line x1=".928" x2=".133" y1="1.841" y2=".482" fill="#FFF"/>
      <line x1=".928" x2=".133" y1="1.841" y2=".482" stroke="#333133" stroke-linecap="round" stroke-linejoin="round"/>
    </g>
    <g transform="translate(1.52 4.668)">
      <line x1="1.529" x2=".151" y1="1.249" y2=".464" fill="#FFF"/>
      <line x1="1.529" x2=".151" y1="1.249" y2=".464" stroke="#333133" stroke-linecap="round" stroke-linejoin="round"/>
    </g>
    <g transform="translate(0 9.168)">
      <line x1="1.971" x2=".38" y1=".72" y2=".72" fill="#FFF"/>
      <line x1="1.971" x2=".38" y1=".72" y2=".72" stroke="#333133" stroke-linecap="round" stroke-linejoin="round"/>
    </g>
    <g transform="translate(1.52 13.668)">
      <line x1="1.529" x2=".151" y1=".192" y2=".976" fill="#FFF"/>
      <line x1="1.529" x2=".151" y1=".192" y2=".976" stroke="#333133" stroke-linecap="round" stroke-linejoin="round"/>
    </g>
    <g transform="translate(13.685 1.167)">
      <line x1=".364" x2="1.159" y1="1.841" y2=".482" fill="#FFF"/>
      <line x1=".364" x2="1.159" y1="1.841" y2=".482" stroke="#333133" stroke-linecap="round" stroke-linejoin="round"/>
    </g>
    <g transform="translate(16.726 4.668)">
      <line x1=".27" x2="1.648" y1="1.249" y2=".464" fill="#FFF"/>
      <line x1=".27" x2="1.648" y1="1.249" y2=".464" stroke="#333133" stroke-linecap="round" stroke-linejoin="round"/>
    </g>
  </g>
</svg>
