<svg xmlns="http://www.w3.org/2000/svg" xmlns:xlink="http://www.w3.org/1999/xlink" width="41" height="40" viewBox="0 0 41 40">
  <defs>
    <polygon id="site_icon21-a" points="0 38.847 40.874 38.847 40.874 0 0 0"/>
  </defs>
  <g fill="none" fill-rule="evenodd" opacity=".8">
    <g transform="translate(2.5 24.665)">
      <path fill="#FFE1D6" d="M0.16335,0.350949351 L5.48885,0.350949351 L9.38285,0.147845455 C10.68835,0.0794688312 11.96285,0.562157143 12.90485,1.47992338 L15.79085,4.29298831 L12.20285,7.23267662 L15.29235,8.76076753 L29.64935,6.04191039 C30.54885,5.87172857 31.43385,6.40506623 31.71485,7.28737792 C32.03135,8.27909221 31.47285,9.33918312 30.48335,9.62585844 L16.18585,13.7639104 C15.04135,14.0951571 13.81135,13.9214299 12.79985,13.286287 L3.78285,7.69814416 L0.16335,7.50517013"/>
      <path stroke="#333133" stroke-linecap="round" stroke-linejoin="round" d="M0.16335,0.350949351 L5.48885,0.350949351 L9.38285,0.147845455 C10.68835,0.0794688312 11.96285,0.562157143 12.90485,1.47992338 L15.79085,4.29298831 L12.20285,7.23267662 L15.29235,8.76076753 L29.64935,6.04191039 C30.54885,5.87172857 31.43385,6.40506623 31.71485,7.28737792 C32.03135,8.27909221 31.47285,9.33918312 30.48335,9.62585844 L16.18585,13.7639104 C15.04135,14.0951571 13.81135,13.9214299 12.79985,13.286287 L3.78285,7.69814416 L0.16335,7.50517013"/>
    </g>
    <g transform="translate(13 26.184)">
      <path fill="#FFE1D6" d="M2.5469,0.0989688312 L5.2909,2.77376104 L9.6859,4.52622857 C10.3124,4.77542338 10.6869,5.42930649 10.5899,6.10446234 C10.4844,6.84191688 9.8504,7.38183896 9.1149,7.36157922 L4.7924,7.24103377 L0.1999,4.96991688"/>
      <path stroke="#333133" stroke-linecap="round" stroke-linejoin="round" d="M2.5469,0.0989688312 L5.2909,2.77376104 L9.6859,4.52622857 C10.3124,4.77542338 10.6869,5.42930649 10.5899,6.10446234 C10.4844,6.84191688 9.8504,7.38183896 9.1149,7.36157922 L4.7924,7.24103377 L0.1999,4.96991688"/>
    </g>
    <mask id="site_icon21-b" fill="#fff">
      <use xlink:href="#site_icon21-a"/>
    </mask>
    <polygon fill="#FFF" points="3.266 32.363 6.282 32.363 6.282 24.822 3.266 24.822" mask="url(#site_icon21-b)"/>
    <polygon stroke="#333133" stroke-linecap="round" stroke-linejoin="round" points="3.266 32.363 6.282 32.363 6.282 24.822 3.266 24.822" mask="url(#site_icon21-b)"/>
    <polygon fill="#5F6685" points=".25 33.091 4.346 33.091 4.346 24.094 .25 24.094" mask="url(#site_icon21-b)"/>
    <polygon stroke="#333133" stroke-linecap="round" stroke-linejoin="round" points=".25 33.091 4.346 33.091 4.346 24.094 .25 24.094" mask="url(#site_icon21-b)"/>
    <path fill="#FFF" d="M8.2813,13.9059312 L8.5128,14.6211 C8.7988,15.5044247 9.4828,16.1973078 10.3548,16.4870221 L11.0608,16.7215286 L10.3548,16.9560351 C9.4828,17.2457494 8.7988,17.9386325 8.5128,18.8224636 L8.2813,19.5376325 L8.0498,18.8224636 C7.7638,17.9386325 7.0798,17.2457494 6.2078,16.9560351 L5.5013,16.7215286 L6.2078,16.4870221 C7.0798,16.1973078 7.7638,15.5044247 8.0498,14.6211 L8.2813,13.9059312 Z" mask="url(#site_icon21-b)"/>
    <path stroke="#333133" stroke-linecap="round" stroke-linejoin="round" d="M8.2813,13.9059312 L8.5128,14.6211 C8.7988,15.5044247 9.4828,16.1973078 10.3548,16.4870221 L11.0608,16.7215286 L10.3548,16.9560351 C9.4828,17.2457494 8.7988,17.9386325 8.5128,18.8224636 L8.2813,19.5376325 L8.0498,18.8224636 C7.7638,17.9386325 7.0798,17.2457494 6.2078,16.9560351 L5.5013,16.7215286 L6.2078,16.4870221 C7.0798,16.1973078 7.7638,15.5044247 8.0498,14.6211 L8.2813,13.9059312 Z" mask="url(#site_icon21-b)"/>
    <path fill="#FFF" d="M29.62845,0.253348052 L29.82345,0.854555844 C30.06395,1.59808831 30.63895,2.18106234 31.37295,2.42468571 L31.96695,2.62171169 L31.37295,2.81924416 C30.63895,3.06286753 30.06395,3.64584156 29.82345,4.38886753 L29.62845,4.99058182 L29.43395,4.38886753 C29.19295,3.64584156 28.61795,3.06286753 27.88395,2.81924416 L27.29045,2.62171169 L27.88395,2.42468571 C28.61795,2.18106234 29.19295,1.59808831 29.43395,0.854555844 L29.62845,0.253348052 Z" mask="url(#site_icon21-b)"/>
    <path stroke="#333133" stroke-linecap="round" stroke-linejoin="round" d="M29.62845,0.253348052 L29.82345,0.854555844 C30.06395,1.59808831 30.63895,2.18106234 31.37295,2.42468571 L31.96695,2.62171169 L31.37295,2.81924416 C30.63895,3.06286753 30.06395,3.64584156 29.82345,4.38886753 L29.62845,4.99058182 L29.43395,4.38886753 C29.19295,3.64584156 28.61795,3.06286753 27.88395,2.81924416 L27.29045,2.62171169 L27.88395,2.42468571 C28.61795,2.18106234 29.19295,1.59808831 29.43395,0.854555844 L29.62845,0.253348052 Z" mask="url(#site_icon21-b)"/>
    <path fill="#FFF" d="M38.2857,17.1687117 L38.4802,17.7699195 C38.7212,18.5134519 39.2962,19.096426 40.0302,19.3400494 L40.6237,19.5375818 L40.0302,19.7346078 C39.2962,19.9782312 38.7212,20.5612052 38.4802,21.3047377 L38.2857,21.9059455 L38.0907,21.3047377 C37.8502,20.5612052 37.2752,19.9782312 36.5412,19.7346078 L35.9472,19.5375818 L36.5412,19.3400494 C37.2752,19.096426 37.8502,18.5134519 38.0907,17.7699195 L38.2857,17.1687117 Z" mask="url(#site_icon21-b)"/>
    <path stroke="#333133" stroke-linecap="round" stroke-linejoin="round" d="M38.2857,17.1687117 L38.4802,17.7699195 C38.7212,18.5134519 39.2962,19.096426 40.0302,19.3400494 L40.6237,19.5375818 L40.0302,19.7346078 C39.2962,19.9782312 38.7212,20.5612052 38.4802,21.3047377 L38.2857,21.9059455 L38.0907,21.3047377 C37.8502,20.5612052 37.2752,19.9782312 36.5412,19.7346078 L35.9472,19.5375818 L36.5412,19.3400494 C37.2752,19.096426 37.8502,18.5134519 38.0907,17.7699195 L38.2857,17.1687117 Z" mask="url(#site_icon21-b)"/>
    <g mask="url(#site_icon21-b)">
      <g transform="translate(24 10.483)">
        <line x1=".305" x2=".305" y1="18.382" y2=".166" fill="#FDE090"/>
        <line x1=".305" x2=".305" y1="18.382" y2=".166" stroke="#333133" stroke-linecap="round" stroke-linejoin="round"/>
      </g>
    </g>
    <path fill="#9CD495" d="M22.79105,23.1049169 C24.75505,25.0944234 24.27055,28.8115792 24.27055,28.8115792 C24.27055,28.8115792 20.60105,29.3023714 18.63705,27.3128649 C16.67305,25.3228519 17.15755,21.6062026 17.15755,21.6062026 C17.15755,21.6062026 20.82705,21.1154104 22.79105,23.1049169" mask="url(#site_icon21-b)"/>
    <path stroke="#333133" stroke-linecap="round" stroke-linejoin="round" d="M22.79105,23.1049169 C24.75505,25.0944234 24.27055,28.8115792 24.27055,28.8115792 C24.27055,28.8115792 20.60105,29.3023714 18.63705,27.3128649 C16.67305,25.3228519 17.15755,21.6062026 17.15755,21.6062026 C17.15755,21.6062026 20.82705,21.1154104 22.79105,23.1049169 Z" mask="url(#site_icon21-b)"/>
    <g mask="url(#site_icon21-b)">
      <g transform="translate(17 21.12)">
        <line x1=".158" x2="7.271" y1=".487" y2="7.692" fill="#9CD495"/>
        <line x1=".158" x2="7.271" y1=".487" y2="7.692" stroke="#333133" stroke-linecap="round" stroke-linejoin="round"/>
      </g>
    </g>
    <path fill="#9CD495" d="M23.0723,16.2826013 C24.6628,17.8937571 24.2703,20.9038481 24.2703,20.9038481 C24.2703,20.9038481 21.2993,21.3014455 19.7083,19.6902896 C18.1178,18.0791338 18.5103,15.0690429 18.5103,15.0690429 C18.5103,15.0690429 21.4818,14.6714455 23.0723,16.2826013" mask="url(#site_icon21-b)"/>
    <path stroke="#333133" stroke-linecap="round" stroke-linejoin="round" d="M23.0723,16.2826013 C24.6628,17.8937571 24.2703,20.9038481 24.2703,20.9038481 C24.2703,20.9038481 21.2993,21.3014455 19.7083,19.6902896 C18.1178,18.0791338 18.5103,15.0690429 18.5103,15.0690429 C18.5103,15.0690429 21.4818,14.6714455 23.0723,16.2826013 Z" mask="url(#site_icon21-b)"/>
    <g mask="url(#site_icon21-b)">
      <g transform="translate(18.5 15.042)">
        <line x1=".011" x2="5.771" y1=".028" y2="5.862" fill="#9CD495"/>
        <line x1=".011" x2="5.771" y1=".028" y2="5.862" stroke="#333133" stroke-linecap="round" stroke-linejoin="round"/>
      </g>
    </g>
    <path fill="#9CD495" d="M25.7405,21.4533935 C23.929,23.2884195 24.376,26.715861 24.376,26.715861 C24.376,26.715861 27.76,27.1686662 29.5715,25.3341468 C31.3825,23.4991208 30.9355,20.0711727 30.9355,20.0711727 C30.9355,20.0711727 27.552,19.6183675 25.7405,21.4533935" mask="url(#site_icon21-b)"/>
    <path stroke="#333133" stroke-linecap="round" stroke-linejoin="round" d="M25.7405,21.4533935 C23.929,23.2884195 24.376,26.715861 24.376,26.715861 C24.376,26.715861 27.76,27.1686662 29.5715,25.3341468 C31.3825,23.4991208 30.9355,20.0711727 30.9355,20.0711727 C30.9355,20.0711727 27.552,19.6183675 25.7405,21.4533935 Z" mask="url(#site_icon21-b)"/>
    <g mask="url(#site_icon21-b)">
      <g transform="translate(24 19.6)">
        <line x1="6.936" x2=".376" y1=".471" y2="7.116" fill="#9CD495"/>
        <line x1="6.936" x2=".376" y1=".471" y2="7.116" stroke="#333133" stroke-linecap="round" stroke-linejoin="round"/>
      </g>
    </g>
    <path fill="#9CD495" d="M25.3411,14.4549701 C24.0601,15.7526065 24.3761,18.1761779 24.3761,18.1761779 C24.3761,18.1761779 26.7691,18.4962818 28.0496,17.1991519 C29.3306,15.9015156 29.0146,13.4774377 29.0146,13.4774377 C29.0146,13.4774377 26.6221,13.1573338 25.3411,14.4549701" mask="url(#site_icon21-b)"/>
    <path stroke="#333133" stroke-linecap="round" stroke-linejoin="round" d="M25.3411,14.4549701 C24.0601,15.7526065 24.3761,18.1761779 24.3761,18.1761779 C24.3761,18.1761779 26.7691,18.4962818 28.0496,17.1991519 C29.3306,15.9015156 29.0146,13.4774377 29.0146,13.4774377 C29.0146,13.4774377 26.6221,13.1573338 25.3411,14.4549701 Z" mask="url(#site_icon21-b)"/>
    <g mask="url(#site_icon21-b)">
      <g transform="translate(24 13.016)">
        <line x1="5.015" x2=".376" y1=".462" y2="5.161" fill="#9CD495"/>
        <line x1="5.015" x2=".376" y1=".462" y2="5.161" stroke="#333133" stroke-linecap="round" stroke-linejoin="round"/>
      </g>
    </g>
    <path fill="#9CD495" d="M22.39775,9.91481299 C22.39775,11.749839 24.31325,13.2374104 24.31325,13.2374104 C24.31325,13.2374104 26.22875,11.749839 26.22875,9.91481299 C26.22875,8.07978701 24.31325,6.59221558 24.31325,6.59221558 C24.31325,6.59221558 22.39775,8.07978701 22.39775,9.91481299" mask="url(#site_icon21-b)"/>
    <path stroke="#333133" stroke-linecap="round" stroke-linejoin="round" d="M22.39775,9.91481299 C22.39775,11.749839 24.31325,13.2374104 24.31325,13.2374104 C24.31325,13.2374104 26.22875,11.749839 26.22875,9.91481299 C26.22875,8.07978701 24.31325,6.59221558 24.31325,6.59221558 C24.31325,6.59221558 22.39775,8.07978701 22.39775,9.91481299 Z" mask="url(#site_icon21-b)"/>
    <g mask="url(#site_icon21-b)">
      <g transform="translate(24 6.431)">
        <line x1=".313" x2=".313" y1=".161" y2="6.806" fill="#9CD495"/>
        <line x1=".313" x2=".313" y1=".161" y2="6.806" stroke="#333133" stroke-linecap="round" stroke-linejoin="round"/>
      </g>
    </g>
  </g>
</svg>
