<svg xmlns="http://www.w3.org/2000/svg" xmlns:xlink="http://www.w3.org/1999/xlink" width="37" height="32" viewBox="0 0 37 32">
  <defs>
    <polygon id="site_icon14-a" points="0 31 35.761 31 35.761 .347 0 .347"/>
  </defs>
  <g fill="none" fill-rule="evenodd" opacity=".8" transform="translate(1)">
    <polygon fill="#CECECE" points="14.431 29.191 15.052 16.372 20.71 16.372 21.33 29.191"/>
    <polygon stroke="#333133" stroke-linecap="round" stroke-linejoin="round" points="14.431 29.191 15.052 16.372 20.71 16.372 21.33 29.191"/>
    <g transform="translate(0 .152)">
      <path fill="#5F6685" d="M34.4523549,23.5808 L1.30852394,23.5808 C0.725932394,23.5808 0.253876056,23.1148 0.253876056,22.5403 L0.253876056,1.6378 C0.253876056,1.0633 0.725932394,0.5978 1.30852394,0.5978 L34.4523549,0.5978 C35.0349465,0.5978 35.5075099,1.0633 35.5075099,1.6378 L35.5075099,22.5403 C35.5075099,23.1148 35.0349465,23.5808 34.4523549,23.5808"/>
      <path stroke="#333133" stroke-linecap="round" stroke-linejoin="round" d="M34.4523549,23.5808 L1.30852394,23.5808 C0.725932394,23.5808 0.253876056,23.1148 0.253876056,22.5403 L0.253876056,1.6378 C0.253876056,1.0633 0.725932394,0.5978 1.30852394,0.5978 L34.4523549,0.5978 C35.0349465,0.5978 35.5075099,1.0633 35.5075099,1.6378 L35.5075099,22.5403 C35.5075099,23.1148 35.0349465,23.5808 34.4523549,23.5808 Z"/>
      <mask id="site_icon14-b" fill="#fff">
        <use xlink:href="#site_icon14-a"/>
      </mask>
      <polygon fill="#FFF" points="2.281 21.581 33.479 21.581 33.479 2.598 2.281 2.598" mask="url(#site_icon14-b)"/>
      <polygon stroke="#333133" stroke-linecap="round" stroke-linejoin="round" points="2.281 21.581 33.479 21.581 33.479 2.598 2.281 2.598" mask="url(#site_icon14-b)"/>
      <path fill="#CECECE" d="M25.5929577,30.75 L10.1677183,30.75 C10.1677183,29.788 10.9587042,29.0085 11.9342535,29.0085 L23.8269296,29.0085 C24.8019718,29.0085 25.5929577,29.788 25.5929577,30.75" mask="url(#site_icon14-b)"/>
      <path stroke="#333133" stroke-linecap="round" stroke-linejoin="round" d="M25.5929577,30.75 L10.1677183,30.75 C10.1677183,29.788 10.9587042,29.0085 11.9342535,29.0085 L23.8269296,29.0085 C24.8019718,29.0085 25.5929577,29.788 25.5929577,30.75 Z" mask="url(#site_icon14-b)"/>
      <path fill="#9CD495" d="M24.817538,12.0891 C24.817538,15.8126 21.7565239,18.8316 17.9805803,18.8316 C14.2041296,18.8316 11.1426085,15.8126 11.1426085,12.0891 C11.1426085,8.3651 14.2041296,5.3466 17.9805803,5.3466 C21.7565239,5.3466 24.817538,8.3651 24.817538,12.0891" mask="url(#site_icon14-b)"/>
      <path stroke="#333133" stroke-linecap="round" stroke-linejoin="round" d="M24.817538,12.0891 C24.817538,15.8126 21.7565239,18.8316 17.9805803,18.8316 C14.2041296,18.8316 11.1426085,15.8126 11.1426085,12.0891 C11.1426085,8.3651 14.2041296,5.3466 17.9805803,5.3466 C21.7565239,5.3466 24.817538,8.3651 24.817538,12.0891 Z" mask="url(#site_icon14-b)"/>
      <polyline stroke="#FFF" stroke-linecap="round" stroke-linejoin="round" points="21.744 10.418 17.113 14.984 14.772 12.675" mask="url(#site_icon14-b)"/>
    </g>
  </g>
</svg>
