<svg xmlns="http://www.w3.org/2000/svg" xmlns:xlink="http://www.w3.org/1999/xlink" width="28" height="39" viewBox="0 0 28 39">
  <defs>
    <polygon id="site_icon23-a" points="0 37.881 27.519 37.881 27.519 0 0 0"/>
  </defs>
  <g fill="none" fill-rule="evenodd" opacity=".8">
    <path fill="#9CD495" d="M15.4969684,15.5927818 C13.4456,17.6531714 13.9515649,21.5020286 13.9515649,21.5020286 C13.9515649,21.5020286 17.7831439,22.0103403 19.8340211,19.9499506 C21.8848982,17.889561 21.3789333,14.0407039 21.3789333,14.0407039 C21.3789333,14.0407039 17.5478456,13.5323922 15.4969684,15.5927818"/>
    <path stroke="#333133" stroke-linecap="round" stroke-linejoin="round" d="M15.4969684,15.5927818 C13.4456,17.6531714 13.9515649,21.5020286 13.9515649,21.5020286 C13.9515649,21.5020286 17.7831439,22.0103403 19.8340211,19.9499506 C21.8848982,17.889561 21.3789333,14.0407039 21.3789333,14.0407039 C21.3789333,14.0407039 17.5478456,13.5323922 15.4969684,15.5927818 Z"/>
    <g transform="translate(10.807 13.7)">
      <line x1="10.572" x2=".069" y1=".341" y2="10.892" fill="#9CD495"/>
      <line x1="10.572" x2=".069" y1=".341" y2="10.892" stroke="#333133" stroke-linecap="round" stroke-linejoin="round"/>
    </g>
    <path fill="#9CD495" d="M12.1677684,15.5927818 C14.2191368,17.6531714 13.7126807,21.5020286 13.7126807,21.5020286 C13.7126807,21.5020286 9.88159298,22.0103403 7.83071579,19.9499506 C5.7798386,17.889561 6.28580351,14.0407039 6.28580351,14.0407039 C6.28580351,14.0407039 10.1168912,13.5323922 12.1677684,15.5927818"/>
    <path stroke="#333133" stroke-linecap="round" stroke-linejoin="round" d="M12.1677684,15.5927818 C14.2191368,17.6531714 13.7126807,21.5020286 13.7126807,21.5020286 C13.7126807,21.5020286 9.88159298,22.0103403 7.83071579,19.9499506 C5.7798386,17.889561 6.28580351,14.0407039 6.28580351,14.0407039 C6.28580351,14.0407039 10.1168912,13.5323922 12.1677684,15.5927818 Z"/>
    <g transform="translate(5.895 13.7)">
      <line x1=".391" x2="10.894" y1=".341" y2="10.892" fill="#9CD495"/>
      <line x1=".391" x2="10.894" y1=".341" y2="10.892" stroke="#333133" stroke-linecap="round" stroke-linejoin="round"/>
    </g>
    <polygon fill="#B88870" points="19.765 37.635 7.9 37.635 5.801 21.619 21.864 21.619"/>
    <polygon stroke="#333133" stroke-linecap="round" stroke-linejoin="round" points="19.765 37.635 7.9 37.635 5.801 21.619 21.864 21.619"/>
    <mask id="site_icon23-b" fill="#fff">
      <use xlink:href="#site_icon23-a"/>
    </mask>
    <polygon fill="#B88870" points="5.125 24.817 22.539 24.817 22.539 20.484 5.125 20.484" mask="url(#site_icon23-b)"/>
    <polygon stroke="#333133" stroke-linecap="round" stroke-linejoin="round" points="5.125 24.817 22.539 24.817 22.539 20.484 5.125 20.484" mask="url(#site_icon23-b)"/>
    <polygon fill="#B0D9E8" points="19.332 3.946 13.832 9.49 8.333 3.946 10.306 .84 17.358 .84" mask="url(#site_icon23-b)"/>
    <polygon stroke="#333133" stroke-linecap="round" stroke-linejoin="round" points="19.332 3.946 13.832 9.49 8.333 3.946 10.306 .84 17.358 .84" mask="url(#site_icon23-b)"/>
    <polygon fill="#B0D9E8" points="15.755 3.946 13.832 9.49 11.91 3.946 12.6 .84 15.065 .84" mask="url(#site_icon23-b)"/>
    <polygon stroke="#333133" stroke-linecap="round" stroke-linejoin="round" points="15.755 3.946 13.832 9.49 11.91 3.946 12.6 .84 15.065 .84" mask="url(#site_icon23-b)"/>
    <g mask="url(#site_icon23-b)">
      <g transform="translate(7.86 3.336)">
        <line x1=".473" x2="11.472" y1=".619" y2=".619" fill="#B0D9E8"/>
        <line x1=".473" x2="11.472" y1=".619" y2=".619" stroke="#333133" stroke-linecap="round" stroke-linejoin="round"/>
      </g>
    </g>
    <g mask="url(#site_icon23-b)">
      <g transform="translate(13.263 9.258)">
        <line x1=".579" x2=".579" y1=".232" y2="11.226" fill="#FFF"/>
        <line x1=".579" x2=".579" y1=".232" y2="11.226" stroke="#333133" stroke-linecap="round" stroke-linejoin="round"/>
      </g>
    </g>
    <path fill="#9CD495" d="M16.4213614,9.1237013 C15.2718877,10.278013 15.5558175,12.4346364 15.5558175,12.4346364 C15.5558175,12.4346364 17.701993,12.7198831 18.8514667,11.5650779 C20.0004491,10.4107662 19.7170105,8.25414286 19.7170105,8.25414286 C19.7170105,8.25414286 17.5703439,7.96938961 16.4213614,9.1237013" mask="url(#site_icon23-b)"/>
    <path stroke="#333133" stroke-linecap="round" stroke-linejoin="round" d="M16.4213614,9.1237013 C15.2718877,10.278013 15.5558175,12.4346364 15.5558175,12.4346364 C15.5558175,12.4346364 17.701993,12.7198831 18.8514667,11.5650779 C20.0004491,10.4107662 19.7170105,8.25414286 19.7170105,8.25414286 C19.7170105,8.25414286 17.5703439,7.96938961 16.4213614,9.1237013 Z" mask="url(#site_icon23-b)"/>
    <g mask="url(#site_icon23-b)">
      <g transform="translate(13.754 7.777)">
        <line x1="5.963" x2=".078" y1=".477" y2="6.389" fill="#9CD495"/>
        <line x1="5.963" x2=".078" y1=".477" y2="6.389" stroke="#333133" stroke-linecap="round" stroke-linejoin="round"/>
      </g>
    </g>
    <path fill="#9CD495" d="M11.2433263,9.1237013 C12.3928,10.278013 12.1088702,12.4346364 12.1088702,12.4346364 C12.1088702,12.4346364 9.96269474,12.7198831 8.81322105,11.5650779 C7.6642386,10.4107662 7.94767719,8.25414286 7.94767719,8.25414286 C7.94767719,8.25414286 10.0943439,7.96938961 11.2433263,9.1237013" mask="url(#site_icon23-b)"/>
    <path stroke="#333133" stroke-linecap="round" stroke-linejoin="round" d="M11.2433263,9.1237013 C12.3928,10.278013 12.1088702,12.4346364 12.1088702,12.4346364 C12.1088702,12.4346364 9.96269474,12.7198831 8.81322105,11.5650779 C7.6642386,10.4107662 7.94767719,8.25414286 7.94767719,8.25414286 C7.94767719,8.25414286 10.0943439,7.96938961 11.2433263,9.1237013 Z" mask="url(#site_icon23-b)"/>
    <g mask="url(#site_icon23-b)">
      <g transform="translate(7.86 7.777)">
        <line x1=".088" x2="5.972" y1=".477" y2="6.389" fill="#9CD495"/>
        <line x1=".088" x2="5.972" y1=".477" y2="6.389" stroke="#333133" stroke-linecap="round" stroke-linejoin="round"/>
      </g>
    </g>
    <path fill="#FFF" d="M2.50722807,5.98194026 L2.69585965,6.55884935 C2.92821053,7.27196623 3.48477193,7.83110909 4.19459649,8.06503117 L4.76884211,8.25404416 L4.19459649,8.44355065 C3.48477193,8.67697922 2.92821053,9.23661558 2.69585965,9.94923896 L2.50722807,10.5261481 L2.31859649,9.94923896 C2.08624561,9.23661558 1.52968421,8.67697922 0.819859649,8.44355065 L0.245614035,8.25404416 L0.819859649,8.06503117 C1.52968421,7.83110909 2.08624561,7.27196623 2.31859649,6.55884935 L2.50722807,5.98194026 Z" mask="url(#site_icon23-b)"/>
    <path stroke="#333133" stroke-linecap="round" stroke-linejoin="round" d="M2.50722807,5.98194026 L2.69585965,6.55884935 C2.92821053,7.27196623 3.48477193,7.83110909 4.19459649,8.06503117 L4.76884211,8.25404416 L4.19459649,8.44355065 C3.48477193,8.67697922 2.92821053,9.23661558 2.69585965,9.94923896 L2.50722807,10.5261481 L2.31859649,9.94923896 C2.08624561,9.23661558 1.52968421,8.67697922 0.819859649,8.44355065 L0.245614035,8.25404416 L0.819859649,8.06503117 C1.52968421,7.83110909 2.08624561,7.27196623 2.31859649,6.55884935 L2.50722807,5.98194026 Z" mask="url(#site_icon23-b)"/>
    <path fill="#FFF" d="M25.011614,0.246605195 L25.1997544,0.823514286 C25.4321053,1.53663117 25.9891579,2.09577403 26.6989825,2.3296961 L27.2732281,2.51870909 L26.6989825,2.70821558 C25.9891579,2.94164416 25.4321053,3.50128052 25.1997544,4.2143974 L25.011614,4.79081299 L24.8229825,4.2143974 C24.5906316,3.50128052 24.0340702,2.94164416 23.3237544,2.70821558 L22.75,2.51870909 L23.3237544,2.3296961 C24.0340702,2.09577403 24.5906316,1.53663117 24.8229825,0.823514286 L25.011614,0.246605195 Z" mask="url(#site_icon23-b)"/>
    <path stroke="#333133" stroke-linecap="round" stroke-linejoin="round" d="M25.011614,0.246605195 L25.1997544,0.823514286 C25.4321053,1.53663117 25.9891579,2.09577403 26.6989825,2.3296961 L27.2732281,2.51870909 L26.6989825,2.70821558 C25.9891579,2.94164416 25.4321053,3.50128052 25.1997544,4.2143974 L25.011614,4.79081299 L24.8229825,4.2143974 C24.5906316,3.50128052 24.0340702,2.94164416 23.3237544,2.70821558 L22.75,2.51870909 L23.3237544,2.3296961 C24.0340702,2.09577403 24.5906316,1.53663117 24.8229825,0.823514286 L25.011614,0.246605195 Z" mask="url(#site_icon23-b)"/>
  </g>
</svg>
