<svg xmlns="http://www.w3.org/2000/svg" width="37" height="36" viewBox="0 0 37 36">
  <g fill="none" fill-rule="evenodd" opacity=".8" transform="translate(1 1)">
    <polygon fill="#CECECE" points="1.307 11.751 34.03 11.751 34.03 9.548 1.307 9.548"/>
    <polygon stroke="#333133" stroke-linecap="round" stroke-linejoin="round" points="1.307 11.751 34.03 11.751 34.03 9.548 1.307 9.548"/>
    <polygon fill="#CECECE" points="1.307 31.372 34.03 31.372 34.03 29.169 1.307 29.169"/>
    <polygon stroke="#333133" stroke-linecap="round" stroke-linejoin="round" points="1.307 31.372 34.03 31.372 34.03 29.169 1.307 29.169"/>
    <polygon fill="#CECECE" points=".38 33.575 34.956 33.575 34.956 31.372 .38 31.372"/>
    <polygon stroke="#333133" stroke-linecap="round" stroke-linejoin="round" points=".38 33.575 34.956 33.575 34.956 31.372 .38 31.372"/>
    <polygon fill="#CECECE" points="24.658 13.954 31.145 13.954 31.145 11.751 24.658 11.751"/>
    <polygon stroke="#333133" stroke-linecap="round" stroke-linejoin="round" points="24.658 13.954 31.145 13.954 31.145 11.751 24.658 11.751"/>
    <polygon fill="#CECECE" points="25.908 26.967 29.896 26.967 29.896 13.954 25.908 13.954"/>
    <polygon stroke="#333133" stroke-linecap="round" stroke-linejoin="round" points="25.908 26.967 29.896 26.967 29.896 13.954 25.908 13.954"/>
    <polygon fill="#CECECE" points="24.658 29.169 31.145 29.169 31.145 26.967 24.658 26.967"/>
    <polygon stroke="#333133" stroke-linecap="round" stroke-linejoin="round" points="24.658 29.169 31.145 29.169 31.145 26.967 24.658 26.967"/>
    <polygon fill="#CECECE" points="14.425 13.954 20.912 13.954 20.912 11.751 14.425 11.751"/>
    <polygon stroke="#333133" stroke-linecap="round" stroke-linejoin="round" points="14.425 13.954 20.912 13.954 20.912 11.751 14.425 11.751"/>
    <polygon fill="#CECECE" points="15.674 26.967 19.662 26.967 19.662 13.954 15.674 13.954"/>
    <polygon stroke="#333133" stroke-linecap="round" stroke-linejoin="round" points="15.674 26.967 19.662 26.967 19.662 13.954 15.674 13.954"/>
    <polygon fill="#CECECE" points="14.425 29.169 20.912 29.169 20.912 26.967 14.425 26.967"/>
    <polygon stroke="#333133" stroke-linecap="round" stroke-linejoin="round" points="14.425 29.169 20.912 29.169 20.912 26.967 14.425 26.967"/>
    <polygon fill="#CECECE" points="4.191 13.954 10.678 13.954 10.678 11.751 4.191 11.751"/>
    <polygon stroke="#333133" stroke-linecap="round" stroke-linejoin="round" points="4.191 13.954 10.678 13.954 10.678 11.751 4.191 11.751"/>
    <polygon fill="#CECECE" points="5.441 26.967 9.429 26.967 9.429 13.954 5.441 13.954"/>
    <polygon stroke="#333133" stroke-linecap="round" stroke-linejoin="round" points="5.441 26.967 9.429 26.967 9.429 13.954 5.441 13.954"/>
    <polygon fill="#CECECE" points="4.191 29.169 10.678 29.169 10.678 26.967 4.191 26.967"/>
    <polygon stroke="#333133" stroke-linecap="round" stroke-linejoin="round" points="4.191 29.169 10.678 29.169 10.678 26.967 4.191 26.967"/>
    <polygon fill="#CECECE" points="2.634 7.68 32.703 7.68 17.668 .38"/>
    <polygon stroke="#333133" stroke-linecap="round" stroke-linejoin="round" points="32.703 7.68 2.634 7.68 17.668 .381"/>
    <polygon fill="#FFF" points="13.943 5.079 17.668 3.271 21.394 5.079"/>
    <polygon stroke="#333133" stroke-linecap="round" stroke-linejoin="round" points="13.943 5.079 17.668 3.271 21.394 5.079"/>
    <g transform="translate(0 7.568)">
      <path fill="#CECECE" d="M34.0225362,1.98001791 L1.31427536,1.98001791 C0.798405797,1.98001791 0.380434783,1.56186866 0.380434783,1.04628657 C0.380434783,0.530197015 0.798405797,0.112047761 1.31427536,0.112047761 L34.0225362,0.112047761 C34.5384058,0.112047761 34.9563768,0.530197015 34.9563768,1.04628657 C34.9563768,1.56186866 34.5384058,1.98001791 34.0225362,1.98001791"/>
      <path stroke="#333133" stroke-linecap="round" stroke-linejoin="round" d="M34.0225362,1.98001791 L1.31427536,1.98001791 C0.798405797,1.98001791 0.380434783,1.56186866 0.380434783,1.04628657 C0.380434783,0.530197015 0.798405797,0.112047761 1.31427536,0.112047761 L34.0225362,0.112047761 C34.5384058,0.112047761 34.9563768,0.530197015 34.9563768,1.04628657 C34.9563768,1.56186866 34.5384058,1.98001791 34.0225362,1.98001791 Z"/>
      <path fill="#FDE090" d="M22.3405,12.892191 C22.3405,15.4736537 20.2486159,17.5659224 17.6682536,17.5659224 C15.0878913,17.5659224 12.9960072,15.4736537 12.9960072,12.892191 C12.9960072,10.3107284 15.0878913,8.2184597 17.6682536,8.2184597 C20.2486159,8.2184597 22.3405,10.3107284 22.3405,12.892191"/>
      <path stroke="#333133" stroke-linecap="round" stroke-linejoin="round" d="M22.3405,12.892191 C22.3405,15.4736537 20.2486159,17.5659224 17.6682536,17.5659224 C15.0878913,17.5659224 12.9960072,15.4736537 12.9960072,12.892191 C12.9960072,10.3107284 15.0878913,8.2184597 17.6682536,8.2184597 C20.2486159,8.2184597 22.3405,10.3107284 22.3405,12.892191 Z"/>
      <path fill="#000" d="M19.1815725,12.8696597 L18.4998333,12.8696597 L18.7980942,14.238794 L19.1815725,12.8696597 Z M17.5208478,12.4312119 L17.7947609,12.4312119 L17.6603406,11.8044955 L17.5208478,12.4312119 Z M16.8330217,12.8696597 L16.1578768,12.8696597 L16.5291812,14.2936 L16.8330217,12.8696597 Z M19.2302681,15.0791522 L18.3786014,15.0791522 L17.8916449,12.8696597 L17.4295435,12.8696597 L16.9486739,15.0791522 L16.1030942,15.0791522 L15.4761377,12.8696597 L15.2088188,12.8696597 L15.0140362,12.8696597 C14.9349058,12.8757493 14.8679493,12.8818388 14.8136739,12.8879284 L14.8136739,12.4129433 C14.8496884,12.4256299 14.8922971,12.4256299 14.9349058,12.4256299 C14.9714275,12.4312119 15.0140362,12.4312119 15.0566449,12.4312119 L15.3549058,12.4312119 L14.9714275,11.0681672 L15.6891812,11.0681672 L16.0427319,12.4312119 L16.9243261,12.4312119 L17.222587,11.0681672 L18.1107754,11.0681672 L18.4090362,12.4312119 L19.2972246,12.4312119 L19.6563551,11.0681672 L20.3553406,11.0681672 L19.9723696,12.4312119 L20.1483841,12.4312119 L20.2280217,12.4312119 C20.2579493,12.4312119 20.294471,12.4312119 20.3315,12.4256299 C20.3675145,12.4256299 20.3979493,12.4256299 20.4349783,12.4190328 C20.4649058,12.4190328 20.4953406,12.4190328 20.5201957,12.4129433 L20.5201957,12.8879284 C20.4527319,12.8818388 20.3857754,12.8757493 20.3127319,12.8696597 L20.1184565,12.8696597 L19.8506304,12.8696597 L19.2302681,15.0791522 Z"/>
    </g>
  </g>
</svg>
