<svg xmlns="http://www.w3.org/2000/svg" width="41" height="39" viewBox="0 0 41 39">
  <g fill="none" fill-rule="evenodd" opacity=".8" transform="translate(1 1)">
    <line x1="19.495" x2="19.495" y1="18.871" y2="30.91" stroke="#333133" stroke-linecap="round" stroke-linejoin="round"/>
    <g transform="translate(0 .181)">
      <path stroke="#333133" stroke-linecap="round" stroke-linejoin="round" d="M5.6758,29.0697 L5.6758,23.3627 C5.6758,22.8492 6.0923,22.4327 6.6058,22.4327 L32.3833,22.4327 C32.8968,22.4327 33.3133,22.8492 33.3133,23.3627 L33.3133,29.0697"/>
      <path fill="#FDE090" d="M11.1016,31.82435 C11.1016,34.82085 8.6726,37.24985 5.6756,37.24985 C2.6791,37.24985 0.2501,34.82085 0.2501,31.82435 C0.2501,28.82785 2.6791,26.39835 5.6756,26.39835 C8.6726,26.39835 11.1016,28.82785 11.1016,31.82435"/>
      <path stroke="#333133" stroke-linecap="round" stroke-linejoin="round" d="M11.1016,31.82435 C11.1016,34.82085 8.6726,37.24985 5.6756,37.24985 C2.6791,37.24985 0.2501,34.82085 0.2501,31.82435 C0.2501,28.82785 2.6791,26.39835 5.6756,26.39835 C8.6726,26.39835 11.1016,28.82785 11.1016,31.82435 Z"/>
      <path fill="#FDE090" d="M24.92045,31.82435 C24.92045,34.82085 22.49145,37.24985 19.49445,37.24985 C16.49795,37.24985 14.06895,34.82085 14.06895,31.82435 C14.06895,28.82785 16.49795,26.39835 19.49445,26.39835 C22.49145,26.39835 24.92045,28.82785 24.92045,31.82435"/>
      <path stroke="#333133" stroke-linecap="round" stroke-linejoin="round" d="M24.92045,31.82435 C24.92045,34.82085 22.49145,37.24985 19.49445,37.24985 C16.49795,37.24985 14.06895,34.82085 14.06895,31.82435 C14.06895,28.82785 16.49795,26.39835 19.49445,26.39835 C22.49145,26.39835 24.92045,28.82785 24.92045,31.82435 Z"/>
      <path fill="#FDE090" d="M38.7393,31.82435 C38.7393,34.82085 36.3103,37.24985 33.3133,37.24985 C30.3168,37.24985 27.8878,34.82085 27.8878,31.82435 C27.8878,28.82785 30.3168,26.39835 33.3133,26.39835 C36.3103,26.39835 38.7393,28.82785 38.7393,31.82435"/>
      <path stroke="#333133" stroke-linecap="round" stroke-linejoin="round" d="M38.7393,31.82435 C38.7393,34.82085 36.3103,37.24985 33.3133,37.24985 C30.3168,37.24985 27.8878,34.82085 27.8878,31.82435 C27.8878,28.82785 30.3168,26.39835 33.3133,26.39835 C36.3103,26.39835 38.7393,28.82785 38.7393,31.82435 Z"/>
      <g transform="translate(8.5)">
        <path fill="#FFF" d="M14.97415,19.2279 L14.97415,13.0889 C16.53915,11.7284 17.52915,9.7249 17.52915,7.4889 C17.52915,3.3909 14.20715,0.0689 10.10965,0.0689 C6.01115,0.0689 2.68915,3.3909 2.68915,7.4889 L2.68915,8.4959 L0.23765,12.5059 L2.68915,12.5059 L2.68915,16.9954 C2.68915,17.8459 3.37865,18.5354 4.22915,18.5354 L4.74115,18.5354 C6.02215,18.5354 7.19415,18.0834 8.11615,17.3344 L8.11615,19.2279"/>
        <path stroke="#333133" stroke-linecap="round" stroke-linejoin="round" d="M14.97415,19.2279 L14.97415,13.0889 C16.53915,11.7284 17.52915,9.7249 17.52915,7.4889 C17.52915,3.3909 14.20715,0.0689 10.10965,0.0689 C6.01115,0.0689 2.68915,3.3909 2.68915,7.4889 L2.68915,8.4959 L0.23765,12.5059 L2.68915,12.5059 L2.68915,16.9954 C2.68915,17.8459 3.37865,18.5354 4.22915,18.5354 L4.74115,18.5354 C6.02215,18.5354 7.19415,18.0834 8.11615,17.3344 L8.11615,19.2279"/>
      </g>
      <path fill="#5F6685" d="M23.81105,8.34635 L23.81105,6.85985 L22.68605,6.85985 C22.58305,6.31635 22.37055,5.81135 22.07055,5.37085 L22.86505,4.57585 L21.81405,3.52485 L21.01955,4.31985 C20.57855,4.01935 20.07355,3.80735 19.53005,3.70435 L19.53005,2.57885 L18.04405,2.57885 L18.04405,3.70435 C17.50005,3.80735 16.99555,4.01935 16.55455,4.31985 L15.75955,3.52485 L14.70905,4.57585 L15.50355,5.37085 C15.20305,5.81135 14.99105,6.31635 14.88805,6.85985 L13.76255,6.85985 L13.76255,8.34635 L14.88805,8.34635 C14.99105,8.88985 15.20305,9.39485 15.50355,9.83585 L14.70905,10.63035 L15.75955,11.68135 L16.55455,10.88685 C16.99555,11.18685 17.50005,11.39885 18.04405,11.50185 L18.04405,12.62735 L19.53005,12.62735 L19.53005,11.50185 C20.07355,11.39885 20.57855,11.18685 21.01955,10.88685 L21.81405,11.68135 L22.86505,10.63035 L22.07055,9.83585 C22.37055,9.39485 22.58305,8.88985 22.68605,8.34635 L23.81105,8.34635 Z"/>
      <path stroke="#333133" stroke-linecap="round" stroke-linejoin="round" d="M23.81105,8.34635 L23.81105,6.85985 L22.68605,6.85985 C22.58305,6.31635 22.37055,5.81135 22.07055,5.37085 L22.86505,4.57585 L21.81405,3.52485 L21.01955,4.31985 C20.57855,4.01935 20.07355,3.80735 19.53005,3.70435 L19.53005,2.57885 L18.04405,2.57885 L18.04405,3.70435 C17.50005,3.80735 16.99555,4.01935 16.55455,4.31985 L15.75955,3.52485 L14.70905,4.57585 L15.50355,5.37085 C15.20305,5.81135 14.99105,6.31635 14.88805,6.85985 L13.76255,6.85985 L13.76255,8.34635 L14.88805,8.34635 C14.99105,8.88985 15.20305,9.39485 15.50355,9.83585 L14.70905,10.63035 L15.75955,11.68135 L16.55455,10.88685 C16.99555,11.18685 17.50005,11.39885 18.04405,11.50185 L18.04405,12.62735 L19.53005,12.62735 L19.53005,11.50185 C20.07355,11.39885 20.57855,11.18685 21.01955,10.88685 L21.81405,11.68135 L22.86505,10.63035 L22.07055,9.83585 C22.37055,9.39485 22.58305,8.88985 22.68605,8.34635 L23.81105,8.34635 Z"/>
      <path fill="#FFF" d="M20.27785,7.60315 C20.27785,8.42615 19.61035,9.09365 18.78735,9.09365 C17.96385,9.09365 17.29585,8.42615 17.29585,7.60315 C17.29585,6.77965 17.96385,6.11215 18.78735,6.11215 C19.61035,6.11215 20.27785,6.77965 20.27785,7.60315"/>
      <path stroke="#333133" stroke-linecap="round" stroke-linejoin="round" d="M20.27785,7.60315 C20.27785,8.42615 19.61035,9.09365 18.78735,9.09365 C17.96385,9.09365 17.29585,8.42615 17.29585,7.60315 C17.29585,6.77965 17.96385,6.11215 18.78735,6.11215 C19.61035,6.11215 20.27785,6.77965 20.27785,7.60315 Z"/>
    </g>
  </g>
</svg>
