<svg xmlns="http://www.w3.org/2000/svg" xmlns:xlink="http://www.w3.org/1999/xlink" width="28" height="38" viewBox="0 0 28 38">
  <defs>
    <polygon id="site_icon13-a" points="0 36.723 25.825 36.723 25.825 0 0 0"/>
  </defs>
  <g fill="none" fill-rule="evenodd" opacity=".8" transform="translate(1 1)">
    <path fill="#FDE090" d="M6.09455,11.29235 C3.88105,10.45935 2.30155,8.32035 2.30155,5.81935 L2.30155,2.30185 L6.09455,2.30185 L6.09455,11.29235 Z M1.91105,0.25035 C0.99355,0.25035 0.25005,0.99335 0.25005,1.91085 L0.25005,5.81935 C0.25005,10.18035 3.78555,13.71535 8.14655,13.71535 L8.14655,0.25035 L1.91105,0.25035 Z"/>
    <path stroke="#333133" stroke-linecap="round" stroke-linejoin="round" d="M6.09455,11.29235 C3.88105,10.45935 2.30155,8.32035 2.30155,5.81935 L2.30155,2.30185 L6.09455,2.30185 L6.09455,11.29235 Z M1.91105,0.25035 C0.99355,0.25035 0.25005,0.99335 0.25005,1.91085 L0.25005,5.81935 C0.25005,10.18035 3.78555,13.71535 8.14655,13.71535 L8.14655,0.25035 L1.91105,0.25035 Z"/>
    <path fill="#FDE090" d="M19.73025,2.3016 L23.52325,2.3016 L23.52325,5.8196 C23.52325,8.3206 21.94375,10.4596 19.73025,11.2921 L19.73025,2.3016 Z M17.67825,0.2501 L17.67825,13.7156 C22.03975,13.7156 25.57475,10.1801 25.57475,5.8191 L25.57475,1.9106 C25.57475,0.9936 24.83125,0.2501 23.91425,0.2501 L17.67825,0.2501 Z"/>
    <path stroke="#333133" stroke-linecap="round" stroke-linejoin="round" d="M19.73025,2.3016 L23.52325,2.3016 L23.52325,5.8196 C23.52325,8.3206 21.94375,10.4596 19.73025,11.2921 L19.73025,2.3016 Z M17.67825,0.2501 L17.67825,13.7156 C22.03975,13.7156 25.57475,10.1801 25.57475,5.8191 L25.57475,1.9106 C25.57475,0.9936 24.83125,0.2501 23.91425,0.2501 L17.67825,0.2501 Z"/>
    <path fill="#FDE090" d="M11.51545,17.66585 L11.51545,18.83785 C11.51545,21.35685 10.52095,23.77435 8.74795,25.56485 L17.07695,25.56485 C15.30395,23.77435 14.30995,21.35685 14.30995,18.83785 L14.30995,17.66585 L11.51545,17.66585 Z"/>
    <path stroke="#333133" stroke-linecap="round" stroke-linejoin="round" d="M11.51545,17.66585 L11.51545,18.83785 C11.51545,21.35685 10.52095,23.77435 8.74795,25.56485 L17.07695,25.56485 C15.30395,23.77435 14.30995,21.35685 14.30995,18.83785 L14.30995,17.66585 L11.51545,17.66585 Z"/>
    <path fill="#FDE090" d="M12.9124,19.17415 L12.9124,19.17415 C8.9229,19.17415 5.6894,15.94065 5.6894,11.95115 L5.6894,0.25015 L20.1354,0.25015 L20.1354,11.95115 C20.1354,15.94065 16.9019,19.17415 12.9124,19.17415"/>
    <path stroke="#333133" stroke-linecap="round" stroke-linejoin="round" d="M12.9124,19.17415 L12.9124,19.17415 C8.9229,19.17415 5.6894,15.94065 5.6894,11.95115 L5.6894,0.25015 L20.1354,0.25015 L20.1354,11.95115 C20.1354,15.94065 16.9019,19.17415 12.9124,19.17415 Z"/>
    <mask id="site_icon13-b" fill="#fff">
      <use xlink:href="#site_icon13-a"/>
    </mask>
    <polygon fill="#B88870" points="4.199 36.473 21.627 36.473 21.627 25.565 4.199 25.565" mask="url(#site_icon13-b)"/>
    <polygon stroke="#333133" stroke-linecap="round" stroke-linejoin="round" points="4.199 36.473 21.627 36.473 21.627 25.565 4.199 25.565" mask="url(#site_icon13-b)"/>
    <polygon fill="#FFF" points="7.441 33.441 18.383 33.441 18.383 28.597 7.441 28.597" mask="url(#site_icon13-b)"/>
    <polygon stroke="#333133" stroke-linecap="round" stroke-linejoin="round" points="7.441 33.441 18.383 33.441 18.383 28.597 7.441 28.597" mask="url(#site_icon13-b)"/>
    <g mask="url(#site_icon13-b)">
      <g transform="translate(9 30.723)">
        <line x1=".456" x2="7.369" y1=".296" y2=".296" fill="#FFF"/>
        <line x1=".456" x2="7.369" y1=".296" y2=".296" stroke="#333133" stroke-linecap="round" stroke-linejoin="round"/>
      </g>
    </g>
    <polygon fill="#FFF" points="12.912 4.427 14.078 6.789 16.684 7.167 14.798 9.006 15.243 11.602 12.912 10.376 10.581 11.602 11.027 9.006 9.14 7.167 11.747 6.789" mask="url(#site_icon13-b)"/>
    <polygon stroke="#333133" stroke-linecap="round" stroke-linejoin="round" points="12.912 4.427 14.078 6.789 16.684 7.167 14.798 9.006 15.243 11.602 12.912 10.376 10.581 11.602 11.027 9.006 9.14 7.167 11.747 6.789" mask="url(#site_icon13-b)"/>
  </g>
</svg>
