<svg xmlns="http://www.w3.org/2000/svg" xmlns:xlink="http://www.w3.org/1999/xlink" width="45" height="33" viewBox="0 0 45 33">
  <defs>
    <polygon id="site_icon19-a" points="0 32.924 43.808 32.924 43.808 .508 0 .508"/>
  </defs>
  <g fill="none" fill-rule="evenodd" opacity=".8" transform="translate(1)">
    <path fill="#B0D9E8" d="M29.12775,15.4230831 C29.12775,23.5146831 22.66325,30.0786369 14.68875,30.0786369 C6.71425,30.0786369 0.25025,23.5146831 0.25025,15.4230831 C0.25025,11.9580831 1.43775,8.77180615 3.42575,6.26177538 C6.05875,2.91151385 10.12675,0.761944615 14.68875,0.761944615 C19.25125,0.761944615 23.31875,2.91151385 25.95175,6.26177538 C27.94025,8.77180615 29.12775,11.9580831 29.12775,15.4230831"/>
    <path stroke="#333133" stroke-linecap="round" stroke-linejoin="round" d="M29.12775,15.4230831 C29.12775,23.5146831 22.66325,30.0786369 14.68875,30.0786369 C6.71425,30.0786369 0.25025,23.5146831 0.25025,15.4230831 C0.25025,11.9580831 1.43775,8.77180615 3.42575,6.26177538 C6.05875,2.91151385 10.12675,0.761944615 14.68875,0.761944615 C19.25125,0.761944615 23.31875,2.91151385 25.95175,6.26177538 C27.94025,8.77180615 29.12775,11.9580831 29.12775,15.4230831 Z"/>
    <g transform="translate(14 .432)">
      <line x1=".689" x2=".689" y1=".33" y2="29.648" fill="#B0D9E8"/>
      <line x1=".689" x2=".689" y1=".33" y2="29.648" stroke="#333133" stroke-linecap="round" stroke-linejoin="round"/>
    </g>
    <g transform="translate(0 15.155)">
      <line x1=".252" x2="29.126" y1=".266" y2=".266" fill="#B0D9E8"/>
      <line x1=".252" x2="29.126" y1=".266" y2=".266" stroke="#333133" stroke-linecap="round" stroke-linejoin="round"/>
    </g>
    <path stroke="#333133" stroke-linecap="round" stroke-linejoin="round" d="M22.25885,15.4208492 C22.25885,23.5170185 18.86985,30.0804646 14.68885,30.0804646 C10.50835,30.0804646 7.11885,23.5170185 7.11885,15.4208492 C7.11885,7.32468 10.50835,0.761233846 14.68885,0.761233846 C18.86985,0.761233846 22.25885,7.32468 22.25885,15.4208492 Z"/>
    <path stroke="#333133" stroke-linecap="round" stroke-linejoin="round" d="M25.95195 6.26182615C23.30795 8.01844154 19.24545 9.14298 14.68895 9.14298 10.13195 9.14298 6.06945 8.01844154 3.42595 6.26182615 6.05895 2.91156462 10.12695.761995385 14.68895.761995385 19.25095.761995385 23.31895 2.91156462 25.95195 6.26182615zM25.95195 24.5798723C23.30795 22.8232569 19.24545 21.6987185 14.68895 21.6987185 10.13195 21.6987185 6.06945 22.8232569 3.42595 24.5798723 6.05895 27.9301338 10.12695 30.0797031 14.68895 30.0797031 19.25095 30.0797031 23.31895 27.9301338 25.95195 24.5798723z"/>
    <path fill="#FFF" d="M9.2303,8.28909231 C9.2303,8.93741538 8.7123,9.46338462 8.0738,9.46338462 C7.4353,9.46338462 6.9178,8.93741538 6.9178,8.28909231 C6.9178,7.64076923 7.4353,7.1148 8.0738,7.1148 C8.7123,7.1148 9.2303,7.64076923 9.2303,8.28909231"/>
    <path stroke="#333133" stroke-linecap="round" stroke-linejoin="round" d="M9.2303,8.28909231 C9.2303,8.93741538 8.7123,9.46338462 8.0738,9.46338462 C7.4353,9.46338462 6.9178,8.93741538 6.9178,8.28909231 C6.9178,7.64076923 7.4353,7.1148 8.0738,7.1148 C8.7123,7.1148 9.2303,7.64076923 9.2303,8.28909231 Z"/>
    <path fill="#FFF" d="M15.8453,15.4203415 C15.8453,16.0686646 15.3273,16.5946338 14.6888,16.5946338 C14.0503,16.5946338 13.5328,16.0686646 13.5328,15.4203415 C13.5328,14.7720185 14.0503,14.2460492 14.6888,14.2460492 C15.3273,14.2460492 15.8453,14.7720185 15.8453,15.4203415"/>
    <path stroke="#333133" stroke-linecap="round" stroke-linejoin="round" d="M15.8453,15.4203415 C15.8453,16.0686646 15.3273,16.5946338 14.6888,16.5946338 C14.0503,16.5946338 13.5328,16.0686646 13.5328,15.4203415 C13.5328,14.7720185 14.0503,14.2460492 14.6888,14.2460492 C15.3273,14.2460492 15.8453,14.7720185 15.8453,15.4203415 Z"/>
    <path fill="#FFF" d="M9.2303,22.5526062 C9.2303,23.2009292 8.7123,23.7268985 8.0738,23.7268985 C7.4353,23.7268985 6.9178,23.2009292 6.9178,22.5526062 C6.9178,21.9042831 7.4353,21.3783138 8.0738,21.3783138 C8.7123,21.3783138 9.2303,21.9042831 9.2303,22.5526062"/>
    <path stroke="#333133" stroke-linecap="round" stroke-linejoin="round" d="M9.2303,22.5526062 C9.2303,23.2009292 8.7123,23.7268985 8.0738,23.7268985 C7.4353,23.7268985 6.9178,23.2009292 6.9178,22.5526062 C6.9178,21.9042831 7.4353,21.3783138 8.0738,21.3783138 C8.7123,21.3783138 9.2303,21.9042831 9.2303,22.5526062 Z"/>
    <path fill="#FFF" d="M22.4283,8.28909231 C22.4283,8.93741538 21.9103,9.46338462 21.2718,9.46338462 C20.6333,9.46338462 20.1158,8.93741538 20.1158,8.28909231 C20.1158,7.64076923 20.6333,7.1148 21.2718,7.1148 C21.9103,7.1148 22.4283,7.64076923 22.4283,8.28909231"/>
    <path stroke="#333133" stroke-linecap="round" stroke-linejoin="round" d="M22.4283,8.28909231 C22.4283,8.93741538 21.9103,9.46338462 21.2718,9.46338462 C20.6333,9.46338462 20.1158,8.93741538 20.1158,8.28909231 C20.1158,7.64076923 20.6333,7.1148 21.2718,7.1148 C21.9103,7.1148 22.4283,7.64076923 22.4283,8.28909231 Z"/>
    <mask id="site_icon19-b" fill="#fff">
      <use xlink:href="#site_icon19-a"/>
    </mask>
    <polygon fill="#FFF" points="18.846 32.67 43.558 32.67 43.558 15.239 18.846 15.239" mask="url(#site_icon19-b)"/>
    <polygon stroke="#333133" stroke-linecap="round" stroke-linejoin="round" points="18.846 32.67 43.558 32.67 43.558 15.239 18.846 15.239" mask="url(#site_icon19-b)"/>
    <polygon fill="#B0D9E8" points="18.846 15.238 43.558 15.238 43.558 13.152 18.846 13.152" mask="url(#site_icon19-b)"/>
    <polygon stroke="#333133" stroke-linecap="round" stroke-linejoin="round" points="18.846 15.238 43.558 15.238 43.558 13.152 18.846 13.152" mask="url(#site_icon19-b)"/>
    <polygon fill="#FFF" points="17.529 31.333 42.24 31.333 42.24 13.9 17.529 13.9" mask="url(#site_icon19-b)"/>
    <polygon stroke="#333133" stroke-linecap="round" stroke-linejoin="round" points="17.529 31.333 42.24 31.333 42.24 13.9 17.529 13.9" mask="url(#site_icon19-b)"/>
    <polygon fill="#5F6685" points="17.529 13.9 42.24 13.9 42.24 11.814 17.529 11.814" mask="url(#site_icon19-b)"/>
    <polygon stroke="#333133" stroke-linecap="round" stroke-linejoin="round" points="17.529 13.9 42.24 13.9 42.24 11.814 17.529 11.814" mask="url(#site_icon19-b)"/>
    <g mask="url(#site_icon19-b)">
      <g transform="translate(36.5 12.109)">
        <line x1=".198" x2=".86" y1=".748" y2=".748" fill="#FDE090"/>
        <line x1=".198" x2=".86" y1=".748" y2=".748" stroke="#333133" stroke-linecap="round" stroke-linejoin="round"/>
      </g>
    </g>
    <g mask="url(#site_icon19-b)">
      <g transform="translate(38.5 12.109)">
        <line x1=".048" x2=".711" y1=".748" y2=".748" fill="#FDE090"/>
        <line x1=".048" x2=".711" y1=".748" y2=".748" stroke="#333133" stroke-linecap="round" stroke-linejoin="round"/>
      </g>
    </g>
    <g mask="url(#site_icon19-b)">
      <g transform="translate(40 12.109)">
        <line x1=".399" x2="1.062" y1=".748" y2=".748" fill="#FDE090"/>
        <line x1=".399" x2="1.062" y1=".748" y2=".748" stroke="#333133" stroke-linecap="round" stroke-linejoin="round"/>
      </g>
    </g>
    <g mask="url(#site_icon19-b)">
      <g transform="translate(34 19.724)">
        <line x1=".439" x2="2.35" y1=".318" y2=".318" fill="#FFF"/>
        <line x1=".439" x2="2.35" y1=".318" y2=".318" stroke="#333133" stroke-linecap="round" stroke-linejoin="round"/>
      </g>
    </g>
    <g mask="url(#site_icon19-b)">
      <g transform="translate(27 19.724)">
        <line x1=".489" x2="5.964" y1=".318" y2=".318" fill="#FFF"/>
        <line x1=".489" x2="5.964" y1=".318" y2=".318" stroke="#333133" stroke-linecap="round" stroke-linejoin="round"/>
      </g>
    </g>
    <g mask="url(#site_icon19-b)">
      <g transform="translate(23.5 19.724)">
        <line x1=".104" x2="2.622" y1=".318" y2=".318" fill="#FFF"/>
        <line x1=".104" x2="2.622" y1=".318" y2=".318" stroke="#333133" stroke-linecap="round" stroke-linejoin="round"/>
      </g>
    </g>
    <g mask="url(#site_icon19-b)">
      <g transform="translate(23.5 21.755)">
        <line x1=".104" x2="12.85" y1=".437" y2=".437" fill="#FFF"/>
        <line x1=".104" x2="12.85" y1=".437" y2=".437" stroke="#333133" stroke-linecap="round" stroke-linejoin="round"/>
      </g>
    </g>
    <g mask="url(#site_icon19-b)">
      <g transform="translate(33.5 23.786)">
        <line x1=".23" x2="2.85" y1=".557" y2=".557" fill="#FFF"/>
        <line x1=".23" x2="2.85" y1=".557" y2=".557" stroke="#333133" stroke-linecap="round" stroke-linejoin="round"/>
      </g>
    </g>
    <g mask="url(#site_icon19-b)">
      <g transform="translate(23.5 23.786)">
        <line x1=".104" x2="8.613" y1=".557" y2=".557" fill="#FFF"/>
        <line x1=".104" x2="8.613" y1=".557" y2=".557" stroke="#333133" stroke-linecap="round" stroke-linejoin="round"/>
      </g>
    </g>
  </g>
</svg>
