<svg xmlns="http://www.w3.org/2000/svg" width="37" height="37" viewBox="0 0 37 37">
  <g fill="none" fill-rule="evenodd" opacity=".8" transform="translate(1 1)">
    <path fill="#B0D9E8" d="M34.85045,19.3488 L34.85045,15.7513 L30.57095,14.2223 C30.25145,12.9673 29.75395,11.7843 29.10895,10.6988 L31.05495,6.5888 L28.51095,4.0453 L24.40195,5.9918 C23.31645,5.3468 22.13245,4.8488 20.87795,4.5288 L19.34895,0.2498 L15.75145,0.2498 L14.22245,4.5288 C12.96745,4.8488 11.78445,5.3468 10.69845,5.9918 L6.58945,4.0453 L4.04545,6.5888 L5.99145,10.6988 C5.34645,11.7843 4.84895,12.9673 4.52895,14.2223 L0.24995,15.7513 L0.24995,19.3488 L4.52895,20.8778 C4.84895,22.1328 5.34645,23.3163 5.99145,24.4018 L4.04545,28.5113 L6.58945,31.0553 L10.69845,29.1088 C11.78445,29.7538 12.96745,30.2518 14.22245,30.5713 L15.75145,34.8503 L19.34895,34.8503 L20.87795,30.5713 C22.13245,30.2518 23.31645,29.7538 24.40195,29.1088 L28.51095,31.0553 L31.05495,28.5113 L29.10895,24.4018 C29.75395,23.3163 30.25145,22.1328 30.57095,20.8778 L34.85045,19.3488 Z"/>
    <path stroke="#333133" stroke-linecap="round" stroke-linejoin="round" d="M34.85045,19.3488 L34.85045,15.7513 L30.57095,14.2223 C30.25145,12.9673 29.75395,11.7843 29.10895,10.6988 L31.05495,6.5888 L28.51095,4.0453 L24.40195,5.9918 C23.31645,5.3468 22.13245,4.8488 20.87795,4.5288 L19.34895,0.2498 L15.75145,0.2498 L14.22245,4.5288 C12.96745,4.8488 11.78445,5.3468 10.69845,5.9918 L6.58945,4.0453 L4.04545,6.5888 L5.99145,10.6988 C5.34645,11.7843 4.84895,12.9673 4.52895,14.2223 L0.24995,15.7513 L0.24995,19.3488 L4.52895,20.8778 C4.84895,22.1328 5.34645,23.3163 5.99145,24.4018 L4.04545,28.5113 L6.58945,31.0553 L10.69845,29.1088 C11.78445,29.7538 12.96745,30.2518 14.22245,30.5713 L15.75145,34.8503 L19.34895,34.8503 L20.87795,30.5713 C22.13245,30.2518 23.31645,29.7538 24.40195,29.1088 L28.51095,31.0553 L31.05495,28.5113 L29.10895,24.4018 C29.75395,23.3163 30.25145,22.1328 30.57095,20.8778 L34.85045,19.3488 Z"/>
    <path fill="#F3A5BF" d="M27.87435,17.5502 C27.87435,23.2522 23.25235,27.8742 17.55035,27.8742 C11.84835,27.8742 7.22585,23.2522 7.22585,17.5502 C7.22585,11.8482 11.84835,7.2262 17.55035,7.2262 C23.25235,7.2262 27.87435,11.8482 27.87435,17.5502"/>
    <path stroke="#333133" stroke-linecap="round" stroke-linejoin="round" d="M27.87435,17.5502 C27.87435,23.2522 23.25235,27.8742 17.55035,27.8742 C11.84835,27.8742 7.22585,23.2522 7.22585,17.5502 C7.22585,11.8482 11.84835,7.2262 17.55035,7.2262 C23.25235,7.2262 27.87435,11.8482 27.87435,17.5502 Z"/>
    <g transform="translate(11.5 10.6)">
      <path fill="#FFF" d="M9.69565,12.07705 L9.69565,8.21055 C10.68115,7.35355 11.30515,6.09155 11.30515,4.68305 C11.30515,2.10205 9.21265,0.00955 6.63115,0.00955 C4.05015,0.00955 1.95765,2.10205 1.95765,4.68305 L1.95765,5.31705 L0.41415,7.84305 L1.95765,7.84305 L1.95765,10.67055 C1.95765,11.20655 2.39215,11.64055 2.92765,11.64055 L3.25015,11.64055 C4.05715,11.64055 4.79565,11.35655 5.37565,10.88455 L5.37565,12.07705"/>
      <path stroke="#333133" stroke-linecap="round" stroke-linejoin="round" d="M9.69565,12.07705 L9.69565,8.21055 C10.68115,7.35355 11.30515,6.09155 11.30515,4.68305 C11.30515,2.10205 9.21265,0.00955 6.63115,0.00955 C4.05015,0.00955 1.95765,2.10205 1.95765,4.68305 L1.95765,5.31705 L0.41415,7.84305 L1.95765,7.84305 L1.95765,10.67055 C1.95765,11.20655 2.39215,11.64055 2.92765,11.64055 L3.25015,11.64055 C4.05715,11.64055 4.79565,11.35655 5.37565,10.88455 L5.37565,12.07705"/>
    </g>
    <path fill="#5F6685" d="M21.40805,15.82365 L21.40805,14.88715 L20.69905,14.88715 C20.63405,14.54515 20.50055,14.22715 20.31155,13.94915 L20.81205,13.44865 L20.15005,12.78665 L19.64905,13.28715 C19.37205,13.09815 19.05405,12.96465 18.71105,12.89965 L18.71105,12.19115 L17.77505,12.19115 L17.77505,12.89965 C17.43305,12.96465 17.11505,13.09815 16.83705,13.28715 L16.33655,12.78665 L15.67455,13.44865 L16.17505,13.94915 C15.98605,14.22715 15.85255,14.54515 15.78805,14.88715 L15.07905,14.88715 L15.07905,15.82365 L15.78805,15.82365 C15.85255,16.16615 15.98605,16.48365 16.17505,16.76165 L15.67455,17.26215 L16.33655,17.92415 L16.83705,17.42365 C17.11505,17.61265 17.43305,17.74615 17.77505,17.81115 L17.77505,18.52015 L18.71105,18.52015 L18.71105,17.81115 C19.05405,17.74615 19.37205,17.61265 19.64905,17.42365 L20.15005,17.92415 L20.81205,17.26215 L20.31155,16.76165 C20.50055,16.48365 20.63405,16.16615 20.69905,15.82365 L21.40805,15.82365 Z"/>
    <path stroke="#333133" stroke-linecap="round" stroke-linejoin="round" d="M21.40805,15.82365 L21.40805,14.88715 L20.69905,14.88715 C20.63405,14.54515 20.50055,14.22715 20.31155,13.94915 L20.81205,13.44865 L20.15005,12.78665 L19.64905,13.28715 C19.37205,13.09815 19.05405,12.96465 18.71105,12.89965 L18.71105,12.19115 L17.77505,12.19115 L17.77505,12.89965 C17.43305,12.96465 17.11505,13.09815 16.83705,13.28715 L16.33655,12.78665 L15.67455,13.44865 L16.17505,13.94915 C15.98605,14.22715 15.85255,14.54515 15.78805,14.88715 L15.07905,14.88715 L15.07905,15.82365 L15.78805,15.82365 C15.85255,16.16615 15.98605,16.48365 16.17505,16.76165 L15.67455,17.26215 L16.33655,17.92415 L16.83705,17.42365 C17.11505,17.61265 17.43305,17.74615 17.77505,17.81115 L17.77505,18.52015 L18.71105,18.52015 L18.71105,17.81115 C19.05405,17.74615 19.37205,17.61265 19.64905,17.42365 L20.15005,17.92415 L20.81205,17.26215 L20.31155,16.76165 C20.50055,16.48365 20.63405,16.16615 20.69905,15.82365 L21.40805,15.82365 Z"/>
    <path fill="#FFF" d="M19.18245,15.3554 C19.18245,15.8744 18.76195,16.2944 18.24345,16.2944 C17.72495,16.2944 17.30445,15.8744 17.30445,15.3554 C17.30445,14.8369 17.72495,14.4164 18.24345,14.4164 C18.76195,14.4164 19.18245,14.8369 19.18245,15.3554"/>
    <path stroke="#333133" stroke-linecap="round" stroke-linejoin="round" d="M19.18245,15.3554 C19.18245,15.8744 18.76195,16.2944 18.24345,16.2944 C17.72495,16.2944 17.30445,15.8744 17.30445,15.3554 C17.30445,14.8369 17.72495,14.4164 18.24345,14.4164 C18.76195,14.4164 19.18245,14.8369 19.18245,15.3554 Z"/>
  </g>
</svg>
