<svg xmlns="http://www.w3.org/2000/svg" xmlns:xlink="http://www.w3.org/1999/xlink" width="51" height="32" viewBox="0 0 51 32">
  <defs>
    <polygon id="site_icon5-a" points="0 31.5 49.733 31.5 49.733 .399 0 .399"/>
  </defs>
  <g fill="none" fill-rule="evenodd" opacity=".8" transform="translate(1)">
    <polygon fill="#CECECE" points="14.231 29.64 14.842 16.821 20.422 16.821 21.034 29.64"/>
    <polygon stroke="#333133" stroke-linecap="round" stroke-linejoin="round" points="14.231 29.64 14.842 16.821 20.422 16.821 21.034 29.64"/>
    <g transform="translate(0 .102)">
      <path fill="#5F6685" d="M33.97385,24.08075 L1.29035,24.08075 C0.71585,24.08075 0.24985,23.61475 0.24985,23.04025 L0.24985,2.13825 C0.24985,1.56325 0.71585,1.09775 1.29035,1.09775 L33.97385,1.09775 C34.54835,1.09775 35.01435,1.56325 35.01435,2.13825 L35.01435,23.04025 C35.01435,23.61475 34.54835,24.08075 33.97385,24.08075"/>
      <path stroke="#333133" stroke-linecap="round" stroke-linejoin="round" d="M33.97385,24.08075 L1.29035,24.08075 C0.71585,24.08075 0.24985,23.61475 0.24985,23.04025 L0.24985,2.13825 C0.24985,1.56325 0.71585,1.09775 1.29035,1.09775 L33.97385,1.09775 C34.54835,1.09775 35.01435,1.56325 35.01435,2.13825 L35.01435,23.04025 C35.01435,23.61475 34.54835,24.08075 33.97385,24.08075 Z"/>
      <mask id="site_icon5-b" fill="#fff">
        <use xlink:href="#site_icon5-a"/>
      </mask>
      <polygon fill="#FFF" points="2.25 22.081 33.014 22.081 33.014 3.098 2.25 3.098" mask="url(#site_icon5-b)"/>
      <polygon stroke="#333133" stroke-linecap="round" stroke-linejoin="round" points="2.25 22.081 33.014 22.081 33.014 3.098 2.25 3.098" mask="url(#site_icon5-b)"/>
      <path fill="#CECECE" d="M25.23775,31.24995 L10.02675,31.24995 C10.02675,30.28795 10.80625,29.50845 11.76875,29.50845 L23.49625,29.50845 C24.45775,29.50845 25.23775,30.28795 25.23775,31.24995" mask="url(#site_icon5-b)"/>
      <path stroke="#333133" stroke-linecap="round" stroke-linejoin="round" d="M25.23775,31.24995 L10.02675,31.24995 C10.02675,30.28795 10.80625,29.50845 11.76875,29.50845 L23.49625,29.50845 C24.45775,29.50845 25.23775,30.28795 25.23775,31.24995 Z" mask="url(#site_icon5-b)"/>
      <polygon fill="#F36A5D" points="31.074 31.082 29.482 28.156 26.238 28.907 30.418 19.613 35.254 21.788" mask="url(#site_icon5-b)"/>
      <polygon stroke="#333133" stroke-linecap="round" stroke-linejoin="round" points="31.074 31.082 29.482 28.156 26.238 28.907 30.418 19.613 35.254 21.788" mask="url(#site_icon5-b)"/>
      <polygon fill="#F36A5D" points="39.758 31.082 41.349 28.156 44.594 28.907 40.413 19.613 35.578 21.788" mask="url(#site_icon5-b)"/>
      <polygon stroke="#333133" stroke-linecap="round" stroke-linejoin="round" points="39.758 31.082 41.349 28.156 44.594 28.907 40.413 19.613 35.578 21.788" mask="url(#site_icon5-b)"/>
      <path fill="#FDE090" d="M37.3332,6.96795 L37.3332,6.96795 C37.8497,7.75495 38.7947,8.14595 39.7162,7.95495 C41.3322,7.61995 42.7627,9.05045 42.4272,10.66645 C42.2362,11.58795 42.6277,12.53295 43.4147,13.04945 C44.7942,13.95495 44.7942,15.97795 43.4147,16.88395 C42.6277,17.40045 42.2362,18.34495 42.4272,19.26695 C42.7627,20.88295 41.3322,22.31345 39.7162,21.97845 C38.7947,21.78695 37.8497,22.17795 37.3332,22.96545 C36.4272,24.34495 34.4047,24.34495 33.4987,22.96545 C32.9822,22.17795 32.0377,21.78695 31.1157,21.97845 C29.4997,22.31345 28.0692,20.88295 28.4047,19.26695 C28.5957,18.34495 28.2042,17.40045 27.4172,16.88395 C26.0377,15.97795 26.0377,13.95495 27.4172,13.04945 C28.2042,12.53295 28.5957,11.58795 28.4047,10.66645 C28.0692,9.05045 29.4997,7.61995 31.1157,7.95495 C32.0377,8.14595 32.9822,7.75495 33.4987,6.96795 C34.4047,5.58795 36.4272,5.58795 37.3332,6.96795" mask="url(#site_icon5-b)"/>
      <path stroke="#333133" stroke-linecap="round" stroke-linejoin="round" d="M37.3332,6.96795 L37.3332,6.96795 C37.8497,7.75495 38.7947,8.14595 39.7162,7.95495 C41.3322,7.61995 42.7627,9.05045 42.4272,10.66645 C42.2362,11.58795 42.6277,12.53295 43.4147,13.04945 C44.7942,13.95495 44.7942,15.97795 43.4147,16.88395 C42.6277,17.40045 42.2362,18.34495 42.4272,19.26695 C42.7627,20.88295 41.3322,22.31345 39.7162,21.97845 C38.7947,21.78695 37.8497,22.17795 37.3332,22.96545 C36.4272,24.34495 34.4047,24.34495 33.4987,22.96545 C32.9822,22.17795 32.0377,21.78695 31.1157,21.97845 C29.4997,22.31345 28.0692,20.88295 28.4047,19.26695 C28.5957,18.34495 28.2042,17.40045 27.4172,16.88395 C26.0377,15.97795 26.0377,13.95495 27.4172,13.04945 C28.2042,12.53295 28.5957,11.58795 28.4047,10.66645 C28.0692,9.05045 29.4997,7.61995 31.1157,7.95495 C32.0377,8.14595 32.9822,7.75495 33.4987,6.96795 C34.4047,5.58795 36.4272,5.58795 37.3332,6.96795 Z" mask="url(#site_icon5-b)"/>
      <path fill="#FDE090" d="M41.16645,14.9665 C41.16645,18.1425 38.59195,20.717 35.41595,20.717 C32.23995,20.717 29.66545,18.1425 29.66545,14.9665 C29.66545,11.7905 32.23995,9.2165 35.41595,9.2165 C38.59195,9.2165 41.16645,11.7905 41.16645,14.9665" mask="url(#site_icon5-b)"/>
      <path stroke="#333133" stroke-linecap="round" stroke-linejoin="round" d="M41.16645,14.9665 C41.16645,18.1425 38.59195,20.717 35.41595,20.717 C32.23995,20.717 29.66545,18.1425 29.66545,14.9665 C29.66545,11.7905 32.23995,9.2165 35.41595,9.2165 C38.59195,9.2165 41.16645,11.7905 41.16645,14.9665 Z" mask="url(#site_icon5-b)"/>
      <path fill="#FFF" d="M47.5417,10.20285 L47.7032,10.69585 C47.9032,11.30485 48.3807,11.78235 48.9897,11.98235 L49.4827,12.14385 L48.9897,12.30535 C48.3807,12.50485 47.9032,12.98285 47.7032,13.59185 L47.5417,14.08485 L47.3802,13.59185 C47.1802,12.98285 46.7027,12.50485 46.0937,12.30535 L45.6007,12.14385 L46.0937,11.98235 C46.7027,11.78235 47.1802,11.30485 47.3802,10.69585 L47.5417,10.20285 Z" mask="url(#site_icon5-b)"/>
      <path stroke="#333133" stroke-linecap="round" stroke-linejoin="round" d="M47.5417,10.20285 L47.7032,10.69585 C47.9032,11.30485 48.3807,11.78235 48.9897,11.98235 L49.4827,12.14385 L48.9897,12.30535 C48.3807,12.50485 47.9032,12.98285 47.7032,13.59185 L47.5417,14.08485 L47.3802,13.59185 C47.1802,12.98285 46.7027,12.50485 46.0937,12.30535 L45.6007,12.14385 L46.0937,11.98235 C46.7027,11.78235 47.1802,11.30485 47.3802,10.69585 L47.5417,10.20285 Z" mask="url(#site_icon5-b)"/>
      <path fill="#FFF" d="M39.8845,0.6484 L40.046,1.1404 C40.2455,1.7484 40.722,2.2254 41.33,2.4249 L41.822,2.5859 L41.33,2.7474 C40.722,2.9469 40.2455,3.4234 40.046,4.0319 L39.8845,4.5234 L39.723,4.0319 C39.5235,3.4234 39.047,2.9469 38.439,2.7474 L37.947,2.5859 L38.439,2.4249 C39.047,2.2254 39.5235,1.7484 39.723,1.1404 L39.8845,0.6484 Z" mask="url(#site_icon5-b)"/>
      <path stroke="#333133" stroke-linecap="round" stroke-linejoin="round" d="M39.8845,0.6484 L40.046,1.1404 C40.2455,1.7484 40.722,2.2254 41.33,2.4249 L41.822,2.5859 L41.33,2.7474 C40.722,2.9469 40.2455,3.4234 40.046,4.0319 L39.8845,4.5234 L39.723,4.0319 C39.5235,3.4234 39.047,2.9469 38.439,2.7474 L37.947,2.5859 L38.439,2.4249 C39.047,2.2254 39.5235,1.7484 39.723,1.1404 L39.8845,0.6484 Z" mask="url(#site_icon5-b)"/>
      <polygon fill="#FFF" points="6.636 9.357 9.074 9.357 9.074 6.92 6.636 6.92" mask="url(#site_icon5-b)"/>
      <polygon stroke="#333133" stroke-linecap="round" stroke-linejoin="round" points="6.636 9.357 9.074 9.357 9.074 6.92 6.636 6.92" mask="url(#site_icon5-b)"/>
      <g mask="url(#site_icon5-b)">
        <g transform="translate(11 7.5)">
          <line x1=".294" x2="12.518" y1=".638" y2=".638" fill="#FFF"/>
          <line x1=".294" x2="12.518" y1=".638" y2=".638" stroke="#333133" stroke-linecap="round" stroke-linejoin="round"/>
        </g>
      </g>
      <polygon fill="#FFF" points="6.636 14.037 9.074 14.037 9.074 11.6 6.636 11.6" mask="url(#site_icon5-b)"/>
      <polygon stroke="#333133" stroke-linecap="round" stroke-linejoin="round" points="6.636 14.037 9.074 14.037 9.074 11.6 6.636 11.6" mask="url(#site_icon5-b)"/>
      <g mask="url(#site_icon5-b)">
        <g transform="translate(11 12.5)">
          <line x1=".294" x2="12.518" y1=".318" y2=".318" fill="#FFF"/>
          <line x1=".294" x2="12.518" y1=".318" y2=".318" stroke="#333133" stroke-linecap="round" stroke-linejoin="round"/>
        </g>
      </g>
      <polygon fill="#FFF" points="6.636 18.716 9.074 18.716 9.074 16.279 6.636 16.279" mask="url(#site_icon5-b)"/>
      <polygon stroke="#333133" stroke-linecap="round" stroke-linejoin="round" points="6.636 18.716 9.074 18.716 9.074 16.279 6.636 16.279" mask="url(#site_icon5-b)"/>
      <g mask="url(#site_icon5-b)">
        <g transform="translate(11 17)">
          <line x1=".294" x2="12.518" y1=".498" y2=".498" fill="#FFF"/>
          <line x1=".294" x2="12.518" y1=".498" y2=".498" stroke="#333133" stroke-linecap="round" stroke-linejoin="round"/>
        </g>
      </g>
    </g>
  </g>
</svg>
