<svg xmlns="http://www.w3.org/2000/svg" xmlns:xlink="http://www.w3.org/1999/xlink" width="32" height="40" viewBox="0 0 32 40">
  <defs>
    <polygon id="site_icon18-a" points="0 37.951 30.982 37.951 30.982 0 0 0"/>
  </defs>
  <g fill="none" fill-rule="evenodd" opacity=".8" transform="translate(1 1)">
    <path fill="#FFF" d="M6.74117869,1.95047838 L6.74117869,4.33266757 C6.74117869,5.26931622 5.98803115,6.02674865 5.06057213,6.02674865 L4.20578525,6.02674865 C3.27883443,6.02674865 2.52975246,5.26931622 2.52975246,4.33266757 L2.52975246,1.95047838 C2.52975246,1.01382973 3.27883443,0.256910811 4.20578525,0.256910811 L5.06057213,0.256910811 C5.20896557,0.256910811 5.35685082,0.277964865 5.49660492,0.316478378 C6.2121459,0.509045946 6.74117869,1.16788378 6.74117869,1.95047838"/>
    <path stroke="#333133" stroke-linecap="round" stroke-linejoin="round" d="M6.74117869,1.95047838 L6.74117869,4.33266757 C6.74117869,5.26931622 5.98803115,6.02674865 5.06057213,6.02674865 L4.20578525,6.02674865 C3.27883443,6.02674865 2.52975246,5.26931622 2.52975246,4.33266757 L2.52975246,1.95047838 C2.52975246,1.01382973 3.27883443,0.256910811 4.20578525,0.256910811 L5.06057213,0.256910811 C5.20896557,0.256910811 5.35685082,0.277964865 5.49660492,0.316478378 C6.2121459,0.509045946 6.74117869,1.16788378 6.74117869,1.95047838 Z"/>
    <path fill="#FDE090" d="M5.49675738,0.316632432 C5.35700328,0.278118919 5.20911803,0.256551351 5.06072459,0.256551351 L4.48951148,0.256551351 L4.2059377,0.256551351 C3.27898689,0.256551351 2.52990492,1.01347027 2.52990492,1.95063243 L2.52990492,2.93401081 C2.54260984,2.93863243 2.55480656,2.93863243 2.56751148,2.93863243 C3.57526557,2.93863243 4.46410164,2.42974054 4.9977082,1.65125405 C5.40782295,2.24538919 6.02172459,2.68598378 6.74133115,2.85287568 L6.74133115,1.95063243 C6.74133115,1.16752432 6.21229836,0.5092 5.49675738,0.316632432"/>
    <path stroke="#333133" stroke-linecap="round" stroke-linejoin="round" d="M5.49675738,0.316632432 C5.35700328,0.278118919 5.20911803,0.256551351 5.06072459,0.256551351 L4.48951148,0.256551351 L4.2059377,0.256551351 C3.27898689,0.256551351 2.52990492,1.01347027 2.52990492,1.95063243 L2.52990492,2.93401081 C2.54260984,2.93863243 2.55480656,2.93863243 2.56751148,2.93863243 C3.57526557,2.93863243 4.46410164,2.42974054 4.9977082,1.65125405 C5.40782295,2.24538919 6.02172459,2.68598378 6.74133115,2.85287568 L6.74133115,1.95063243 C6.74133115,1.16752432 6.21229836,0.5092 5.49675738,0.316632432 Z"/>
    <path fill="#5F6685" d="M9.01688361,11.1427811 L0.254047541,11.1427811 L0.254047541,7.96618649 C0.254047541,6.8949973 1.1134082,6.02664595 2.17401475,6.02664595 L7.09691639,6.02664595 C8.15752295,6.02664595 9.01688361,6.8949973 9.01688361,7.96618649 L9.01688361,11.1427811 Z"/>
    <path stroke="#333133" stroke-linecap="round" stroke-linejoin="round" d="M9.01688361,11.1427811 L0.254047541,11.1427811 L0.254047541,7.96618649 C0.254047541,6.8949973 1.1134082,6.02664595 2.17401475,6.02664595 L7.09691639,6.02664595 C8.15752295,6.02664595 9.01688361,6.8949973 9.01688361,7.96618649 L9.01688361,11.1427811 Z"/>
    <polygon fill="#FFF" points="4.633 9.41 2.829 6.027 6.442 6.027"/>
    <polygon stroke="#333133" stroke-linecap="round" stroke-linejoin="round" points="4.633 9.41 2.829 6.027 6.442 6.027"/>
    <path fill="#FFF" d="M6.74117869,15.2266 L6.74117869,17.6087892 C6.74117869,18.5454378 5.98803115,19.3023568 5.06057213,19.3023568 L4.20578525,19.3023568 C3.27883443,19.3023568 2.52975246,18.5454378 2.52975246,17.6087892 L2.52975246,15.2266 C2.52975246,14.2899514 3.27883443,13.5325189 4.20578525,13.5325189 L5.06057213,13.5325189 C5.20896557,13.5325189 5.35685082,13.5540865 5.49660492,13.5926 C6.2121459,13.7851676 6.74117869,14.4440054 6.74117869,15.2266"/>
    <path stroke="#333133" stroke-linecap="round" stroke-linejoin="round" d="M6.74117869,15.2266 L6.74117869,17.6087892 C6.74117869,18.5454378 5.98803115,19.3023568 5.06057213,19.3023568 L4.20578525,19.3023568 C3.27883443,19.3023568 2.52975246,18.5454378 2.52975246,17.6087892 L2.52975246,15.2266 C2.52975246,14.2899514 3.27883443,13.5325189 4.20578525,13.5325189 L5.06057213,13.5325189 C5.20896557,13.5325189 5.35685082,13.5540865 5.49660492,13.5926 C6.2121459,13.7851676 6.74117869,14.4440054 6.74117869,15.2266 Z"/>
    <path fill="#5F6685" d="M5.49675738,13.5924973 C5.35700328,13.5539838 5.20911803,13.5324162 5.06072459,13.5324162 L4.48951148,13.5324162 L4.2059377,13.5324162 C3.27898689,13.5324162 2.52990492,14.2898486 2.52990492,15.2264973 L2.52990492,16.2103892 C2.54260984,16.2144973 2.55480656,16.2144973 2.56751148,16.2144973 C3.57526557,16.2144973 4.46410164,15.7056054 4.9977082,14.9271189 C5.40782295,15.5217676 6.02172459,15.9618486 6.74133115,16.1287405 L6.74133115,15.2264973 C6.74133115,14.4439027 6.21229836,13.7850649 5.49675738,13.5924973"/>
    <path stroke="#333133" stroke-linecap="round" stroke-linejoin="round" d="M5.49675738,13.5924973 C5.35700328,13.5539838 5.20911803,13.5324162 5.06072459,13.5324162 L4.48951148,13.5324162 L4.2059377,13.5324162 C3.27898689,13.5324162 2.52990492,14.2898486 2.52990492,15.2264973 L2.52990492,16.2103892 C2.54260984,16.2144973 2.55480656,16.2144973 2.56751148,16.2144973 C3.57526557,16.2144973 4.46410164,15.7056054 4.9977082,14.9271189 C5.40782295,15.5217676 6.02172459,15.9618486 6.74133115,16.1287405 L6.74133115,15.2264973 C6.74133115,14.4439027 6.21229836,13.7850649 5.49675738,13.5924973 Z"/>
    <path fill="#CECECE" d="M9.01688361,24.4186973 L0.254047541,24.4186973 L0.254047541,21.2421027 C0.254047541,20.1709135 1.1134082,19.3025622 2.17401475,19.3025622 L7.09691639,19.3025622 C8.15752295,19.3025622 9.01688361,20.1709135 9.01688361,21.2421027 L9.01688361,24.4186973 Z"/>
    <path stroke="#333133" stroke-linecap="round" stroke-linejoin="round" d="M9.01688361,24.4186973 L0.254047541,24.4186973 L0.254047541,21.2421027 C0.254047541,20.1709135 1.1134082,19.3025622 2.17401475,19.3025622 L7.09691639,19.3025622 C8.15752295,19.3025622 9.01688361,20.1709135 9.01688361,21.2421027 L9.01688361,24.4186973 Z"/>
    <polygon fill="#FFF" points="4.633 22.687 2.829 19.303 6.442 19.303"/>
    <polygon stroke="#333133" stroke-linecap="round" stroke-linejoin="round" points="4.633 22.687 2.829 19.303 6.442 19.303"/>
    <path fill="#FFF" d="M6.74117869,28.5024649 L6.74117869,30.8846541 C6.74117869,31.8213027 5.98803115,32.5782216 5.06057213,32.5782216 L4.20578525,32.5782216 C3.27883443,32.5782216 2.52975246,31.8213027 2.52975246,30.8846541 L2.52975246,28.5024649 C2.52975246,27.5658162 3.27883443,26.8088973 4.20578525,26.8088973 L5.06057213,26.8088973 C5.20896557,26.8088973 5.35685082,26.8299514 5.49660492,26.8684649 C6.2121459,27.0610324 6.74117869,27.7198703 6.74117869,28.5024649"/>
    <path stroke="#333133" stroke-linecap="round" stroke-linejoin="round" d="M6.74117869,28.5024649 L6.74117869,30.8846541 C6.74117869,31.8213027 5.98803115,32.5782216 5.06057213,32.5782216 L4.20578525,32.5782216 C3.27883443,32.5782216 2.52975246,31.8213027 2.52975246,30.8846541 L2.52975246,28.5024649 C2.52975246,27.5658162 3.27883443,26.8088973 4.20578525,26.8088973 L5.06057213,26.8088973 C5.20896557,26.8088973 5.35685082,26.8299514 5.49660492,26.8684649 C6.2121459,27.0610324 6.74117869,27.7198703 6.74117869,28.5024649 Z"/>
    <path fill="#9CD495" d="M5.49675738,26.8686703 C5.35700328,26.8301568 5.20911803,26.8085892 5.06072459,26.8085892 L4.48951148,26.8085892 L4.2059377,26.8085892 C3.27898689,26.8085892 2.52990492,27.5655081 2.52990492,28.5026703 L2.52990492,29.4860486 C2.54260984,29.4901568 2.55480656,29.4901568 2.56751148,29.4901568 C3.57526557,29.4901568 4.46410164,28.9812649 4.9977082,28.2032919 C5.40782295,28.797427 6.02172459,29.2380216 6.74133115,29.4049135 L6.74133115,28.5026703 C6.74133115,27.7195622 6.21229836,27.0612378 5.49675738,26.8686703"/>
    <path stroke="#333133" stroke-linecap="round" stroke-linejoin="round" d="M5.49675738,26.8686703 C5.35700328,26.8301568 5.20911803,26.8085892 5.06072459,26.8085892 L4.48951148,26.8085892 L4.2059377,26.8085892 C3.27898689,26.8085892 2.52990492,27.5655081 2.52990492,28.5026703 L2.52990492,29.4860486 C2.54260984,29.4901568 2.55480656,29.4901568 2.56751148,29.4901568 C3.57526557,29.4901568 4.46410164,28.9812649 4.9977082,28.2032919 C5.40782295,28.797427 6.02172459,29.2380216 6.74133115,29.4049135 L6.74133115,28.5026703 C6.74133115,27.7195622 6.21229836,27.0612378 5.49675738,26.8686703 Z"/>
    <path fill="#5F6685" d="M9.01688361,37.6948189 L0.254047541,37.6948189 L0.254047541,34.5182243 C0.254047541,33.4470351 1.1134082,32.5786838 2.17401475,32.5786838 L7.09691639,32.5786838 C8.15752295,32.5786838 9.01688361,33.4470351 9.01688361,34.5182243 L9.01688361,37.6948189 Z"/>
    <path stroke="#333133" stroke-linecap="round" stroke-linejoin="round" d="M9.01688361,37.6948189 L0.254047541,37.6948189 L0.254047541,34.5182243 C0.254047541,33.4470351 1.1134082,32.5786838 2.17401475,32.5786838 L7.09691639,32.5786838 C8.15752295,32.5786838 9.01688361,33.4470351 9.01688361,34.5182243 L9.01688361,37.6948189 Z"/>
    <polygon fill="#FFF" points="4.633 35.962 2.829 32.578 6.442 32.578"/>
    <polygon stroke="#333133" stroke-linecap="round" stroke-linejoin="round" points="4.633 35.962 2.829 32.578 6.442 32.578"/>
    <mask id="site_icon18-b" fill="#fff">
      <use xlink:href="#site_icon18-a"/>
    </mask>
    <polygon fill="#FFF" points="9.017 24.419 30.728 24.419 30.728 21.025 9.017 21.025" mask="url(#site_icon18-b)"/>
    <polygon stroke="#333133" stroke-linecap="round" stroke-linejoin="round" points="9.017 24.419 30.728 24.419 30.728 21.025 9.017 21.025" mask="url(#site_icon18-b)"/>
    <polygon fill="#FFF" points="9.017 37.695 30.728 37.695 30.728 34.3 9.017 34.3" mask="url(#site_icon18-b)"/>
    <polygon stroke="#333133" stroke-linecap="round" stroke-linejoin="round" points="9.017 37.695 30.728 37.695 30.728 34.3 9.017 34.3" mask="url(#site_icon18-b)"/>
    <polygon fill="#FFF" points="9.017 11.143 30.728 11.143 30.728 7.749 9.017 7.749" mask="url(#site_icon18-b)"/>
    <polygon stroke="#333133" stroke-linecap="round" stroke-linejoin="round" points="9.017 11.143 30.728 11.143 30.728 7.749 9.017 7.749" mask="url(#site_icon18-b)"/>
    <polygon fill="#F3A5BF" points="9.017 11.143 23.332 11.143 23.332 7.749 9.017 7.749" mask="url(#site_icon18-b)"/>
    <polygon stroke="#333133" stroke-linecap="round" stroke-linejoin="round" points="9.017 11.143 23.332 11.143 23.332 7.749 9.017 7.749" mask="url(#site_icon18-b)"/>
    <polygon fill="#FDE090" points="9.017 24.383 16.174 24.383 16.174 20.99 9.017 20.99" mask="url(#site_icon18-b)"/>
    <polygon stroke="#333133" stroke-linecap="round" stroke-linejoin="round" points="9.017 24.383 16.174 24.383 16.174 20.99 9.017 20.99" mask="url(#site_icon18-b)"/>
    <polygon fill="#B0D9E8" points="9.017 37.66 26.348 37.66 26.348 34.265 9.017 34.265" mask="url(#site_icon18-b)"/>
    <polygon stroke="#333133" stroke-linecap="round" stroke-linejoin="round" points="9.017 37.66 26.348 37.66 26.348 34.265 9.017 34.265" mask="url(#site_icon18-b)"/>
  </g>
</svg>
