<svg xmlns="http://www.w3.org/2000/svg" xmlns:xlink="http://www.w3.org/1999/xlink" width="40" height="49" viewBox="0 0 40 49">
  <defs>
    <polygon id="site_icon16-a" points="0 48.719 39.689 48.719 39.689 0 0 0"/>
  </defs>
  <g fill="none" fill-rule="evenodd" opacity=".8">
    <path fill="#FDE090" d="M25.4108354,18.595601 C25.4108354,15.1433742 22.5202025,12.3650237 19.0219747,12.5382918 C16.0280506,12.6863021 13.5379241,15.0711371 13.2761519,18.0505392 C13.1308354,19.7109825 13.6579241,21.2456423 14.6158987,22.4170959 C15.5034937,23.5036835 16.0569114,24.8231474 16.3034937,26.2027247 L16.6234937,27.997034 L22.0402025,27.997034 L22.3602025,26.2042402 C22.6042532,24.8352711 23.139443,23.5163124 24.0260253,22.4438691 C24.8908354,21.3971887 25.4108354,20.0580237 25.4108354,18.595601"/>
    <path stroke="#333133" stroke-linecap="round" stroke-linejoin="round" d="M25.4108354,18.595601 C25.4108354,15.1433742 22.5202025,12.3650237 19.0219747,12.5382918 C16.0280506,12.6863021 13.5379241,15.0711371 13.2761519,18.0505392 C13.1308354,19.7109825 13.6579241,21.2456423 14.6158987,22.4170959 C15.5034937,23.5036835 16.0569114,24.8231474 16.3034937,26.2027247 L16.6234937,27.997034 L22.0402025,27.997034 L22.3602025,26.2042402 C22.6042532,24.8352711 23.139443,23.5163124 24.0260253,22.4438691 C24.8908354,21.3971887 25.4108354,20.0580237 25.4108354,18.595601 Z"/>
    <path fill="#FFF" d="M21.7889114,30.8130186 C21.7889114,32.166833 20.6886582,33.264534 19.3311899,33.264534 C17.9747342,33.264534 16.874481,32.166833 16.874481,30.8130186 C16.874481,29.458699 17.9747342,28.3609979 19.3311899,28.3609979 C20.6886582,28.3609979 21.7889114,29.458699 21.7889114,30.8130186"/>
    <path stroke="#333133" stroke-linecap="round" stroke-linejoin="round" d="M21.7889114,30.8130186 C21.7889114,32.166833 20.6886582,33.264534 19.3311899,33.264534 C17.9747342,33.264534 16.874481,32.166833 16.874481,30.8130186 C16.874481,29.458699 17.9747342,28.3609979 19.3311899,28.3609979 C20.6886582,28.3609979 21.7889114,29.458699 21.7889114,30.8130186 Z"/>
    <path fill="#CECECE" d="M22.3016709,27.8001247 L16.3619241,27.8001247 C15.8059747,27.8001247 15.3553418,27.3505371 15.3553418,26.7958773 C15.3553418,26.2412175 15.8059747,25.7916299 16.3619241,25.7916299 L22.3016709,25.7916299 C22.8576203,25.7916299 23.3077468,26.2412175 23.3077468,26.7958773 C23.3077468,27.3505371 22.8576203,27.8001247 22.3016709,27.8001247"/>
    <path stroke="#333133" stroke-linecap="round" stroke-linejoin="round" d="M22.3016709,27.8001247 L16.3619241,27.8001247 C15.8059747,27.8001247 15.3553418,27.3505371 15.3553418,26.7958773 C15.3553418,26.2412175 15.8059747,25.7916299 16.3619241,25.7916299 L22.3016709,25.7916299 C22.8576203,25.7916299 23.3077468,26.2412175 23.3077468,26.7958773 C23.3077468,27.3505371 22.8576203,27.8001247 22.3016709,27.8001247 Z"/>
    <path fill="#CECECE" d="M22.3016709,29.8086196 L16.3619241,29.8086196 C15.8059747,29.8086196 15.3553418,29.359032 15.3553418,28.8043722 C15.3553418,28.2497124 15.8059747,27.8001247 16.3619241,27.8001247 L22.3016709,27.8001247 C22.8576203,27.8001247 23.3077468,28.2497124 23.3077468,28.8043722 C23.3077468,29.359032 22.8576203,29.8086196 22.3016709,29.8086196"/>
    <path stroke="#333133" stroke-linecap="round" stroke-linejoin="round" d="M22.3016709,29.8086196 L16.3619241,29.8086196 C15.8059747,29.8086196 15.3553418,29.359032 15.3553418,28.8043722 C15.3553418,28.2497124 15.8059747,27.8001247 16.3619241,27.8001247 L22.3016709,27.8001247 C22.8576203,27.8001247 23.3077468,28.2497124 23.3077468,28.8043722 C23.3077468,29.359032 22.8576203,29.8086196 22.3016709,29.8086196 Z"/>
    <path fill="#CECECE" d="M22.3016709,31.8171649 L16.3619241,31.8171649 C15.8059747,31.8171649 15.3553418,31.3675773 15.3553418,30.8129175 C15.3553418,30.2582577 15.8059747,29.8086701 16.3619241,29.8086701 L22.3016709,29.8086701 C22.8576203,29.8086701 23.3077468,30.2582577 23.3077468,30.8129175 C23.3077468,31.3675773 22.8576203,31.8171649 22.3016709,31.8171649"/>
    <path stroke="#333133" stroke-linecap="round" stroke-linejoin="round" d="M22.3016709,31.8171649 L16.3619241,31.8171649 C15.8059747,31.8171649 15.3553418,31.3675773 15.3553418,30.8129175 C15.3553418,30.2582577 15.8059747,29.8086701 16.3619241,29.8086701 L22.3016709,29.8086701 C22.8576203,29.8086701 23.3077468,30.2582577 23.3077468,30.8129175 C23.3077468,31.3675773 22.8576203,31.8171649 22.3016709,31.8171649 Z"/>
    <g transform="translate(22.785 20.936)">
      <path fill="#FFE1D6" d="M0.442987342,24.2849557 L1.5083038,17.6542959 L2.64248101,14.6678216 C3.02273418,13.6671103 3.80096203,12.8679557 4.79286076,12.4597907 L7.83286076,11.2100381 L8.82931646,14.8557392 L10.9822278,13.035667 L13.7032405,1.38680103 C13.8733671,0.657357732 14.5614684,0.166852577 15.3083038,0.243130928 C16.1493165,0.327996907 16.7513418,1.09128557 16.6369114,1.92630619 L14.9893165,13.9919247 C14.8576709,14.9577804 14.3234937,15.8236155 13.5179241,16.3757495 L6.39691139,21.3207082 L6.23994937,24.2849557"/>
      <path stroke="#333133" stroke-linecap="round" stroke-linejoin="round" d="M0.442987342,24.2849557 L1.5083038,17.6542959 L2.64248101,14.6678216 C3.02273418,13.6671103 3.80096203,12.8679557 4.79286076,12.4597907 L7.83286076,11.2100381 L8.82931646,14.8557392 L10.9822278,13.035667 L13.7032405,1.38680103 C13.8733671,0.657357732 14.5614684,0.166852577 15.3083038,0.243130928 C16.1493165,0.327996907 16.7513418,1.09128557 16.6369114,1.92630619 L14.9893165,13.9919247 C14.8576709,14.9577804 14.3234937,15.8236155 13.5179241,16.3757495 L6.39691139,21.3207082 L6.23994937,24.2849557"/>
    </g>
    <g transform="translate(27.342 29.018)">
      <path fill="#FFE1D6" d="M0.385620253,4.31604124 L3.27574684,3.12741237 L6.02612658,0.401597938 C6.41802532,0.012628866 7.02663291,-0.0555670103 7.49549367,0.236412371 C8.00789873,0.555670103 8.19929114,1.20630928 7.94156962,1.75137113 L6.42562025,4.95304124 L3.22460759,7.65915464"/>
      <path stroke="#333133" stroke-linecap="round" stroke-linejoin="round" d="M0.385620253,4.31604124 L3.27574684,3.12741237 L6.02612658,0.401597938 C6.41802532,0.012628866 7.02663291,-0.0555670103 7.49549367,0.236412371 C8.00789873,0.555670103 8.19929114,1.20630928 7.94156962,1.75137113 L6.42562025,4.95304124 L3.22460759,7.65915464"/>
    </g>
    <mask id="site_icon16-b" fill="#fff">
      <use xlink:href="#site_icon16-a"/>
    </mask>
    <polygon fill="#FFF" points="22.746 45.419 30.284 45.419 30.284 42.372 22.746 42.372" mask="url(#site_icon16-b)"/>
    <polygon stroke="#333133" stroke-linecap="round" stroke-linejoin="round" points="22.746 45.419 30.284 45.419 30.284 42.372 22.746 42.372" mask="url(#site_icon16-b)"/>
    <polygon fill="#5F6685" points="22.018 48.467 31.013 48.467 31.013 44.329 22.018 44.329" mask="url(#site_icon16-b)"/>
    <polygon stroke="#333133" stroke-linecap="round" stroke-linejoin="round" points="22.018 48.467 31.013 48.467 31.013 44.329 22.018 44.329" mask="url(#site_icon16-b)"/>
    <g mask="url(#site_icon16-b)">
      <g transform="translate(0 20.936)">
        <path fill="#FFE1D6" d="M16.4611139,24.2849557 L15.3957975,17.6542959 L14.2616203,14.6678216 C13.8813671,13.6671103 13.1031392,12.8679557 12.1112405,12.4597907 L9.07174684,11.2100381 L8.07529114,14.8557392 L5.92187342,13.035667 L3.20136709,1.38680103 C3.03073418,0.657357732 2.34313924,0.166852577 1.59579747,0.243130928 C0.755291139,0.327996907 0.153265823,1.09128557 0.267189873,1.92630619 L1.91478481,13.9919247 C2.04643038,14.9577804 2.58111392,15.8236155 3.38668354,16.3757495 L10.5076962,21.3207082 L10.6646582,24.2849557"/>
        <path stroke="#333133" stroke-linecap="round" stroke-linejoin="round" d="M16.4611139,24.2849557 L15.3957975,17.6542959 L14.2616203,14.6678216 C13.8813671,13.6671103 13.1031392,12.8679557 12.1112405,12.4597907 L9.07174684,11.2100381 L8.07529114,14.8557392 L5.92187342,13.035667 L3.20136709,1.38680103 C3.03073418,0.657357732 2.34313924,0.166852577 1.59579747,0.243130928 C0.755291139,0.327996907 0.153265823,1.09128557 0.267189873,1.92630619 L1.91478481,13.9919247 C2.04643038,14.9577804 2.58111392,15.8236155 3.38668354,16.3757495 L10.5076962,21.3207082 L10.6646582,24.2849557"/>
      </g>
    </g>
    <g mask="url(#site_icon16-b)">
      <g transform="translate(4.05 29.018)">
        <path fill="#FFE1D6" d="M7.91083544,4.31604124 L5.02121519,3.12741237 L2.27032911,0.401597938 C1.87843038,0.012628866 1.27032911,-0.0555670103 0.800962025,0.236412371 C0.289063291,0.555670103 0.097164557,1.20630928 0.355392405,1.75137113 L1.87083544,4.95304124 L5.0718481,7.65915464"/>
        <path stroke="#333133" stroke-linecap="round" stroke-linejoin="round" d="M7.91083544,4.31604124 L5.02121519,3.12741237 L2.27032911,0.401597938 C1.87843038,0.012628866 1.27032911,-0.0555670103 0.800962025,0.236412371 C0.289063291,0.555670103 0.097164557,1.20630928 0.355392405,1.75137113 L1.87083544,4.95304124 L5.0718481,7.65915464"/>
      </g>
    </g>
    <polygon fill="#FFF" points="9.405 45.419 16.943 45.419 16.943 42.372 9.405 42.372" mask="url(#site_icon16-b)"/>
    <polygon stroke="#333133" stroke-linecap="round" stroke-linejoin="round" points="9.405 45.419 16.943 45.419 16.943 42.372 9.405 42.372" mask="url(#site_icon16-b)"/>
    <polygon fill="#5F6685" points="8.676 48.467 17.671 48.467 17.671 44.329 8.676 44.329" mask="url(#site_icon16-b)"/>
    <polygon stroke="#333133" stroke-linecap="round" stroke-linejoin="round" points="8.676 48.467 17.671 48.467 17.671 44.329 8.676 44.329" mask="url(#site_icon16-b)"/>
    <path fill="#FFF" d="M5.50379747,12.192867 L5.69822785,12.7833928 C5.93772152,13.5133412 6.51139241,14.0856814 7.2435443,14.3251247 L7.83493671,14.518599 L7.2435443,14.7125784 C6.51139241,14.9515165 5.93772152,15.5243619 5.69822785,16.2538052 L5.50379747,16.8448361 L5.30987342,16.2538052 C5.06987342,15.5243619 4.49620253,14.9515165 3.76455696,14.7125784 L3.17265823,14.518599 L3.76455696,14.3251247 C4.49620253,14.0856814 5.06987342,13.5133412 5.30987342,12.7833928 L5.50379747,12.192867 Z" mask="url(#site_icon16-b)"/>
    <path stroke="#333133" stroke-linecap="round" stroke-linejoin="round" d="M5.50379747,12.192867 L5.69822785,12.7833928 C5.93772152,13.5133412 6.51139241,14.0856814 7.2435443,14.3251247 L7.83493671,14.518599 L7.2435443,14.7125784 C6.51139241,14.9515165 5.93772152,15.5243619 5.69822785,16.2538052 L5.50379747,16.8448361 L5.30987342,16.2538052 C5.06987342,15.5243619 4.49620253,14.9515165 3.76455696,14.7125784 L3.17265823,14.518599 L3.76455696,14.3251247 C4.49620253,14.0856814 5.06987342,13.5133412 5.30987342,12.7833928 L5.50379747,12.192867 Z" mask="url(#site_icon16-b)"/>
    <path fill="#FFF" d="M34.0787848,13.7581392 L34.2727089,14.3486649 C34.5122025,15.0786134 35.0863797,15.6509536 35.8180253,15.8903969 L36.4099241,16.0838711 L35.8180253,16.2778505 C35.0863797,16.5167887 34.5122025,17.0891289 34.2727089,17.8190773 L34.0787848,18.4101082 L33.8843544,17.8190773 C33.6448608,17.0891289 33.0711899,16.5167887 32.339038,16.2778505 L31.7476456,16.0838711 L32.339038,15.8903969 C33.0711899,15.6509536 33.6448608,15.0786134 33.8843544,14.3486649 L34.0787848,13.7581392 Z" mask="url(#site_icon16-b)"/>
    <path stroke="#333133" stroke-linecap="round" stroke-linejoin="round" d="M34.0787848,13.7581392 L34.2727089,14.3486649 C34.5122025,15.0786134 35.0863797,15.6509536 35.8180253,15.8903969 L36.4099241,16.0838711 L35.8180253,16.2778505 C35.0863797,16.5167887 34.5122025,17.0891289 34.2727089,17.8190773 L34.0787848,18.4101082 L33.8843544,17.8190773 C33.6448608,17.0891289 33.0711899,16.5167887 32.339038,16.2778505 L31.7476456,16.0838711 L32.339038,15.8903969 C33.0711899,15.6509536 33.6448608,15.0786134 33.8843544,14.3486649 L34.0787848,13.7581392 Z" mask="url(#site_icon16-b)"/>
    <path fill="#FFF" d="M19.7319494,0.252627835 L19.9638481,0.958834021 C20.2509367,1.83224639 20.937519,2.51723608 21.8124557,2.80315361 L22.5208101,3.03501959 L21.8124557,3.26688557 C20.937519,3.55330825 20.2509367,4.23779278 19.9638481,5.11120515 L19.7319494,5.81791649 L19.4995443,5.11120515 C19.212962,4.23779278 18.5258734,3.55330825 17.6509367,3.26688557 L16.9425823,3.03501959 L17.6509367,2.80315361 C18.5258734,2.51723608 19.212962,1.83224639 19.4995443,0.958834021 L19.7319494,0.252627835 Z" mask="url(#site_icon16-b)"/>
    <path stroke="#333133" stroke-linecap="round" stroke-linejoin="round" d="M19.7319494,0.252627835 L19.9638481,0.958834021 C20.2509367,1.83224639 20.937519,2.51723608 21.8124557,2.80315361 L22.5208101,3.03501959 L21.8124557,3.26688557 C20.937519,3.55330825 20.2509367,4.23779278 19.9638481,5.11120515 L19.7319494,5.81791649 L19.4995443,5.11120515 C19.212962,4.23779278 18.5258734,3.55330825 17.6509367,3.26688557 L16.9425823,3.03501959 L17.6509367,2.80315361 C18.5258734,2.51723608 19.212962,1.83224639 19.4995443,0.958834021 L19.7319494,0.252627835 Z" mask="url(#site_icon16-b)"/>
    <g mask="url(#site_icon16-b)">
      <g transform="translate(18.734 8.812)">
        <line x1=".597" x2=".597" y1="1.686" y2=".1" fill="#FFF"/>
        <line x1=".597" x2=".597" y1="1.686" y2=".1" stroke="#333133" stroke-linecap="round" stroke-linejoin="round"/>
      </g>
    </g>
    <g mask="url(#site_icon16-b)">
      <g transform="translate(14.177 9.822)">
        <line x1="1.133" x2=".338" y1="1.751" y2=".378" fill="#FFF"/>
        <line x1="1.133" x2=".338" y1="1.751" y2=".378" stroke="#333133" stroke-linecap="round" stroke-linejoin="round"/>
      </g>
    </g>
    <g mask="url(#site_icon16-b)">
      <g transform="translate(10.633 13.359)">
        <line x1="1.733" x2=".356" y1="1.152" y2=".36" fill="#FFF"/>
        <line x1="1.733" x2=".356" y1="1.152" y2=".36" stroke="#333133" stroke-linecap="round" stroke-linejoin="round"/>
      </g>
    </g>
    <g mask="url(#site_icon16-b)">
      <g transform="translate(9.62 17.905)">
        <line x1="1.668" x2=".078" y1=".618" y2=".618" fill="#FFF"/>
        <line x1="1.668" x2=".078" y1=".618" y2=".618" stroke="#333133" stroke-linecap="round" stroke-linejoin="round"/>
      </g>
    </g>
    <g mask="url(#site_icon16-b)">
      <g transform="translate(23.291 9.822)">
        <line x1=".062" x2=".857" y1="1.751" y2=".378" fill="#FFF"/>
        <line x1=".062" x2=".857" y1="1.751" y2=".378" stroke="#333133" stroke-linecap="round" stroke-linejoin="round"/>
      </g>
    </g>
    <g mask="url(#site_icon16-b)">
      <g transform="translate(25.823 13.359)">
        <line x1=".475" x2="1.851" y1="1.152" y2=".36" fill="#FFF"/>
        <line x1=".475" x2="1.851" y1="1.152" y2=".36" stroke="#333133" stroke-linecap="round" stroke-linejoin="round"/>
      </g>
    </g>
    <g mask="url(#site_icon16-b)">
      <g transform="translate(27.342 17.905)">
        <line x1="1.636" x2=".047" y1=".473" y2=".473" fill="#FFF"/>
        <line x1="1.636" x2=".047" y1=".473" y2=".473" stroke="#333133" stroke-linecap="round" stroke-linejoin="round"/>
      </g>
    </g>
  </g>
</svg>
