<svg xmlns="http://www.w3.org/2000/svg" xmlns:xlink="http://www.w3.org/1999/xlink" width="34" height="34" viewBox="0 0 34 34">
  <defs>
    <polygon id="site-icon1-a" points="0 33.493 33.832 33.493 33.832 .495 0 .495"/>
  </defs>
  <g fill="none" fill-rule="evenodd" opacity=".8">
    <path fill="#FFE1D6" d="M27.22275,22.5442328 L30.09725,22.5442328 L27.22275,22.5442328 Z"/>
    <line x1="30.098" x2="27.223" y1="22.544" y2="22.544" stroke="#333133" stroke-linecap="round" stroke-linejoin="round"/>
    <path fill="#FFE1D6" d="M27.22275,26.070997 L30.09725,26.070997 L27.22275,26.070997 Z"/>
    <line x1="30.098" x2="27.223" y1="26.071" y2="26.071" stroke="#333133" stroke-linecap="round" stroke-linejoin="round"/>
    <g transform="translate(0 .013)">
      <g transform="translate(8 9.642)">
        <path fill="#FFE1D6" d="M0.2902,11.3060149 L3.4702,11.3060149 L8.3077,7.64873134 L12.3037,0.833507463 C12.7717,0.0352686567 13.8202,-0.171268657 14.5487,0.391 C15.1037,0.819298507 15.3387,1.55258209 15.1377,2.23055224 L13.6127,8.07855224 C13.3427,8.67938806 13.7757,9.36243284 14.4262,9.36243284 L16.2972,9.36243284 L21.9992,9.36243284 C22.9402,9.36243284 23.7832,10.0774478 23.8327,11.0309701 C23.8852,12.0479254 23.0882,12.8892985 22.0977,12.8892985 L23.4027,12.8892985 C24.3937,12.8892985 25.1902,13.7306716 25.1377,14.7476269 C25.0887,15.7016567 24.2452,16.4161642 23.3047,16.4161642 L22.0977,16.4161642 C23.0882,16.4161642 23.8852,17.2575373 23.8327,18.2744925 C23.7832,19.2280149 22.9402,19.9435373 21.9992,19.9435373 L19.9102,19.9435373 C20.9007,19.9435373 21.6977,20.784403 21.6452,21.8013582 C21.5962,22.7553881 20.7527,23.470403 19.8117,23.470403 L17.8312,23.470403 L17.8312,23.4698955 L13.1887,23.4698955 C10.4777,23.4698955 7.8082,22.7980149 5.4112,21.5126119 L3.4702,20.4712985 L0.2902,20.4712985"/>
        <path stroke="#333133" stroke-linecap="round" stroke-linejoin="round" d="M0.2902,11.3060149 L3.4702,11.3060149 L8.3077,7.64873134 L12.3037,0.833507463 C12.7717,0.0352686567 13.8202,-0.171268657 14.5487,0.391 C15.1037,0.819298507 15.3387,1.55258209 15.1377,2.23055224 L13.6127,8.07855224 C13.3427,8.67938806 13.7757,9.36243284 14.4262,9.36243284 L16.2972,9.36243284 L21.9992,9.36243284 C22.9402,9.36243284 23.7832,10.0774478 23.8327,11.0309701 C23.8852,12.0479254 23.0882,12.8892985 22.0977,12.8892985 L23.4027,12.8892985 C24.3937,12.8892985 25.1902,13.7306716 25.1377,14.7476269 C25.0887,15.7016567 24.2452,16.4161642 23.3047,16.4161642 L22.0977,16.4161642 C23.0882,16.4161642 23.8852,17.2575373 23.8327,18.2744925 C23.7832,19.2280149 22.9402,19.9435373 21.9992,19.9435373 L19.9102,19.9435373 C20.9007,19.9435373 21.6977,20.784403 21.6452,21.8013582 C21.5962,22.7553881 20.7527,23.470403 19.8117,23.470403 L17.8312,23.470403 L17.8312,23.4698955 L13.1887,23.4698955 C10.4777,23.4698955 7.8082,22.7980149 5.4112,21.5126119 L3.4702,20.4712985 L0.2902,20.4712985"/>
      </g>
      <g transform="translate(27 25.373)">
        <line x1="3.112" x2=".223" y1=".685" y2=".685" fill="#FFE1D6"/>
        <line x1="3.112" x2=".223" y1=".685" y2=".685" stroke="#333133" stroke-linecap="round" stroke-linejoin="round"/>
      </g>
      <g transform="translate(27 21.82)">
        <line x1=".223" x2="3.112" y1=".71" y2=".71" fill="#FFE1D6"/>
        <line x1=".223" x2="3.112" y1=".71" y2=".71" stroke="#333133" stroke-linecap="round" stroke-linejoin="round"/>
      </g>
      <path fill="#FFE1D6" d="M27.9103,29.5850746 L27.2228,29.5850746 L27.9103,29.5850746 Z"/>
      <polyline stroke="#333133" stroke-linecap="round" stroke-linejoin="round" points="27.91 29.585 27.223 29.585 27.91 29.585"/>
      <mask id="site-icon1-b" fill="#fff">
        <use xlink:href="#site-icon1-a"/>
      </mask>
      <polygon fill="#FFF" points="4.54 30.67 8.707 30.67 8.707 20.236 4.54 20.236" mask="url(#site-icon1-b)"/>
      <polygon stroke="#333133" stroke-linecap="round" stroke-linejoin="round" points="4.54 30.67 8.707 30.67 8.707 20.236 4.54 20.236" mask="url(#site-icon1-b)"/>
      <polygon fill="#5F6685" points=".375 31.678 6.032 31.678 6.032 19.229 .375 19.229" mask="url(#site-icon1-b)"/>
      <polygon stroke="#333133" stroke-linecap="round" stroke-linejoin="round" points=".375 31.678 6.032 31.678 6.032 19.229 .375 19.229" mask="url(#site-icon1-b)"/>
      <path fill="#FDE090" d="M10.13225,8.04840896 L10.40325,8.88622985 C10.73725,9.92094627 11.53725,10.733394 12.55725,11.0723791 L13.38275,11.3474239 L12.55725,11.6219612 C11.53725,11.9614537 10.73725,12.773394 10.40325,13.8086179 L10.13225,14.6464388 L9.86125,13.8086179 C9.52725,12.773394 8.72725,11.9614537 7.70725,11.6219612 L6.88175,11.3474239 L7.70725,11.0723791 C8.72725,10.733394 9.52725,9.92094627 9.86125,8.88622985 L10.13225,8.04840896 Z" mask="url(#site-icon1-b)"/>
      <path stroke="#333133" stroke-linecap="round" stroke-linejoin="round" d="M10.13225,8.04840896 L10.40325,8.88622985 C10.73725,9.92094627 11.53725,10.733394 12.55725,11.0723791 L13.38275,11.3474239 L12.55725,11.6219612 C11.53725,11.9614537 10.73725,12.773394 10.40325,13.8086179 L10.13225,14.6464388 L9.86125,13.8086179 C9.52725,12.773394 8.72725,11.9614537 7.70725,11.6219612 L6.88175,11.3474239 L7.70725,11.0723791 C8.72725,10.733394 9.52725,9.92094627 9.86125,8.88622985 L10.13225,8.04840896 Z" mask="url(#site-icon1-b)"/>
      <path fill="#FDE090" d="M30.51895,6.37413731 L30.76345,7.13127164 C31.06595,8.06703284 31.78895,8.80082388 32.71095,9.10783881 L33.45695,9.35598806 L32.71095,9.60413731 C31.78895,9.91115224 31.06595,10.6449433 30.76345,11.5807045 L30.51895,12.3378388 L30.27445,11.5807045 C29.97195,10.6449433 29.24895,9.91115224 28.32695,9.60413731 L27.58095,9.35598806 L28.32695,9.10783881 C29.24895,8.80082388 29.97195,8.06703284 30.27445,7.13127164 L30.51895,6.37413731 Z" mask="url(#site-icon1-b)"/>
      <path stroke="#333133" stroke-linecap="round" stroke-linejoin="round" d="M30.51895,6.37413731 L30.76345,7.13127164 C31.06595,8.06703284 31.78895,8.80082388 32.71095,9.10783881 L33.45695,9.35598806 L32.71095,9.60413731 C31.78895,9.91115224 31.06595,10.6449433 30.76345,11.5807045 L30.51895,12.3378388 L30.27445,11.5807045 C29.97195,10.6449433 29.24895,9.91115224 28.32695,9.60413731 L27.58095,9.35598806 L28.32695,9.10783881 C29.24895,8.80082388 29.97195,8.06703284 30.27445,7.13127164 L30.51895,6.37413731 Z" mask="url(#site-icon1-b)"/>
      <path fill="#FDE090" d="M17.19985,0.87501791 L17.41135,1.52964478 C17.67235,2.33752537 18.29735,2.97185373 19.09385,3.23674925 L19.73835,3.45140597 L19.09385,3.66606269 C18.29735,3.93095821 17.67235,4.5647791 17.41135,5.37367463 L17.19985,6.02779403 L16.98835,5.37367463 C16.72735,4.5647791 16.10285,3.93095821 15.30585,3.66606269 L14.66135,3.45140597 L15.30585,3.23674925 C16.10285,2.97185373 16.72735,2.33752537 16.98835,1.52964478 L17.19985,0.87501791 Z" mask="url(#site-icon1-b)"/>
      <path stroke="#333133" stroke-linecap="round" stroke-linejoin="round" d="M17.19985,0.87501791 L17.41135,1.52964478 C17.67235,2.33752537 18.29735,2.97185373 19.09385,3.23674925 L19.73835,3.45140597 L19.09385,3.66606269 C18.29735,3.93095821 17.67235,4.5647791 17.41135,5.37367463 L17.19985,6.02779403 L16.98835,5.37367463 C16.72735,4.5647791 16.10285,3.93095821 15.30585,3.66606269 L14.66135,3.45140597 L15.30585,3.23674925 C16.10285,2.97185373 16.72735,2.33752537 16.98835,1.52964478 L17.19985,0.87501791 Z" mask="url(#site-icon1-b)"/>
    </g>
  </g>
</svg>
