<svg xmlns="http://www.w3.org/2000/svg" xmlns:xlink="http://www.w3.org/1999/xlink" width="28" height="37" viewBox="0 0 28 37">
  <defs>
    <polygon id="site_icon10-a" points="0 35.421 25.939 35.421 25.939 0 0 0"/>
  </defs>
  <g fill="none" fill-rule="evenodd" opacity=".8" transform="translate(1 1)">
    <path fill="#5F6685" d="M23.0713854,35.1048632 L5.26201951,35.1048632 C3.85294634,35.1048632 2.71211707,33.9680211 2.71211707,32.5652842 L2.71211707,2.85581053 C2.71211707,1.45307368 3.85294634,0.3156 5.26201951,0.3156 L23.0713854,0.3156 C24.4804585,0.3156 25.6212878,1.45307368 25.6212878,2.85581053 L25.6212878,32.5652842 C25.6212878,33.9680211 24.4804585,35.1048632 23.0713854,35.1048632"/>
    <path stroke="#333133" stroke-linecap="round" stroke-linejoin="round" d="M23.0713854,35.1048632 L5.26201951,35.1048632 C3.85294634,35.1048632 2.71211707,33.9680211 2.71211707,32.5652842 L2.71211707,2.85581053 C2.71211707,1.45307368 3.85294634,0.3156 5.26201951,0.3156 L23.0713854,0.3156 C24.4804585,0.3156 25.6212878,1.45307368 25.6212878,2.85581053 L25.6212878,32.5652842 C25.6212878,33.9680211 24.4804585,35.1048632 23.0713854,35.1048632 Z"/>
    <path fill="#5F6685" d="M20.6772293,35.1048632 L2.86722927,35.1048632 C1.45879024,35.1048632 0.317326829,33.9680211 0.317326829,32.5652842 L0.317326829,2.85581053 C0.317326829,1.45307368 1.45879024,0.3156 2.86722927,0.3156 L20.6772293,0.3156 C22.0856683,0.3156 23.2271317,1.45307368 23.2271317,2.85581053 L23.2271317,32.5652842 C23.2271317,33.9680211 22.0856683,35.1048632 20.6772293,35.1048632"/>
    <path stroke="#333133" stroke-linecap="round" stroke-linejoin="round" d="M20.6772293,35.1048632 L2.86722927,35.1048632 C1.45879024,35.1048632 0.317326829,33.9680211 0.317326829,32.5652842 L0.317326829,2.85581053 C0.317326829,1.45307368 1.45879024,0.3156 2.86722927,0.3156 L20.6772293,0.3156 C22.0856683,0.3156 23.2271317,1.45307368 23.2271317,2.85581053 L23.2271317,32.5652842 C23.2271317,33.9680211 22.0856683,35.1048632 20.6772293,35.1048632 Z"/>
    <mask id="site_icon10-b" fill="#fff">
      <use xlink:href="#site_icon10-a"/>
    </mask>
    <polygon fill="#FFF" points=".317 32.732 23.228 32.732 23.228 2.689 .317 2.689" mask="url(#site_icon10-b)"/>
    <polygon stroke="#333133" stroke-linecap="round" stroke-linejoin="round" points=".317 32.732 23.228 32.732 23.228 2.689 .317 2.689" mask="url(#site_icon10-b)"/>
    <path fill="#F36A5D" d="M2.60837073,11.9701895 L2.60837073,11.9701895 C1.34261463,11.9701895 0.3172,10.9482947 0.3172,9.68829474 L0.3172,3.17103158 L4.89890732,3.17103158 L4.89890732,9.68829474 C4.89890732,10.9482947 3.87349268,11.9701895 2.60837073,11.9701895" mask="url(#site_icon10-b)"/>
    <path stroke="#333133" stroke-linecap="round" stroke-linejoin="round" d="M2.60837073,11.9701895 L2.60837073,11.9701895 C1.34261463,11.9701895 0.3172,10.9482947 0.3172,9.68829474 L0.3172,3.17103158 L4.89890732,3.17103158 L4.89890732,9.68829474 C4.89890732,10.9482947 3.87349268,11.9701895 2.60837073,11.9701895 Z" mask="url(#site_icon10-b)"/>
    <path fill="#FDE090" d="M7.19045854,11.9701895 L7.19045854,11.9701895 C5.92470244,11.9701895 4.8992878,10.9482947 4.8992878,9.68829474 L4.8992878,3.17103158 L9.48099512,3.17103158 L9.48099512,9.68829474 C9.48099512,10.9482947 8.45558049,11.9701895 7.19045854,11.9701895" mask="url(#site_icon10-b)"/>
    <path stroke="#333133" stroke-linecap="round" stroke-linejoin="round" d="M7.19045854,11.9701895 L7.19045854,11.9701895 C5.92470244,11.9701895 4.8992878,10.9482947 4.8992878,9.68829474 L4.8992878,3.17103158 L9.48099512,3.17103158 L9.48099512,9.68829474 C9.48099512,10.9482947 8.45558049,11.9701895 7.19045854,11.9701895 Z" mask="url(#site_icon10-b)"/>
    <path fill="#F36A5D" d="M11.7719122,11.9701895 L11.7719122,11.9701895 C10.5067902,11.9701895 9.48137561,10.9482947 9.48137561,9.68829474 L9.48137561,3.17103158 L14.0630829,3.17103158 L14.0630829,9.68829474 C14.0630829,10.9482947 13.0376683,11.9701895 11.7719122,11.9701895" mask="url(#site_icon10-b)"/>
    <path stroke="#333133" stroke-linecap="round" stroke-linejoin="round" d="M11.7719122,11.9701895 L11.7719122,11.9701895 C10.5067902,11.9701895 9.48137561,10.9482947 9.48137561,9.68829474 L9.48137561,3.17103158 L14.0630829,3.17103158 L14.0630829,9.68829474 C14.0630829,10.9482947 13.0376683,11.9701895 11.7719122,11.9701895 Z" mask="url(#site_icon10-b)"/>
    <path fill="#FDE090" d="M16.354,11.9701895 L16.354,11.9701895 C15.088878,11.9701895 14.0634634,10.9482947 14.0634634,9.68829474 L14.0634634,3.17103158 L18.6451707,3.17103158 L18.6451707,9.68829474 C18.6451707,10.9482947 17.6197561,11.9701895 16.354,11.9701895" mask="url(#site_icon10-b)"/>
    <path stroke="#333133" stroke-linecap="round" stroke-linejoin="round" d="M16.354,11.9701895 L16.354,11.9701895 C15.088878,11.9701895 14.0634634,10.9482947 14.0634634,9.68829474 L14.0634634,3.17103158 L18.6451707,3.17103158 L18.6451707,9.68829474 C18.6451707,10.9482947 17.6197561,11.9701895 16.354,11.9701895 Z" mask="url(#site_icon10-b)"/>
    <path fill="#F36A5D" d="M20.9360878,11.9701895 L20.9360878,11.9701895 C19.6709659,11.9701895 18.6455512,10.9482947 18.6455512,9.68829474 L18.6455512,3.17103158 L23.2272585,3.17103158 L23.2272585,9.68829474 C23.2272585,10.9482947 22.2018439,11.9701895 20.9360878,11.9701895" mask="url(#site_icon10-b)"/>
    <path stroke="#333133" stroke-linecap="round" stroke-linejoin="round" d="M20.9360878,11.9701895 L20.9360878,11.9701895 C19.6709659,11.9701895 18.6455512,10.9482947 18.6455512,9.68829474 L18.6455512,3.17103158 L23.2272585,3.17103158 L23.2272585,9.68829474 C23.2272585,10.9482947 22.2018439,11.9701895 20.9360878,11.9701895 Z" mask="url(#site_icon10-b)"/>
    <polygon fill="#CECECE" points="16.516 23.567 9.158 23.567 7.864 18.359 17.809 18.359" mask="url(#site_icon10-b)"/>
    <polygon stroke="#333133" stroke-linecap="round" stroke-linejoin="round" points="16.516 23.567 9.158 23.567 7.864 18.359 17.809 18.359" mask="url(#site_icon10-b)"/>
    <polyline stroke="#333133" stroke-linecap="round" stroke-linejoin="round" points="16.394 25.63 9.67 25.63 7.33 16.211 5.34 16.211" mask="url(#site_icon10-b)"/>
    <path fill="#FBAB6C" d="M11.3272488,26.0398105 C11.3272488,26.5734947 10.8928585,27.0061263 10.357639,27.0061263 C9.82178537,27.0061263 9.38676098,26.5734947 9.38676098,26.0398105 C9.38676098,25.5061263 9.82178537,25.0734947 10.357639,25.0734947 C10.8928585,25.0734947 11.3272488,25.5061263 11.3272488,26.0398105" mask="url(#site_icon10-b)"/>
    <path stroke="#333133" stroke-linecap="round" stroke-linejoin="round" d="M11.3272488,26.0398105 C11.3272488,26.5734947 10.8928585,27.0061263 10.357639,27.0061263 C9.82178537,27.0061263 9.38676098,26.5734947 9.38676098,26.0398105 C9.38676098,25.5061263 9.82178537,25.0734947 10.357639,25.0734947 C10.8928585,25.0734947 11.3272488,25.5061263 11.3272488,26.0398105 Z" mask="url(#site_icon10-b)"/>
    <path fill="#FBAB6C" d="M16.4791171,26.0398105 C16.4791171,26.5734947 16.0440927,27.0061263 15.5088732,27.0061263 C14.9730195,27.0061263 14.5386293,26.5734947 14.5386293,26.0398105 C14.5386293,25.5061263 14.9730195,25.0734947 15.5088732,25.0734947 C16.0440927,25.0734947 16.4791171,25.5061263 16.4791171,26.0398105" mask="url(#site_icon10-b)"/>
    <path stroke="#333133" stroke-linecap="round" stroke-linejoin="round" d="M16.4791171,26.0398105 C16.4791171,26.5734947 16.0440927,27.0061263 15.5088732,27.0061263 C14.9730195,27.0061263 14.5386293,26.5734947 14.5386293,26.0398105 C14.5386293,25.5061263 14.9730195,25.0734947 15.5088732,25.0734947 C16.0440927,25.0734947 16.4791171,25.5061263 16.4791171,26.0398105 Z" mask="url(#site_icon10-b)"/>
  </g>
</svg>
