<svg xmlns="http://www.w3.org/2000/svg" xmlns:xlink="http://www.w3.org/1999/xlink" width="31" height="36" viewBox="0 0 31 36">
  <defs>
    <polygon id="site_icon11-a" points="0 35.783 30.584 35.783 30.584 0 0 0"/>
  </defs>
  <g fill="none" fill-rule="evenodd" opacity=".8">
    <path fill="#FFF" d="M26.8655,26.42055 C26.8655,26.68605 26.6495,26.90205 26.384,26.90205 L23.063,26.90205 L23.063,24.10855 L26.384,24.10855 C26.6495,24.10855 26.8655,24.32455 26.8655,24.58955 L26.8655,26.42055 Z M26.384,22.03105 L20.985,22.03105 L20.985,28.97955 L26.384,28.97955 C27.7975,28.97955 28.943,27.83405 28.943,26.42055 L28.943,24.59005 C28.943,23.17655 27.7975,22.03105 26.384,22.03105 L26.384,22.03105 Z"/>
    <path stroke="#333133" stroke-linecap="round" stroke-linejoin="round" d="M26.8655,26.42055 C26.8655,26.68605 26.6495,26.90205 26.384,26.90205 L23.063,26.90205 L23.063,24.10855 L26.384,24.10855 C26.6495,24.10855 26.8655,24.32455 26.8655,24.58955 L26.8655,26.42055 Z M26.384,22.03105 L20.985,22.03105 L20.985,28.97955 L26.384,28.97955 C27.7975,28.97955 28.943,27.83405 28.943,26.42055 L28.943,24.59005 C28.943,23.17655 27.7975,22.03105 26.384,22.03105 Z"/>
    <mask id="site_icon11-b" fill="#fff">
      <use xlink:href="#site_icon11-a"/>
    </mask>
    <polygon fill="#F9EAE1" points="16.907 26.414 20.985 26.414 20.985 24.596 16.907 24.596" mask="url(#site_icon11-b)"/>
    <polygon stroke="#352323" stroke-linecap="round" stroke-linejoin="round" points="16.907 26.414 20.985 26.414 20.985 24.596 16.907 24.596" mask="url(#site_icon11-b)"/>
    <path fill="#FFF" d="M14.29955,35.53285 C19.84105,35.53285 24.33305,29.48785 24.33305,22.03085 L4.26605,22.03085 C4.26605,29.48785 8.75805,35.53285 14.29955,35.53285" mask="url(#site_icon11-b)"/>
    <path stroke="#333133" stroke-linecap="round" stroke-linejoin="round" d="M14.29955,35.53285 C19.84105,35.53285 24.33305,29.48785 24.33305,22.03085 L4.26605,22.03085 C4.26605,29.48785 8.75805,35.53285 14.29955,35.53285 Z" mask="url(#site_icon11-b)"/>
    <path fill="#FFF" d="M24.33275,22.02915 C24.33275,22.73715 24.29375,23.43265 24.21225,24.11065 C24.14375,24.73265 24.04075,25.33815 23.90725,25.92565 C22.66725,31.48365 18.83475,35.53065 14.29875,35.53065 C9.76175,35.53065 5.92925,31.48365 4.68925,25.92565 C4.55625,25.33815 4.45325,24.73265 4.38475,24.11065 C4.30275,23.43265 4.26425,22.73715 4.26425,22.02915 L24.33275,22.02915 Z" mask="url(#site_icon11-b)"/>
    <path stroke="#333133" stroke-linecap="round" stroke-linejoin="round" d="M24.33275,22.02915 C24.33275,22.73715 24.29375,23.43265 24.21225,24.11065 C24.14375,24.73265 24.04075,25.33815 23.90725,25.92565 C22.66725,31.48365 18.83475,35.53065 14.29875,35.53065 C9.76175,35.53065 5.92925,31.48365 4.68925,25.92565 C4.55625,25.33815 4.45325,24.73265 4.38475,24.11065 C4.30275,23.43265 4.26425,22.73715 4.26425,22.02915 L24.33275,22.02915 Z" mask="url(#site_icon11-b)"/>
    <path fill="#FFF" d="M26.386,35.53285 L3.3565,35.53285 C2.776,35.53285 2.3055,35.06235 2.3055,34.48135 C2.3055,33.90085 2.776,33.43035 3.3565,33.43035 L26.386,33.43035 C26.9665,33.43035 27.4375,33.90085 27.4375,34.48135 C27.4375,35.06235 26.9665,35.53285 26.386,35.53285" mask="url(#site_icon11-b)"/>
    <path stroke="#333133" stroke-linecap="round" stroke-linejoin="round" d="M26.386,35.53285 L3.3565,35.53285 C2.776,35.53285 2.3055,35.06235 2.3055,34.48135 C2.3055,33.90085 2.776,33.43035 3.3565,33.43035 L26.386,33.43035 C26.9665,33.43035 27.4375,33.90085 27.4375,34.48135 C27.4375,35.06235 26.9665,35.53285 26.386,35.53285 Z" mask="url(#site_icon11-b)"/>
    <g mask="url(#site_icon11-b)">
      <g transform="translate(17 9.783)">
        <path fill="#FFF" d="M0.8694,0.3785 L0.8694,0.3785 C0.1074,1.668 0.1074,3.759 0.8694,5.0485 C1.6314,6.338 1.6314,8.429 0.8694,9.7185"/>
        <path stroke="#333133" stroke-linecap="round" stroke-linejoin="round" d="M0.8694,0.3785 L0.8694,0.3785 C0.1074,1.668 0.1074,3.759 0.8694,5.0485 C1.6314,6.338 1.6314,8.429 0.8694,9.7185"/>
      </g>
    </g>
    <g mask="url(#site_icon11-b)">
      <g transform="translate(13.5 9.783)">
        <path fill="#FFF" d="M0.79955,0.3785 L0.79955,0.3785 C0.03755,1.668 0.03755,3.759 0.79955,5.0485 C1.56155,6.338 1.56155,8.429 0.79955,9.7185"/>
        <path stroke="#333133" stroke-linecap="round" stroke-linejoin="round" d="M0.79955,0.3785 L0.79955,0.3785 C0.03755,1.668 0.03755,3.759 0.79955,5.0485 C1.56155,6.338 1.56155,8.429 0.79955,9.7185"/>
      </g>
    </g>
    <g mask="url(#site_icon11-b)">
      <g transform="translate(10 9.783)">
        <path fill="#FFF" d="M0.72975,0.3785 L0.72975,0.3785 C-0.03225,1.668 -0.03225,3.759 0.72975,5.0485 C1.49175,6.338 1.49175,8.429 0.72975,9.7185"/>
        <path stroke="#333133" stroke-linecap="round" stroke-linejoin="round" d="M0.72975,0.3785 L0.72975,0.3785 C-0.03225,1.668 -0.03225,3.759 0.72975,5.0485 C1.49175,6.338 1.49175,8.429 0.72975,9.7185"/>
      </g>
    </g>
    <path fill="#B0D9E8" d="M24.21215,24.11045 C24.14365,24.73295 24.04065,25.33795 23.90765,25.92595 L4.68915,25.92595 C4.55615,25.33795 4.45315,24.73295 4.38465,24.11045 L24.21215,24.11045 Z" mask="url(#site_icon11-b)"/>
    <path stroke="#333133" stroke-linecap="round" stroke-linejoin="round" d="M24.21215,24.11045 C24.14365,24.73295 24.04065,25.33795 23.90765,25.92595 L4.68915,25.92595 C4.55615,25.33795 4.45315,24.73295 4.38465,24.11045 L24.21215,24.11045 Z" mask="url(#site_icon11-b)"/>
    <path fill="#F36A5D" d="M4.4607,7.1561 L2.0562,7.1561 C1.0587,7.1561 0.2497,6.3471 0.2497,5.3496 L0.2497,0.2501 L6.2667,0.2501 L6.2667,5.3496 C6.2667,6.3471 5.4582,7.1561 4.4607,7.1561" mask="url(#site_icon11-b)"/>
    <path stroke="#333133" stroke-linecap="round" stroke-linejoin="round" d="M4.4607,7.1561 L2.0562,7.1561 C1.0587,7.1561 0.2497,6.3471 0.2497,5.3496 L0.2497,0.2501 L6.2667,0.2501 L6.2667,5.3496 C6.2667,6.3471 5.4582,7.1561 4.4607,7.1561 Z" mask="url(#site_icon11-b)"/>
    <path fill="#FDE090" d="M10.4773,7.1561 L8.0728,7.1561 C7.0753,7.1561 6.2668,6.3471 6.2668,5.3496 L6.2668,0.2501 L12.2838,0.2501 L12.2838,5.3496 C12.2838,6.3471 11.4748,7.1561 10.4773,7.1561" mask="url(#site_icon11-b)"/>
    <path stroke="#333133" stroke-linecap="round" stroke-linejoin="round" d="M10.4773,7.1561 L8.0728,7.1561 C7.0753,7.1561 6.2668,6.3471 6.2668,5.3496 L6.2668,0.2501 L12.2838,0.2501 L12.2838,5.3496 C12.2838,6.3471 11.4748,7.1561 10.4773,7.1561 Z" mask="url(#site_icon11-b)"/>
    <path fill="#F36A5D" d="M16.4944,7.1561 L14.0899,7.1561 C13.0924,7.1561 12.2839,6.3471 12.2839,5.3496 L12.2839,0.2501 L18.3004,0.2501 L18.3004,5.3496 C18.3004,6.3471 17.4919,7.1561 16.4944,7.1561" mask="url(#site_icon11-b)"/>
    <path stroke="#333133" stroke-linecap="round" stroke-linejoin="round" d="M16.4944,7.1561 L14.0899,7.1561 C13.0924,7.1561 12.2839,6.3471 12.2839,5.3496 L12.2839,0.2501 L18.3004,0.2501 L18.3004,5.3496 C18.3004,6.3471 17.4919,7.1561 16.4944,7.1561 Z" mask="url(#site_icon11-b)"/>
    <path fill="#FDE090" d="M22.511,7.1561 L20.107,7.1561 C19.109,7.1561 18.3005,6.3471 18.3005,5.3496 L18.3005,0.2501 L24.3175,0.2501 L24.3175,5.3496 C24.3175,6.3471 23.5085,7.1561 22.511,7.1561" mask="url(#site_icon11-b)"/>
    <path stroke="#333133" stroke-linecap="round" stroke-linejoin="round" d="M22.511,7.1561 L20.107,7.1561 C19.109,7.1561 18.3005,6.3471 18.3005,5.3496 L18.3005,0.2501 L24.3175,0.2501 L24.3175,5.3496 C24.3175,6.3471 23.5085,7.1561 22.511,7.1561 Z" mask="url(#site_icon11-b)"/>
    <path fill="#F36A5D" d="M28.5281,7.1561 L26.1236,7.1561 C25.1261,7.1561 24.3176,6.3471 24.3176,5.3496 L24.3176,0.2501 L30.3341,0.2501 L30.3341,5.3496 C30.3341,6.3471 29.5256,7.1561 28.5281,7.1561" mask="url(#site_icon11-b)"/>
    <path stroke="#333133" stroke-linecap="round" stroke-linejoin="round" d="M28.5281,7.1561 L26.1236,7.1561 C25.1261,7.1561 24.3176,6.3471 24.3176,5.3496 L24.3176,0.2501 L30.3341,0.2501 L30.3341,5.3496 C30.3341,6.3471 29.5256,7.1561 28.5281,7.1561 Z" mask="url(#site_icon11-b)"/>
  </g>
</svg>
