<svg xmlns="http://www.w3.org/2000/svg" width="32" height="42" viewBox="0 0 32 42">
  <g fill="none" fill-rule="evenodd" opacity=".8" transform="translate(1 1)">
    <polygon fill="#F3A5BF" points="17.985 3.28 15.065 .385 12.145 3.28 13.776 3.28 13.776 15.437 16.353 15.437 16.353 3.28"/>
    <polygon stroke="#333133" stroke-linecap="round" stroke-linejoin="round" points="17.985 3.28 15.065 .385 12.145 3.28 13.776 3.28 13.776 15.437 16.353 15.437 16.353 3.28"/>
    <polygon fill="#FDE090" points="12.469 7.568 9.549 4.673 6.63 7.568 8.261 7.568 8.261 19.725 10.838 19.725 10.838 7.568"/>
    <polygon stroke="#333133" stroke-linecap="round" stroke-linejoin="round" points="12.469 7.568 9.549 4.673 6.63 7.568 8.261 7.568 8.261 19.725 10.838 19.725 10.838 7.568"/>
    <polygon fill="#9CD495" points="17.661 7.568 20.581 4.673 23.5 7.568 21.869 7.568 21.869 19.725 19.292 19.725 19.292 7.568"/>
    <polygon stroke="#333133" stroke-linecap="round" stroke-linejoin="round" points="17.661 7.568 20.581 4.673 23.5 7.568 21.869 7.568 21.869 19.725 19.292 19.725 19.292 7.568"/>
    <g transform="translate(0 10.581)">
      <path fill="#B0D9E8" d="M29.7487627,15.05725 C29.7487627,23.225475 23.1746949,29.8515875 15.0650339,29.8515875 C6.95537288,29.8515875 0.381305085,23.225475 0.381305085,15.05725 C0.381305085,11.5594375 1.5889322,8.3429875 3.61113559,5.8091875 C6.28876271,2.4272 10.4257119,0.257275 15.0650339,0.257275 C19.7043559,0.257275 23.8413051,2.4272 26.5189322,5.8091875 C28.5411356,8.3429875 29.7487627,11.5594375 29.7487627,15.05725"/>
      <path stroke="#333133" stroke-linecap="round" stroke-linejoin="round" d="M29.7487627,15.05725 C29.7487627,23.225475 23.1746949,29.8515875 15.0650339,29.8515875 C6.95537288,29.8515875 0.381305085,23.225475 0.381305085,15.05725 C0.381305085,11.5594375 1.5889322,8.3429875 3.61113559,5.8091875 C6.28876271,2.4272 10.4257119,0.257275 15.0650339,0.257275 C19.7043559,0.257275 23.8413051,2.4272 26.5189322,5.8091875 C28.5411356,8.3429875 29.7487627,11.5594375 29.7487627,15.05725 Z"/>
      <g transform="translate(14.746)">
        <line x1=".319" x2=".319" y1=".257" y2="29.853" fill="#B0D9E8"/>
        <line x1=".319" x2=".319" y1=".257" y2="29.853" stroke="#333133" stroke-linecap="round" stroke-linejoin="round"/>
      </g>
      <g transform="translate(0 14.35)">
        <line x1=".383" x2="29.747" y1=".705" y2=".705" fill="#B0D9E8"/>
        <line x1=".383" x2="29.747" y1=".705" y2=".705" stroke="#333133" stroke-linecap="round" stroke-linejoin="round"/>
      </g>
      <path stroke="#333133" stroke-linecap="round" stroke-linejoin="round" d="M22.7631864,15.054995 C22.7631864,23.2278325 19.3167458,29.8534325 15.0648814,29.8534325 C10.8135254,29.8534325 7.36657627,23.2278325 7.36657627,15.054995 C7.36657627,6.8821575 10.8135254,0.2565575 15.0648814,0.2565575 C19.3167458,0.2565575 22.7631864,6.8821575 22.7631864,15.054995 Z"/>
      <path stroke="#333133" stroke-linecap="round" stroke-linejoin="round" d="M26.5189322,5.8091875 C23.8301186,7.58295 19.6987627,8.717625 15.0650339,8.717625 C10.4307966,8.717625 6.29944068,7.58295 3.61113559,5.8091875 C6.28876271,2.4272 10.4257119,0.257275 15.0650339,0.257275 C19.7043559,0.257275 23.8413051,2.4272 26.5189322,5.8091875 Z"/>
    </g>
  </g>
</svg>
