<svg xmlns="http://www.w3.org/2000/svg" xmlns:xlink="http://www.w3.org/1999/xlink" width="44" height="39" viewBox="0 0 44 39">
  <defs>
    <polygon id="site_icon6-a" points="0 38.909 43.748 38.909 43.748 0 0 0"/>
  </defs>
  <g fill="none" fill-rule="evenodd" opacity=".8">
    <path fill="#FDE090" d="M32.4899,22.0526 C32.4899,27.9626 27.6989,32.7536 21.7889,32.7536 C15.8784,32.7536 11.0874,27.9626 11.0874,22.0526 C11.0874,16.1426 15.8784,11.3516 21.7889,11.3516 C27.6989,11.3516 32.4899,16.1426 32.4899,22.0526"/>
    <path stroke="#333133" stroke-linecap="round" stroke-linejoin="round" d="M32.4899,22.0526 C32.4899,27.9626 27.6989,32.7536 21.7889,32.7536 C15.8784,32.7536 11.0874,27.9626 11.0874,22.0526 C11.0874,16.1426 15.8784,11.3516 21.7889,11.3516 C27.6989,11.3516 32.4899,16.1426 32.4899,22.0526 Z"/>
    <g transform="translate(11.5 5.41)">
      <path fill="#FFE1D6" d="M12.63755,0.20905 L12.63755,2.42755 C13.96305,3.86855 15.19855,5.75555 15.19855,7.71355 L15.19855,12.44555 L15.19855,18.05605 C15.19855,18.71205 14.70705,19.30055 14.05155,19.33455 C13.35255,19.37155 12.77455,18.81555 12.77455,18.12455 L12.77455,19.58155 C12.77455,20.23805 12.28305,20.82605 11.62755,20.86055 C10.92855,20.89705 10.35055,20.34155 10.35055,19.65005 L10.35055,21.47755 C10.35055,22.13405 9.85855,22.72205 9.20355,22.75655 C8.50455,22.79305 7.92605,22.23705 7.92605,21.54605 L7.92605,19.65005 C7.92605,20.34155 7.34805,20.89705 6.64905,20.86055 C5.99355,20.82605 5.50205,20.23805 5.50205,19.58205 L5.50205,12.44555 L5.50205,9.39605 C5.50205,8.84205 4.83205,8.56455 4.44005,8.95655 L2.54305,10.85355 C2.07905,11.31755 1.31555,11.38605 0.82755,10.94705 C0.30755,10.47855 0.29205,9.67655 0.78055,9.18805 L6.21605,2.43855 L6.22705,0.20905"/>
      <path stroke="#333133" stroke-linecap="round" stroke-linejoin="round" d="M12.63755,0.20905 L12.63755,2.42755 C13.96305,3.86855 15.19855,5.75555 15.19855,7.71355 L15.19855,12.44555 L15.19855,18.05605 C15.19855,18.71205 14.70705,19.30055 14.05155,19.33455 C13.35255,19.37155 12.77455,18.81555 12.77455,18.12455 L12.77455,19.58155 C12.77455,20.23805 12.28305,20.82605 11.62755,20.86055 C10.92855,20.89705 10.35055,20.34155 10.35055,19.65005 L10.35055,21.47755 C10.35055,22.13405 9.85855,22.72205 9.20355,22.75655 C8.50455,22.79305 7.92605,22.23705 7.92605,21.54605 L7.92605,19.65005 C7.92605,20.34155 7.34805,20.89705 6.64905,20.86055 C5.99355,20.82605 5.50205,20.23805 5.50205,19.58205 L5.50205,12.44555 L5.50205,9.39605 C5.50205,8.84205 4.83205,8.56455 4.44005,8.95655 L2.54305,10.85355 C2.07905,11.31755 1.31555,11.38605 0.82755,10.94705 C0.30755,10.47855 0.29205,9.67655 0.78055,9.18805 L6.21605,2.43855 L6.22705,0.20905"/>
    </g>
    <g transform="translate(19 18.41)">
      <line x1=".436" x2=".436" y1="6.65" y2=".416" fill="#FFE1D6"/>
      <line x1=".436" x2=".436" y1="6.65" y2=".416" stroke="#333133" stroke-linecap="round" stroke-linejoin="round"/>
    </g>
    <g transform="translate(21.5 18.41)">
      <line x1=".36" x2=".36" y1="6.65" y2=".416" fill="#FFE1D6"/>
      <line x1=".36" x2=".36" y1="6.65" y2=".416" stroke="#333133" stroke-linecap="round" stroke-linejoin="round"/>
    </g>
    <g transform="translate(24 18.41)">
      <line x1=".284" x2=".284" y1="5.125" y2=".416" fill="#FFE1D6"/>
      <line x1=".284" x2=".284" y1="5.125" y2=".416" stroke="#333133" stroke-linecap="round" stroke-linejoin="round"/>
    </g>
    <mask id="site_icon6-b" fill="#fff">
      <use xlink:href="#site_icon6-a"/>
    </mask>
    <polygon fill="#FFF" points="16.835 6.329 25.096 6.329 25.096 2.946 16.835 2.946" mask="url(#site_icon6-b)"/>
    <polygon stroke="#333133" stroke-linecap="round" stroke-linejoin="round" points="16.835 6.329 25.096 6.329 25.096 2.946 16.835 2.946" mask="url(#site_icon6-b)"/>
    <polygon fill="#5F6685" points="16.037 4.157 25.895 4.157 25.895 .25 16.037 .25" mask="url(#site_icon6-b)"/>
    <polygon stroke="#333133" stroke-linecap="round" stroke-linejoin="round" points="16.037 4.157 25.895 4.157 25.895 .25 16.037 .25" mask="url(#site_icon6-b)"/>
    <g mask="url(#site_icon6-b)">
      <g transform="translate(5.5 17.41)">
        <path fill="#FFE1D6" d="M0.2777,11.55085 L2.1987,10.44185 C2.7842,8.57285 3.8002,6.55985 5.4962,5.58085 L9.5942,3.21485 L14.4532,0.40935 C15.0212,0.08135 15.7767,0.21285 16.1337,0.76335 C16.5152,1.35035 16.3227,2.12885 15.7247,2.47435 L16.9862,1.74585 C17.5547,1.41785 18.3097,1.54935 18.6672,2.09985 C19.0487,2.68635 18.8562,3.46535 18.2577,3.81085 L19.8402,2.89735 C20.4087,2.56935 21.1637,2.70085 21.5212,3.25085 C21.9027,3.83835 21.7102,4.61685 21.1117,4.96235 L19.4697,5.91035 C20.0682,5.56485 20.8392,5.78785 21.1567,6.41135 C21.4547,6.99585 21.1912,7.71585 20.6227,8.04385 L14.4427,11.61185 L11.8017,13.13685 C11.3217,13.41385 11.4162,14.13285 11.9517,14.27635 L14.5432,14.97035 C15.1772,15.14035 15.6187,15.76735 15.4822,16.40935 C15.3362,17.09385 14.6497,17.50885 13.9822,17.32985 L5.4192,15.99685 L3.4832,17.10285"/>
        <path stroke="#333133" stroke-linecap="round" stroke-linejoin="round" d="M0.2777,11.55085 L2.1987,10.44185 C2.7842,8.57285 3.8002,6.55985 5.4962,5.58085 L9.5942,3.21485 L14.4532,0.40935 C15.0212,0.08135 15.7767,0.21285 16.1337,0.76335 C16.5152,1.35035 16.3227,2.12885 15.7247,2.47435 L16.9862,1.74585 C17.5547,1.41785 18.3097,1.54935 18.6672,2.09985 C19.0487,2.68635 18.8562,3.46535 18.2577,3.81085 L19.8402,2.89735 C20.4087,2.56935 21.1637,2.70085 21.5212,3.25085 C21.9027,3.83835 21.7102,4.61685 21.1117,4.96235 L19.4697,5.91035 C20.0682,5.56485 20.8392,5.78785 21.1567,6.41135 C21.4547,6.99585 21.1912,7.71585 20.6227,8.04385 L14.4427,11.61185 L11.8017,13.13685 C11.3217,13.41385 11.4162,14.13285 11.9517,14.27635 L14.5432,14.97035 C15.1772,15.14035 15.6187,15.76735 15.4822,16.40935 C15.3362,17.09385 14.6497,17.50885 13.9822,17.32985 L5.4192,15.99685 L3.4832,17.10285"/>
      </g>
    </g>
    <g mask="url(#site_icon6-b)">
      <g transform="translate(19.5 22.91)">
        <line x1="5.465" x2=".067" y1=".402" y2="3.519" fill="#FFE1D6"/>
        <line x1="5.465" x2=".067" y1=".402" y2="3.519" stroke="#333133" stroke-linecap="round" stroke-linejoin="round"/>
      </g>
    </g>
    <g mask="url(#site_icon6-b)">
      <g transform="translate(18 20.91)">
        <line x1="5.753" x2=".354" y1=".303" y2="3.42" fill="#FFE1D6"/>
        <line x1="5.753" x2=".354" y1=".303" y2="3.42" stroke="#333133" stroke-linecap="round" stroke-linejoin="round"/>
      </g>
    </g>
    <g mask="url(#site_icon6-b)">
      <g transform="translate(17 19.41)">
        <line x1="4.22" x2=".142" y1=".466" y2="2.82" fill="#FFE1D6"/>
        <line x1="4.22" x2=".142" y1=".466" y2="2.82" stroke="#333133" stroke-linecap="round" stroke-linejoin="round"/>
      </g>
    </g>
    <polygon fill="#FFF" points="5.913 27.774 2.984 29.465 7.115 36.62 10.044 34.929" mask="url(#site_icon6-b)"/>
    <polygon stroke="#333133" stroke-linecap="round" stroke-linejoin="round" points="5.913 27.774 2.984 29.465 7.115 36.62 10.044 34.929" mask="url(#site_icon6-b)"/>
    <polygon fill="#5F6685" points="3.634 28.169 .25 30.122 5.179 38.659 8.562 36.706" mask="url(#site_icon6-b)"/>
    <polygon stroke="#333133" stroke-linecap="round" stroke-linejoin="round" points="3.634 28.169 .25 30.122 5.179 38.659 8.562 36.706" mask="url(#site_icon6-b)"/>
    <g mask="url(#site_icon6-b)">
      <g transform="translate(16.5 16.41)">
        <path fill="#FFE1D6" d="M18.2992,16.06085 L16.3782,14.95185 C14.4672,15.37885 12.2157,15.50585 10.5197,14.52685 L6.4217,12.16085 L1.5627,9.35535 C0.9947,9.02735 0.7307,8.30785 1.0287,7.72285 C1.3467,7.09935 2.1172,6.87635 2.7157,7.22185 L1.4537,6.49335 C0.8852,6.16485 0.6217,5.44535 0.9192,4.86085 C1.2372,4.23685 2.0077,4.01435 2.6062,4.35985 L1.0237,3.44635 C0.4552,3.11785 0.1917,2.39785 0.4897,1.81335 C0.8077,1.18985 1.5782,0.96685 2.1762,1.31235 L3.8182,2.26035 C3.2197,1.91485 3.0277,1.13585 3.4087,0.54885 C3.7662,-0.00165 4.5212,-0.13315 5.0897,0.19535 L11.2697,3.76335 L13.9107,5.28835 C14.3907,5.56485 14.9657,5.12335 14.8222,4.58835 L14.1282,1.99685 C13.9582,1.36285 14.2807,0.66735 14.9047,0.46435 C15.5702,0.24835 16.2727,0.63535 16.4517,1.30285 L19.5787,9.38485 L21.5047,10.50885"/>
        <path stroke="#333133" stroke-linecap="round" stroke-linejoin="round" d="M18.2992,16.06085 L16.3782,14.95185 C14.4672,15.37885 12.2157,15.50585 10.5197,14.52685 L6.4217,12.16085 L1.5627,9.35535 C0.9947,9.02735 0.7307,8.30785 1.0287,7.72285 C1.3467,7.09935 2.1172,6.87635 2.7157,7.22185 L1.4537,6.49335 C0.8852,6.16485 0.6217,5.44535 0.9192,4.86085 C1.2372,4.23685 2.0077,4.01435 2.6062,4.35985 L1.0237,3.44635 C0.4552,3.11785 0.1917,2.39785 0.4897,1.81335 C0.8077,1.18985 1.5782,0.96685 2.1762,1.31235 L3.8182,2.26035 C3.2197,1.91485 3.0277,1.13585 3.4087,0.54885 C3.7662,-0.00165 4.5212,-0.13315 5.0897,0.19535 L11.2697,3.76335 L13.9107,5.28835 C14.3907,5.56485 14.9657,5.12335 14.8222,4.58835 L14.1282,1.99685 C13.9582,1.36285 14.2807,0.66735 14.9047,0.46435 C15.5702,0.24835 16.2727,0.63535 16.4517,1.30285 L19.5787,9.38485 L21.5047,10.50885"/>
      </g>
    </g>
    <g mask="url(#site_icon6-b)">
      <g transform="translate(20 18.41)">
        <line x1=".314" x2="5.713" y1=".268" y2="3.385" fill="#FFE1D6"/>
        <line x1=".314" x2="5.713" y1=".268" y2="3.385" stroke="#333133" stroke-linecap="round" stroke-linejoin="round"/>
      </g>
    </g>
    <g mask="url(#site_icon6-b)">
      <g transform="translate(19 20.41)">
        <line x1=".101" x2="5.5" y1=".368" y2="3.485" fill="#FFE1D6"/>
        <line x1=".101" x2="5.5" y1=".368" y2="3.485" stroke="#333133" stroke-linecap="round" stroke-linejoin="round"/>
      </g>
    </g>
    <g mask="url(#site_icon6-b)">
      <g transform="translate(19 23.41)">
        <line x1=".211" x2="4.288" y1=".23" y2="2.584" fill="#FFE1D6"/>
        <line x1=".211" x2="4.288" y1=".23" y2="2.584" stroke="#333133" stroke-linecap="round" stroke-linejoin="round"/>
      </g>
    </g>
    <polygon fill="#FFF" points="33.705 32.946 36.633 34.637 40.764 27.482 37.835 25.791" mask="url(#site_icon6-b)"/>
    <polygon stroke="#333133" stroke-linecap="round" stroke-linejoin="round" points="33.705 32.946 36.633 34.637 40.764 27.482 37.835 25.791" mask="url(#site_icon6-b)"/>
    <polygon fill="#5F6685" points="35.186 34.723 38.57 36.676 43.499 28.139 40.115 26.186" mask="url(#site_icon6-b)"/>
    <polygon stroke="#333133" stroke-linecap="round" stroke-linejoin="round" points="35.186 34.723 38.57 36.676 43.499 28.139 40.115 26.186" mask="url(#site_icon6-b)"/>
  </g>
</svg>
