<svg xmlns="http://www.w3.org/2000/svg" width="46" height="34" viewBox="0 0 46 34">
  <g fill="none" fill-rule="evenodd" opacity=".8" transform="translate(1 1)">
    <path fill="#B88870" d="M32.6195,12.08785 L10.9815,12.08785 C10.095,12.08785 9.3765,11.36935 9.3765,10.48285 C9.3765,9.59685 10.095,8.87785 10.9815,8.87785 L32.6195,8.87785 C33.506,8.87785 34.2245,9.59685 34.2245,10.48285 C34.2245,11.36935 33.506,12.08785 32.6195,12.08785"/>
    <path stroke="#333133" stroke-linecap="round" stroke-linejoin="round" d="M32.6195,12.08785 L10.9815,12.08785 C10.095,12.08785 9.3765,11.36935 9.3765,10.48285 C9.3765,9.59685 10.095,8.87785 10.9815,8.87785 L32.6195,8.87785 C33.506,8.87785 34.2245,9.59685 34.2245,10.48285 C34.2245,11.36935 33.506,12.08785 32.6195,12.08785 Z"/>
    <g transform="translate(18 14.147)">
      <path fill="#FFE1D6" d="M20.11535,8.3493 L17.50185,9.3793 C16.41935,11.6098 14.53835,13.3523 12.23135,14.2618 L4.85185,17.1508 L4.85185,17.1513 L3.72635,14.2953 L1.47585,8.5833 L0.35035,5.7273 L5.78035,3.6063 C6.42085,3.3538 6.43685,2.4533 5.80485,2.1783 L4.06285,1.4213 L6.96185,0.2518 L14.51485,1.7988 L14.50985,1.8228 L14.52485,1.8248 L17.13835,0.7953"/>
      <path stroke="#333133" stroke-linecap="round" stroke-linejoin="round" d="M20.11535,8.3493 L17.50185,9.3793 C16.41935,11.6098 14.53835,13.3523 12.23135,14.2618 L4.85185,17.1508 L4.85185,17.1513 L3.72635,14.2953 L1.47585,8.5833 L0.35035,5.7273 L5.78035,3.6063 C6.42085,3.3538 6.43685,2.4533 5.80485,2.1783 L4.06285,1.4213 L6.96185,0.2518 L14.51485,1.7988 L14.50985,1.8228 L14.52485,1.8248 L17.13835,0.7953"/>
    </g>
    <g transform="translate(20.5 17.647)">
      <line x1="7.381" x2=".265" y1="3.363" y2=".343" fill="#FFE1D6"/>
      <line x1="7.381" x2=".265" y1="3.363" y2=".343" stroke="#333133" stroke-linecap="round" stroke-linejoin="round"/>
    </g>
    <g transform="translate(26 23.147)">
      <line x1="2.53" x2=".214" y1="1.447" y2=".461" fill="#FFE1D6"/>
      <line x1="2.53" x2=".214" y1="1.447" y2=".461" stroke="#333133" stroke-linecap="round" stroke-linejoin="round"/>
    </g>
    <g transform="translate(25 26.147)">
      <line x1="2.338" x2=".021" y1="1.248" y2=".261" fill="#FFE1D6"/>
      <line x1="2.338" x2=".021" y1="1.248" y2=".261" stroke="#333133" stroke-linecap="round" stroke-linejoin="round"/>
    </g>
    <g transform="translate(6.5 14.147)">
      <path fill="#FFE1D6" d="M0.11265,8.23555 L2.67515,9.32655 L3.88715,10.81955 C5.38365,12.66255 7.30815,14.11205 9.49265,15.04255 L15.01565,17.38405 L15.01565,17.38405 L16.61165,18.06355 C17.36965,18.38655 18.29065,18.10805 18.65315,17.36805 C19.03915,16.57855 18.68115,15.63705 17.88315,15.29755 L19.56615,16.01405 C20.32465,16.33705 21.24615,16.05855 21.60815,15.31855 C21.99415,14.52905 21.63615,13.58755 20.83815,13.24755 L21.81065,13.66205 C22.56865,13.98455 23.49015,13.70605 23.85215,12.96605 C24.23815,12.17655 23.88065,11.23555 23.08215,10.89555 L22.03015,10.44755 C22.82865,10.78755 23.75515,10.39255 24.05665,9.56755 C24.33965,8.79355 23.90165,7.93605 23.14365,7.61355 L18.54865,5.65705 C18.56565,5.66405 21.41515,6.87205 21.43265,6.87905 L21.65815,6.97505 L21.25315,5.97005 L20.71065,4.62255 C20.28965,3.57705 19.47065,2.74155 18.43365,2.30005 L15.09965,0.89055 C13.76565,0.32255 12.26415,0.29205 10.90815,0.80605 L5.77365,2.04955 L3.21115,0.95855"/>
      <path stroke="#333133" stroke-linecap="round" stroke-linejoin="round" d="M0.11265,8.23555 L2.67515,9.32655 L3.88715,10.81955 C5.38365,12.66255 7.30815,14.11205 9.49265,15.04255 L15.01565,17.38405 L15.01565,17.38405 L16.61165,18.06355 C17.36965,18.38655 18.29065,18.10805 18.65315,17.36805 C19.03915,16.57855 18.68115,15.63705 17.88315,15.29755 L19.56615,16.01405 C20.32465,16.33705 21.24615,16.05855 21.60815,15.31855 C21.99415,14.52905 21.63615,13.58755 20.83815,13.24755 L21.81065,13.66205 C22.56865,13.98455 23.49015,13.70605 23.85215,12.96605 C24.23815,12.17655 23.88065,11.23555 23.08215,10.89555 L22.03015,10.44755 C22.82865,10.78755 23.75515,10.39255 24.05665,9.56755 C24.33965,8.79355 23.90165,7.93605 23.14365,7.61355 L18.54865,5.65705 C18.56565,5.66405 21.41515,6.87205 21.43265,6.87905 L21.65815,6.97505 L21.25315,5.97005 L20.71065,4.62255 C20.28965,3.57705 19.47065,2.74155 18.43365,2.30005 L15.09965,0.89055 C13.76565,0.32255 12.26415,0.29205 10.90815,0.80605 L5.77365,2.04955 L3.21115,0.95855"/>
    </g>
    <g transform="translate(25 26.147)">
      <line x1="2.35" x2=".021" y1="1.253" y2=".261" fill="#FFE1D6"/>
      <line x1="2.35" x2=".021" y1="1.253" y2=".261" stroke="#333133" stroke-linecap="round" stroke-linejoin="round"/>
    </g>
    <g transform="translate(26 23.147)">
      <line x1=".214" x2="2.542" y1=".461" y2="1.453" fill="#FFE1D6"/>
      <line x1=".214" x2="2.542" y1=".461" y2="1.453" stroke="#333133" stroke-linecap="round" stroke-linejoin="round"/>
    </g>
    <g transform="translate(20.5 17.647)">
      <line x1="7.381" x2=".265" y1="3.363" y2=".343" fill="#FFE1D6"/>
      <line x1="7.381" x2=".265" y1="3.363" y2=".343" stroke="#333133" stroke-linecap="round" stroke-linejoin="round"/>
    </g>
    <path fill="#FFE1D6" d="M24.38315,29.4445 L23.82915,29.2085 L24.38315,29.4445 Z"/>
    <polyline stroke="#333133" stroke-linecap="round" stroke-linejoin="round" points="24.383 29.445 23.829 29.209 24.383 29.445"/>
    <path fill="#FFE1D6" d="M15.7767,25.39595 L15.7767,25.39595 C15.0622,24.93995 14.1132,25.14945 13.6572,25.86445 L12.2872,28.01045 C11.8312,28.72495 12.0412,29.67395 12.7557,30.12995 C13.4702,30.58595 14.4192,30.37645 14.8752,29.66195 L16.2452,27.51545 C16.7007,26.80095 16.4912,25.85195 15.7767,25.39595"/>
    <path stroke="#333133" stroke-linecap="round" stroke-linejoin="round" d="M15.7767,25.39595 L15.7767,25.39595 C15.0622,24.93995 14.1132,25.14945 13.6572,25.86445 L12.2872,28.01045 C11.8312,28.72495 12.0412,29.67395 12.7557,30.12995 C13.4702,30.58595 14.4192,30.37645 14.8752,29.66195 L16.2452,27.51545 C16.7007,26.80095 16.4912,25.85195 15.7767,25.39595 Z"/>
    <path fill="#FFE1D6" d="M13.1893,23.74455 L13.1893,23.74455 C12.4748,23.28855 11.5258,23.49805 11.0698,24.21305 L10.1193,25.70205 C9.6633,26.41605 9.8733,27.36505 10.5873,27.82105 C11.3023,28.27705 12.2513,28.06755 12.7073,27.35305 L13.6573,25.86405 C14.1133,25.14955 13.9038,24.20055 13.1893,23.74455"/>
    <path stroke="#333133" stroke-linecap="round" stroke-linejoin="round" d="M13.1893,23.74455 L13.1893,23.74455 C12.4748,23.28855 11.5258,23.49805 11.0698,24.21305 L10.1193,25.70205 C9.6633,26.41605 9.8733,27.36505 10.5873,27.82105 C11.3023,28.27705 12.2513,28.06755 12.7073,27.35305 L13.6573,25.86405 C14.1133,25.14955 13.9038,24.20055 13.1893,23.74455 Z"/>
    <path fill="#FFE1D6" d="M18.36435,27.0473 L18.36435,27.0473 C17.64985,26.5913 16.70085,26.8008 16.24485,27.5158 L14.87485,29.6618 C14.41885,30.3763 14.62835,31.3253 15.34335,31.7813 C16.05785,32.2373 17.00685,32.0278 17.46285,31.3133 L18.83235,29.1668 C19.28835,28.4523 19.07885,27.5033 18.36435,27.0473"/>
    <path stroke="#333133" stroke-linecap="round" stroke-linejoin="round" d="M18.36435,27.0473 L18.36435,27.0473 C17.64985,26.5913 16.70085,26.8008 16.24485,27.5158 L14.87485,29.6618 C14.41885,30.3763 14.62835,31.3253 15.34335,31.7813 C16.05785,32.2373 17.00685,32.0278 17.46285,31.3133 L18.83235,29.1668 C19.28835,28.4523 19.07885,27.5033 18.36435,27.0473 Z"/>
    <path fill="#FFE1D6" d="M21.4188,27.96745 L21.4188,27.96745 C20.7043,27.51145 19.7553,27.72095 19.2993,28.43545 L18.2773,30.03645 C17.8213,30.75095 18.0313,31.69995 18.7453,32.15595 C19.4603,32.61195 20.4088,32.40245 20.8653,31.68795 L21.8868,30.08695 C22.3428,29.37245 22.1333,28.42345 21.4188,27.96745"/>
    <path stroke="#333133" stroke-linecap="round" stroke-linejoin="round" d="M21.4188,27.96745 L21.4188,27.96745 C20.7043,27.51145 19.7553,27.72095 19.2993,28.43545 L18.2773,30.03645 C17.8213,30.75095 18.0313,31.69995 18.7453,32.15595 C19.4603,32.61195 20.4088,32.40245 20.8653,31.68795 L21.8868,30.08695 C22.3428,29.37245 22.1333,28.42345 21.4188,27.96745 Z"/>
    <g transform="translate(16 13.647)">
      <path fill="#FFE1D6" d="M13.45125,8.0317 L6.84075,5.2497 C7.07825,4.5827 6.39175,3.9612 5.75175,4.2642 L2.73775,5.6927 C1.99275,6.0457 1.06125,5.8042 0.67025,5.0792 C0.25275,4.3057 0.57275,3.3512 1.35675,2.9797 L6.02225,0.3787 L8.96175,0.7517 L13.09825,1.5992"/>
      <path stroke="#333133" stroke-linecap="round" stroke-linejoin="round" d="M13.45125,8.0317 L6.84075,5.2497 C7.07825,4.5827 6.39175,3.9612 5.75175,4.2642 L2.73775,5.6927 C1.99275,6.0457 1.06125,5.8042 0.67025,5.0792 C0.25275,4.3057 0.57275,3.3512 1.35675,2.9797 L6.02225,0.3787 L8.96175,0.7517 L13.09825,1.5992"/>
    </g>
    <polygon fill="#FFF" points="9.958 14.752 6.972 13.469 3.565 21.399 6.55 22.682"/>
    <polygon stroke="#333133" stroke-linecap="round" stroke-linejoin="round" points="9.958 14.752 6.972 13.469 3.565 21.399 6.55 22.682"/>
    <polygon fill="#5F6685" points="8.37 13.162 4.316 11.42 .25 20.883 4.304 22.625"/>
    <polygon stroke="#333133" stroke-linecap="round" stroke-linejoin="round" points="8.37 13.162 4.316 11.42 .25 20.883 4.304 22.625"/>
    <polygon fill="#FFF" points="33.943 14.752 36.929 13.469 40.336 21.399 37.351 22.682"/>
    <polygon stroke="#333133" stroke-linecap="round" stroke-linejoin="round" points="33.943 14.752 36.929 13.469 40.336 21.399 37.351 22.682"/>
    <polygon fill="#5F6685" points="35.531 13.162 39.585 11.42 43.651 20.883 39.597 22.625"/>
    <polygon stroke="#333133" stroke-linecap="round" stroke-linejoin="round" points="35.531 13.162 39.585 11.42 43.651 20.883 39.597 22.625"/>
    <path fill="#B88870" d="M32.6195,9.27925 L10.9815,9.27925 C10.095,9.27925 9.3765,8.56075 9.3765,7.67425 C9.3765,6.78775 10.095,6.06925 10.9815,6.06925 L32.6195,6.06925 C33.506,6.06925 34.2245,6.78775 34.2245,7.67425 C34.2245,8.56075 33.506,9.27925 32.6195,9.27925"/>
    <path stroke="#333133" stroke-linecap="round" stroke-linejoin="round" d="M32.6195,9.27925 L10.9815,9.27925 C10.095,9.27925 9.3765,8.56075 9.3765,7.67425 C9.3765,6.78775 10.095,6.06925 10.9815,6.06925 L32.6195,6.06925 C33.506,6.06925 34.2245,6.78775 34.2245,7.67425 C34.2245,8.56075 33.506,9.27925 32.6195,9.27925 Z"/>
    <path fill="#B88870" d="M32.6195,6.27925 L10.9815,6.27925 C10.095,6.27925 9.3765,5.56075 9.3765,4.67425 C9.3765,3.78775 10.095,3.06925 10.9815,3.06925 L32.6195,3.06925 C33.506,3.06925 34.2245,3.78775 34.2245,4.67425 C34.2245,5.56075 33.506,6.27925 32.6195,6.27925"/>
    <path stroke="#333133" stroke-linecap="round" stroke-linejoin="round" d="M32.6195,6.27925 L10.9815,6.27925 C10.095,6.27925 9.3765,5.56075 9.3765,4.67425 C9.3765,3.78775 10.095,3.06925 10.9815,3.06925 L32.6195,3.06925 C33.506,3.06925 34.2245,3.78775 34.2245,4.67425 C34.2245,5.56075 33.506,6.27925 32.6195,6.27925 Z"/>
    <path fill="#B88870" d="M32.55405,3.4599 L10.91605,3.4599 C10.02955,3.4599 9.31105,2.7414 9.31105,1.8549 C9.31105,0.9689 10.02955,0.2499 10.91605,0.2499 L32.55405,0.2499 C33.44055,0.2499 34.15905,0.9689 34.15905,1.8549 C34.15905,2.7414 33.44055,3.4599 32.55405,3.4599"/>
    <path stroke="#333133" stroke-linecap="round" stroke-linejoin="round" d="M32.55405,3.4599 L10.91605,3.4599 C10.02955,3.4599 9.31105,2.7414 9.31105,1.8549 C9.31105,0.9689 10.02955,0.2499 10.91605,0.2499 L32.55405,0.2499 C33.44055,0.2499 34.15905,0.9689 34.15905,1.8549 C34.15905,2.7414 33.44055,3.4599 32.55405,3.4599 Z"/>
  </g>
</svg>
