<svg xmlns="http://www.w3.org/2000/svg" width="39" height="31" viewBox="0 0 39 31">
  <g fill="none" fill-rule="evenodd" opacity=".8" transform="translate(1)">
    <line x1="18.411" x2="18.411" y1="2.667" y2="12.176" stroke="#333133" stroke-linecap="round" stroke-linejoin="round"/>
    <polyline stroke="#333133" stroke-linecap="round" stroke-linejoin="round" points="6.281 12.176 6.281 2.667 30.533 2.667 30.533 12.176"/>
    <g transform="translate(0 .305)">
      <path fill="#FFF" d="M9.181032,16.9092206 L9.181032,20.1479825 C9.181032,21.4209508 8.14305867,22.4503476 6.86680533,22.4503476 L5.68921867,22.4503476 C4.412472,22.4503476 3.38041867,21.4209508 3.38041867,20.1479825 L3.38041867,16.9092206 C3.38041867,15.6357603 4.412472,14.6063635 5.68921867,14.6063635 L6.86680533,14.6063635 C7.07104533,14.6063635 7.274792,14.6353952 7.46669867,14.688046 C8.45188533,14.9498238 9.181032,15.8448873 9.181032,16.9092206"/>
      <path stroke="#333133" stroke-linecap="round" stroke-linejoin="round" d="M9.181032,16.9092206 L9.181032,20.1479825 C9.181032,21.4209508 8.14305867,22.4503476 6.86680533,22.4503476 L5.68921867,22.4503476 C4.412472,22.4503476 3.38041867,21.4209508 3.38041867,20.1479825 L3.38041867,16.9092206 C3.38041867,15.6357603 4.412472,14.6063635 5.68921867,14.6063635 L6.86680533,14.6063635 C7.07104533,14.6063635 7.274792,14.6353952 7.46669867,14.688046 C8.45188533,14.9498238 9.181032,15.8448873 9.181032,16.9092206 Z"/>
      <path fill="#B88870" d="M7.466896,14.6879476 C7.274496,14.6357889 7.07074933,14.6062651 6.86650933,14.6062651 L6.07914933,14.6062651 L5.68892267,14.6062651 C4.41266933,14.6062651 3.380616,15.6356619 3.380616,16.9091222 L3.380616,18.2465508 C3.39788267,18.2524556 3.41564267,18.2524556 3.43290933,18.2524556 C4.820656,18.2524556 6.044616,17.5601222 6.77918933,16.5021857 C7.34454933,17.310154 8.19012267,17.9089952 9.18122933,18.1358365 L9.18122933,16.9091222 C9.18122933,15.845281 8.45208267,14.9497254 7.466896,14.6879476"/>
      <path stroke="#333133" stroke-linecap="round" stroke-linejoin="round" d="M7.466896,14.6879476 C7.274496,14.6357889 7.07074933,14.6062651 6.86650933,14.6062651 L6.07914933,14.6062651 L5.68892267,14.6062651 C4.41266933,14.6062651 3.380616,15.6356619 3.380616,16.9091222 L3.380616,18.2465508 C3.39788267,18.2524556 3.41564267,18.2524556 3.43290933,18.2524556 C4.820656,18.2524556 6.044616,17.5601222 6.77918933,16.5021857 C7.34454933,17.310154 8.19012267,17.9089952 9.18122933,18.1358365 L9.18122933,16.9091222 C9.18122933,15.845281 8.45208267,14.9497254 7.466896,14.6879476 Z"/>
      <g transform="translate(0 22.143)">
        <path fill="#5F6685" d="M0.246617333,7.26280794 L0.246617333,2.94445873 C0.246617333,1.48844286 1.430124,0.307490476 2.89039067,0.307490476 L9.67125733,0.307490476 C11.1310307,0.307490476 12.3150307,1.48844286 12.3150307,2.94445873 L12.3150307,7.26280794"/>
        <path stroke="#333133" stroke-linecap="round" stroke-linejoin="round" d="M0.246617333,7.26280794 L0.246617333,2.94445873 C0.246617333,1.48844286 1.430124,0.307490476 2.89039067,0.307490476 L9.67125733,0.307490476 C11.1310307,0.307490476 12.3150307,1.48844286 12.3150307,2.94445873 L12.3150307,7.26280794"/>
      </g>
      <polygon fill="#FFF" points="6.278 27.051 3.793 22.451 8.768 22.451"/>
      <polygon stroke="#333133" stroke-linecap="round" stroke-linejoin="round" points="6.278 27.051 3.793 22.451 8.768 22.451"/>
      <path fill="#FFF" d="M27.6328827,16.9092206 L27.6328827,20.1479825 C27.6328827,21.4209508 28.670856,22.4503476 29.9471093,22.4503476 L31.124696,22.4503476 C32.4014427,22.4503476 33.433496,21.4209508 33.433496,20.1479825 L33.433496,16.9092206 C33.433496,15.6357603 32.4014427,14.6063635 31.124696,14.6063635 L29.9471093,14.6063635 C29.7428693,14.6063635 29.5391227,14.6353952 29.3467227,14.688046 C28.361536,14.9498238 27.6328827,15.8448873 27.6328827,16.9092206"/>
      <path stroke="#333133" stroke-linecap="round" stroke-linejoin="round" d="M27.6328827,16.9092206 L27.6328827,20.1479825 C27.6328827,21.4209508 28.670856,22.4503476 29.9471093,22.4503476 L31.124696,22.4503476 C32.4014427,22.4503476 33.433496,21.4209508 33.433496,20.1479825 L33.433496,16.9092206 C33.433496,15.6357603 32.4014427,14.6063635 31.124696,14.6063635 L29.9471093,14.6063635 C29.7428693,14.6063635 29.5391227,14.6353952 29.3467227,14.688046 C28.361536,14.9498238 27.6328827,15.8448873 27.6328827,16.9092206 Z"/>
      <path fill="#B88870" d="M29.3465253,14.6879476 C29.5394187,14.6357889 29.7431653,14.6062651 29.9474053,14.6062651 L30.734272,14.6062651 L31.1244987,14.6062651 C32.4012453,14.6062651 33.4332987,15.6356619 33.4332987,16.9091222 L33.4332987,18.2465508 C33.4155387,18.2524556 33.398272,18.2524556 33.3810053,18.2524556 C31.9932587,18.2524556 30.7692987,17.5601222 30.0347253,16.5021857 C29.468872,17.310154 28.623792,17.9089952 27.6326853,18.1358365 L27.6326853,16.9091222 C27.6326853,15.845281 28.3613387,14.9497254 29.3465253,14.6879476"/>
      <path stroke="#333133" stroke-linecap="round" stroke-linejoin="round" d="M29.3465253,14.6879476 C29.5394187,14.6357889 29.7431653,14.6062651 29.9474053,14.6062651 L30.734272,14.6062651 L31.1244987,14.6062651 C32.4012453,14.6062651 33.4332987,15.6356619 33.4332987,16.9091222 L33.4332987,18.2465508 C33.4155387,18.2524556 33.398272,18.2524556 33.3810053,18.2524556 C31.9932587,18.2524556 30.7692987,17.5601222 30.0347253,16.5021857 C29.468872,17.310154 28.623792,17.9089952 27.6326853,18.1358365 L27.6326853,16.9091222 C27.6326853,15.845281 28.3613387,14.9497254 29.3465253,14.6879476 Z"/>
      <g transform="translate(24.173 22.143)">
        <path fill="#5F6685" d="M12.393964,7.26280794 L12.393964,2.94445873 C12.393964,1.48844286 11.2104573,0.307490476 9.75019067,0.307490476 L2.969324,0.307490476 C1.50955067,0.307490476 0.325550667,1.48844286 0.325550667,2.94445873 L0.325550667,7.26280794"/>
        <path stroke="#333133" stroke-linecap="round" stroke-linejoin="round" d="M12.393964,7.26280794 L12.393964,2.94445873 C12.393964,1.48844286 11.2104573,0.307490476 9.75019067,0.307490476 L2.969324,0.307490476 C1.50955067,0.307490476 0.325550667,1.48844286 0.325550667,2.94445873 L0.325550667,7.26280794"/>
      </g>
      <polygon fill="#FFF" points="30.536 27.051 33.02 22.451 28.046 22.451"/>
      <polygon stroke="#333133" stroke-linecap="round" stroke-linejoin="round" points="30.536 27.051 33.02 22.451 28.046 22.451"/>
      <path fill="#FFF" d="M22.3984187,12.5868365 L22.3984187,17.0400111 C22.3984187,18.7912651 20.9716987,20.2064397 19.2164187,20.2064397 L17.5972987,20.2064397 C15.8415253,20.2064397 14.4226987,18.7912651 14.4226987,17.0400111 L14.4226987,12.5868365 C14.4226987,10.8360746 15.8415253,9.4209 17.5972987,9.4209 L19.2164187,9.4209 C19.496632,9.4209 19.777832,9.46075714 20.0422587,9.53259841 C21.396952,9.89229683 22.3984187,11.1239317 22.3984187,12.5868365"/>
      <path stroke="#333133" stroke-linecap="round" stroke-linejoin="round" d="M22.3984187,12.5868365 L22.3984187,17.0400111 C22.3984187,18.7912651 20.9716987,20.2064397 19.2164187,20.2064397 L17.5972987,20.2064397 C15.8415253,20.2064397 14.4226987,18.7912651 14.4226987,17.0400111 L14.4226987,12.5868365 C14.4226987,10.8360746 15.8415253,9.4209 17.5972987,9.4209 L19.2164187,9.4209 C19.496632,9.4209 19.777832,9.46075714 20.0422587,9.53259841 C21.396952,9.89229683 22.3984187,11.1239317 22.3984187,12.5868365 Z"/>
      <path fill="#B88870" d="M20.0421107,9.53284444 C19.777684,9.46100317 19.4969773,9.42065397 19.2162707,9.42065397 L18.1343907,9.42065397 L17.5971507,9.42065397 C15.8413773,9.42065397 14.4225507,10.8358286 14.4225507,12.5870825 L14.4225507,14.4259238 C14.446724,14.4337968 14.4708973,14.4337968 14.4950707,14.4337968 C16.4027907,14.4337968 18.086044,13.482146 19.0958973,12.0271143 C19.8733907,13.1386857 21.0361773,13.9619079 22.3982707,14.2738762 L22.3982707,12.5870825 C22.3982707,11.1236857 21.396804,9.89254286 20.0421107,9.53284444"/>
      <path stroke="#333133" stroke-linecap="round" stroke-linejoin="round" d="M20.0421107,9.53284444 C19.777684,9.46100317 19.4969773,9.42065397 19.2162707,9.42065397 L18.1343907,9.42065397 L17.5971507,9.42065397 C15.8413773,9.42065397 14.4225507,10.8358286 14.4225507,12.5870825 L14.4225507,14.4259238 C14.446724,14.4337968 14.4708973,14.4337968 14.4950707,14.4337968 C16.4027907,14.4337968 18.086044,13.482146 19.0958973,12.0271143 C19.8733907,13.1386857 21.0361773,13.9619079 22.3982707,14.2738762 L22.3982707,12.5870825 C22.3982707,11.1236857 21.396804,9.89254286 20.0421107,9.53284444 Z"/>
      <g transform="translate(9.867 20.175)">
        <path fill="#5F6685" d="M0.247110667,9.5952873 L0.247110667,3.65755714 C0.247110667,1.65485873 1.87461733,0.0315412698 3.882484,0.0315412698 L13.2059907,0.0315412698 C15.213364,0.0315412698 16.841364,1.65485873 16.841364,3.65755714 L16.841364,9.5952873"/>
        <path stroke="#333133" stroke-linecap="round" stroke-linejoin="round" d="M0.247110667,9.5952873 L0.247110667,3.65755714 C0.247110667,1.65485873 1.87461733,0.0315412698 3.882484,0.0315412698 L13.2059907,0.0315412698 C15.213364,0.0315412698 16.841364,1.65485873 16.841364,3.65755714 L16.841364,9.5952873"/>
      </g>
      <polygon fill="#FFF" points="18.407 26.532 14.991 20.206 21.831 20.206"/>
      <polygon stroke="#333133" stroke-linecap="round" stroke-linejoin="round" points="18.407 26.532 14.991 20.206 21.831 20.206"/>
      <path fill="#FBAB6C" d="M7.90916933,2.36210159 C7.90916933,3.25913333 7.18002267,3.98591111 6.280676,3.98591111 C5.38132933,3.98591111 4.65218267,3.25913333 4.65218267,2.36210159 C4.65218267,1.46506984 5.38132933,0.7378 6.280676,0.7378 C7.18002267,0.7378 7.90916933,1.46506984 7.90916933,2.36210159"/>
      <path stroke="#333133" stroke-linecap="round" stroke-linejoin="round" d="M7.90916933,2.36210159 C7.90916933,3.25913333 7.18002267,3.98591111 6.280676,3.98591111 C5.38132933,3.98591111 4.65218267,3.25913333 4.65218267,2.36210159 C4.65218267,1.46506984 5.38132933,0.7378 6.280676,0.7378 C7.18002267,0.7378 7.90916933,1.46506984 7.90916933,2.36210159 Z"/>
      <path fill="#FBAB6C" d="M32.1610413,2.36210159 C32.1610413,3.25913333 31.4318947,3.98591111 30.5330413,3.98591111 C29.6336947,3.98591111 28.904548,3.25913333 28.904548,2.36210159 C28.904548,1.46506984 29.6336947,0.7378 30.5330413,0.7378 C31.4318947,0.7378 32.1610413,1.46506984 32.1610413,2.36210159"/>
      <path stroke="#333133" stroke-linecap="round" stroke-linejoin="round" d="M32.1610413,2.36210159 C32.1610413,3.25913333 31.4318947,3.98591111 30.5330413,3.98591111 C29.6336947,3.98591111 28.904548,3.25913333 28.904548,2.36210159 C28.904548,1.46506984 29.6336947,0.7378 30.5330413,0.7378 C31.4318947,0.7378 32.1610413,1.46506984 32.1610413,2.36210159 Z"/>
      <path fill="#FBAB6C" d="M20.169292,2.05721905 C20.169292,2.95425079 19.4401453,3.68102857 18.5407987,3.68102857 C17.6419453,3.68102857 16.9123053,2.95425079 16.9123053,2.05721905 C16.9123053,1.1601873 17.6419453,0.43291746 18.5407987,0.43291746 C19.4401453,0.43291746 20.169292,1.1601873 20.169292,2.05721905"/>
      <path stroke="#333133" stroke-linecap="round" stroke-linejoin="round" d="M20.169292,2.05721905 C20.169292,2.95425079 19.4401453,3.68102857 18.5407987,3.68102857 C17.6419453,3.68102857 16.9123053,2.95425079 16.9123053,2.05721905 C16.9123053,1.1601873 17.6419453,0.43291746 18.5407987,0.43291746 C19.4401453,0.43291746 20.169292,1.1601873 20.169292,2.05721905 Z"/>
    </g>
  </g>
</svg>
