<svg xmlns="http://www.w3.org/2000/svg" width="690" height="47" viewBox="0 0 690 47">
    <g fill="none" fill-rule="evenodd">
        <path fill="#DB1E3F" d="M688 1H17.452a1 1 0 0 0-.127 1.992C38.537 5.702 52.967 8.704 60.615 12c36.831 15.873 52.833 35 77.51 35H688a2 2 0 0 0 2-2V3a2 2 0 0 0-2-2z"/>
        <path fill="#FFF" d="M14.616 1.186h666.65c-25.056-3.32-44.636.332-58.74 10.955C601.371 28.077 592.113 47 547.415 47H14.616a2 2 0 0 1-2-2V3.186a2 2 0 0 1 2-2z"/>
        <path fill="#0E457A" d="M2 1h635.595c-19.19 3.207-33.571 6.873-43.147 11-36.831 15.873-52.833 35-77.51 35H2a2 2 0 0 1-2-2V3a2 2 0 0 1 2-2z"/>
    </g>
</svg>
