<svg xmlns="http://www.w3.org/2000/svg" width="501" height="69" viewBox="0 0 501 69">
    <path fill="#0E457A" fill-rule="evenodd" d="M496.964 61.833l-.535.167c-.358-.333-1.161-.333-1.161-.916l.178-.167c-.357-1.083-.178-1.416-.357-2.166 0-.169-.089-.668-.089-.668 0-.25.268-.415.268-.582 0-.333 0-1.5.266-1.835.27 0 .982-.333 1.252-.333l.178.167.355-.5h1.786c.27.167.449.333.627.666.09.336 0 .336.268.584v.333c0 .416-.179.75-.179 1.085v.165l.179.25c0 .168-.179.668-.268.668v1.666c-.178.167-.268.333-.268.5-.089.25 0 1.083-.623 1.083h-.448c-.357-.167-.357-.333-.804-.333-.27 0-.446 0-.625.166zM135.996 27.288c0 .325.322.487.322.65v.326l-.483.243-.079.082c0 .081-.403.407-.403.488.403.08.322.326.322.487 0 .408 0 .65-.322 1.058l-.16.163-.08.568-.322.326c-.483.569-.564 1.3-1.126 1.79h-.08c-.08 0-.322.405-.322.405l-.16.326c-.08.081-.562.65-.805.731l-.08.406-.08.163c.08.163.643.326.885.407h1.204c0 .326.886.569 1.126.732.403.324.562.569.965.813l.161.163h.08l.24.163s.565.324.724.405l.483.245.08.326s.321.405.402.487l.402.163.081.243c.08.081.242.57.242.57s.481.568.562.65l.16.081v.408l.243.405c.08.082.32.65.32.65s.08.814.08 1.14c0 .244-.08.487.081.65v1.544s-.051.104-.113.146l-.048.017c-.08 0-.804.489-.884.489-.401.081-.161.65-.562.65-.162 0-.403-.082-.645-.082h-.079c.08.082.08.245.08.325 0 .488-.803.244-.966.651l-.078.325h-.081c-.723 0-1.448-.813-2.01-1.056h-.08c-.323-.163-.323-.408-.563-.57-.08-.162-.562-.732-.804-.814l-.08-.242-.161-.245c-.322-.488-.482-1.057-.804-1.381l-.161-.326c-.074-.152-.36-.942-.79-.914l-.012.002.052-.025a.35.35 0 0 0 .107-.12c.08-.245-.642-1.22-.804-1.627-.16-.813-.483-1.626-.562-2.52 0-.082-.16-.326-.16-.326h-.081c.08 0 .08.244 0 .244s-.08-.081-.08-.163c-.162.245-.484.732-.484.976v.163l-.08.082c-.643.894-1.044 1.706-1.528 2.682-.078.407-.24.57-.481.976l-.08.081-.24.082c-.163.244 0 .57-.163.813-.08.081-.401.325-.482.57v.243l-.161.325c0 .163-.401.569-.401.65l-.322.408s-.242.487-.401.731l-.242.406-.161.407c0 .082-.08.488-.08.569-.16.244-.724.733-.804.733h-.08c0 .243-.081.569-.081.65-.16.487-.563.406-.643.813l-.161.569c0 .081-.32.57-.401.65l-.482.489c-.564 1.544-1.69 2.926-2.572 4.39-.322.488-.483 1.057-.886 1.545-.079.082-.723.732-.804.895.08.161-.24.407-.4.65l-.081.244a5.232 5.232 0 0 1-1.046 1.545c-.16.324-.965 1.056-1.206 1.219 0 .651-.883 1.057-1.124 1.383h.08c.08 0 .08.163 0 .163s-.161-.082-.161-.082v.163c-.08.08-.161.162-.242.326.161 0 .161.324 0 .324-.08 0-.08-.242-.08-.324-.16.245-.401.406-.401.487-.161.163-.08.245-.161.569 0 .081-.403.326-.403.326h-.079c-.242.081-.242.405-.483.568l-.32.163c-.162.162-1.207 1.219-1.368 1.462-.242-.161-.322.081-.562.164-.562.408-1.046.569-1.85.569h-.483c-.4-.161-.32-1.302-.562-1.952.322-.161.242-.406.403-.65h.16l.321-.161c.081-.082.484-.408.484-.49l.16-.405c.402-.326.964-.731 1.367-1.139l.08-.081h-.08c-.08 0 .16-.326.16-.163v.081l1.367-1.383c.16.082.322-.243.322-.243l.4-.488c.162-.082.563-.488.643-.569.323-.243.323-.406.403-.65 0-.163.482-.489.482-.732l.241-.244.403-.489.08-.406.402-.324 1.206-1.952c.08-.163.24-.326.401-.488-.08 0-.08-.162 0-.162l.08.08c.321-.487.724-1.056 1.046-1.626.401-.569.562-1.056.965-1.626.24-.569.643-.976 1.045-1.463.16-.163.08-.326.16-.65.08-.082.402-.489.483-.57.32-.488.401-.975.643-1.382.241-.569.803-.895.965-1.463v-.245l.08-.244c.322-.487.643-1.057.965-1.626l.079-.082.402-.244V44.2l.162-.242c.562-1.22 1.206-2.115 1.607-3.173l.08-.325.321-.243.08-.489.323-.406c.804-1.301 1.688-2.683 2.653-3.903.08-.082.4-.895.562-.976l.16-.243c.081-.163.321-.489.321-.489l.163-.243s.24-.244.401-.326l.08-.244c.081-.163.643-.65.724-.732.242-.407.242-.65.403-1.057.481-.487 1.045-.976 1.446-1.545l.32-.407.564-.568c.242-.082.242-.243.323-.325.078 0 .481-.326.642-.326l.16-.325c.162-.082.402-.325.724-.325h.321zM29.803 5l3.381.08s.944.239 1.102.478c.155.24.943.556 1.1.556l.157.397s.157.955.157 1.114v.16l-.236.636.236.318v.318c0 .159-.236 1.114-.315 1.273-.156 1.114-.55 4.216-.55 4.535 0 .237-.315 2.147-.315 2.306l-.234.636v.13c-.002.375-.012 1.358-.08 1.7v1.91c0 .157.158 1.272.158 1.59v.477s.235.398.235.636c.158.558.865 2.069 1.023 2.308 0 .16.313.476.551.476h.156c.55.08.786-.396 1.18-.875.158-.317.943-1.271 1.18-1.51 2.202-2.307 4.718-6.126 8.256-6.046h.788l.313.159.394-.16c.55.716 1.415 1.434 2.359 1.434v.237c1.1.955 1.651 1.75 2.201 3.024-.629.795-1.494 1.112-2.28 1.908l-.158.398-.392.16-.788.715c-.629.636-1.57.397-2.28.397-.786 0-1.178.319-1.73.558l-.55.317c-.55.319-1.259 1.114-1.572 1.67-.944 1.035-2.124 2.309-3.303 3.341-.158.24-2.045 1.274-2.201 1.433-.237.158-1.102.716-1.102.716-.157.24-.944 1.114-1.101 1.352l-.314.319h-.236l-.394.396-.158.399h-.155l-.866.795-.628.08c-1.102.556-1.496 1.114-2.203 2.069 1.101-.717 2.438-.955 3.775-1.433l.314-.158h.473c.156 0 .863-.558 1.1-.558l.55.08c.157 0 .945-.24.945-.24l.392-.396c.786-.16 2.124-.24 2.83-.24 2.124.08 4.012.4 5.427 1.83.55.557.55.796.55 1.75-.078.956-.235 2.068-1.415 2.467 0 .715-.471 1.83-.629 2.623l-.158.161-.157.317.157.399v.237l-1.02 2.626c-1.023.637-.71 1.592-.867 2.465 0 .24-.314.796-.314.955-.315.558-.079 1.75-.865 1.99 0 .159-.471 1.59-.471 1.907 0 .24-.16 1.354-.16 1.513l-.234.477c0 .159-.079 1.273-.079 1.433v1.748c-.079 1.511.55 2.864.473 4.375v1.194c-.238.158-.394.158-.63.158h-.158l-.235-.158-.709-.239c-.234 0-1.336-1.033-1.494-1.033l-.786-.159c-1.494-.716-1.965-3.103-2.122-4.455 0 0-.074-3.27-.079-4.854v-.317c0-.397.471-1.59.471-2.069v-.157l-.235-.32v-.715l-.078-.399.156-.157.236-.558v-.796c0-.159.392-1.114.392-1.271l.238-.479-.159-.16v-.158l.16-.397c0-.16.155-.875.155-1.035l.237-.397c.236-.954.236-1.83.47-3.103-.943-.08-1.336.558-1.885.717-.63.158-1.338.636-1.888.796-.629.08-.786.476-1.338.715-1.572.557-2.909 1.035-4.166 1.99l-.788.476-.55.317-.707.797c-.315.477-.944.636-1.415.796-.788.08-1.417.08-2.124.317l-.393.16h-.55c-.157 0-.551-.08-.787-.08-.472-.557-.944-1.352-1.179-1.83-.158-.318-1.101-1.591-1.101-1.75 0-.636.236-1.193.551-1.512l.629-.795c.156-.16.786-.955.786-.955.471-.636 1.102-.556 1.651-.715 1.965-.557 3.224-2.227 4.482-3.66l.236-.477c.158-.318 1.888-2.386 2.28-2.864.236-.237.394-.476.552-.476l3.302-3.102c.314-.399.942-1.433 1.023-2.07l-.394-.079c0-.317.707-.636.944-.636v-.239c0-.16-.71-.556-.71-.556-.234-.24-.942-1.035-1.178-1.194l-.471-.158-.236-.398s-.316-.557-.472-.557c-1.259-1.034-2.596-2.545-3.381-3.739 0 0-.158-.556-.158-.716-.315-1.83-.472-3.5-.394-5.25.394-2.227.473-4.613.708-6.999 0-.16.236-.717.236-.877v-.954s.237-.794.393-1.193c0-.239.63-1.353.63-1.51 0-.16.392-.955.392-1.195L29.803 5zm458.309 32.48c.558.08 1.193 0 1.75.24.4.08.875.4 1.272.32 0 .08.16.8.24.88.16.4.556.64.636 1.04v.24l.08.24v.08c-.32.56-.717.8-.876 1.44h-.318c0 .241-.16.561-.16.72 0 0-.079.16-.238.241l-.237.4-.081.478-.318.322c-.319.72-.319 1.12-1.034 1.598l-.08.082v.56s-.078.32-.16.4l-.158.16-.24.4-.16.08v.32s-.316.48-.396.56l-.08.08-.08-.08v-.08l.08-.16c0-.16-.158-.24-.24-.24h-.157c-.08.08-.239.48-.239.56l-.08.4-.397.32-.08.24c-.238.32-.318.56-.479.88-.157.4-.396.72-.555 1.04 0 .08-.32.8-.397.88l-.48.48v.079l-.316.4c0 .08-.239.4-.239.56l-.08.16h.08c.716 0 1.112-1.6 1.512-2.08l.318-.24v-.4c0-.16.318-.32.239-.64l.477-.48.08-.32c.159-.32.556-.72.875-.96v.16c0 .08-.319.4-.319.48-.08.16-.795 1.68-.954 1.84l-.16.32-.158.16c0 .08-.319.48-.319.56l-.159.24-.16.4-.317.4c-.08.08-.477.72-.559.72h-.634l-.081.08-.396.48c-.161.32-.32.56-.48.88 0 .08-.236.24-.236.24l-.24.08-.08.321-.16.079-.316.32v.24l-.24.32c0 .08-.239.4-.239.561 0 0-.318.32-.396.558l-.16.08c-.16.24-.16.082-.24.24 0 .162-.316.48-.316.562l-.159.318c0 .082-.48.482-.48.562l-.158.398c-.078.08-.476.4-.557.562 0 0-.237.16-.237.238l-.16.482-.16.16c0 .08-.318.32-.318.4h.081c.237 0 .396-.08.476-.32 0-.08.318-.4.318-.56 0-.08.479-.32.557-.4l.081-.24.239-.16c.318-.32.318-.882.794-.882 0 .162 0 .242-.078.322-.559.798-1.114 1.68-1.83 2.56l-.16.158v.082c0 .08-.16.4-.24.48.24.08 1.434.4 1.75.4h1.592l.32-.16c.237 0 .555-.08.716-.08h1.352l.239-.08h.875c.077 0 .636-.08.875-.16l.159-.08.318.16h.159c.557 0 1.032-.16 1.513-.16 1.192-.16 2.226-.32 3.42-.72l.397-.16h.159c.08 0 .638-.16.716-.16h.159c.16 0 1.195.72 1.195.88 0 .24-.081.32-.24.4-.078.08-.396.08-.557.16-.078 0-.398.4-.557.4-.237.16-.557.16-.636.56-.637.4-1.353.64-2.148.88 0 0-.16.08-.24.08l-.236.077h-.558c-.158 0-.398.162-.639.162h-.555c-.08 0-.477.24-.557.24l-.479.08-.237.08-.397.158h-.716c-.318 0-.557.402-.797.402h-.716l-.16.08c-.157 0-.793.08-.952.08-.398 0-.955.082-1.195.32h-1.432c-.078 0-.716-.08-.794-.08-.16 0-.398.08-.398-.158h-.638l-.237-.082h-.081c-.239 0-.318.082-.635.082-.558 0-1.115-.322-1.59-.562-.162-.082-.639-.24-.639-.24-.078 0-.477-.32-.557-.4 0 0-.397-.24-.477-.32l-.08-.16c-.396-.8-.477-1.68-.396-2.56l-.08-.08.08-.241c0-.078.317-1.038.317-1.12.159-.558.636-1.12 1.034-1.598.239-.48.398-.88.797-1.282l.317-.16.08-.24c.079-.08.32-.638.478-.72.237 0 .396-.56.557-.8l.16-.08.157-.32c0-.16.4-.4.4-.48l.158-.32.158-.16c.08-.08.4-.48.558-.56l.078-.16c.081-.16.318-.48.318-.56.48-.719.955-1.359 1.432-1.999l.08-.16c.08-.16.318-.48.318-.48.081-.08.479-.64.557-.8 0-.08.24-.4.24-.56.476-.88 1.032-1.76 1.512-2.72-.08-.16.636-.56.715-.64 0 0-.16-.16-.16-.24l.16-.48c0-.08.396-.479.396-.56l.082-.4c0-.079.318-.559.398-.64l.236-.4c.32-.48.4-1.039.718-1.6.157-.24.557-.64.557-.96l-.239-.16-.318.24c-.159 0-.477.08-.558.08-.16 0-.476.16-.556.16-.954.4-1.91.64-2.943 1.04-.557.161-1.034.48-1.513.72l-.237.161-.16.08h-.238s-.318.238-.479.4l-.318.32-.318.08-.318.4c-.158.078-.874.398-.955.478 0 0-.318.162-.398.242-.159.24 0 .4-.159.478-.398.242-.636.4-1.034.562 0 0-.16.24-.318.24-.398.318-.875.56-1.273.96l-.16.4c-.079.16-.475.08-.556.32l-.159.24c0 .08-.16.48-.16.48l-.158.16v.24c0 .08-.239.48-.318.56-.16.24-.24.56-.32.88-.158.4.08.4-.158.72l-.238.24-.08.32c0 .08-.24.24-.24.32l-.078.08c0 .239.078.319.078.479 0 .4-.16.8-.16 1.28 0 .24.16.4.16.72 0 .24-.078.48-.078.72 0 .32.078.48.078.8 0 .321-.16.4-.396.64-.16.081-.48.481-.557.56-.716-.24-.955.4-1.513.4-.078 0-.237-.159-.398-.159h-.078l-.638.72h-.078c-.716 0-1.193-1.202-1.513-1.522l-.555-.56.159-.24c0-.08-.16-.08-.239-.08.14-.138.157-.218.16-.45v-.19l-.16-.24c-.159-.32 0-.48-.24-.72v-1.12l-.08-.08v-.079l.08-.4v-.08c0-.16-.08-.4-.08-.56v-.24l.08-.24v-.64l.081-.4-.081-.08v-.08l.24-.4-.159-.24v-.08c.239-.48.318-1.44.318-1.92l.158-.16.24-1.12c.318-.32.16-.72.239-1.12l.159-.16s.157-.239.157-.319l.08-.402.159-.238c.32-.562.32-1.2.638-1.681l.318-.32.08-.239c.159-.481.555-.561 1.034-.561h.237l.32.24c.08 0 .636.321.716.4.237.16.953.961 1.112 1.12v1.121c0 .158.24.56.32.56h.16l.476-.482.318-.158v-.32c.08-.4.716-.322 1.114-.642l.159-.158.08-.242c.08 0 .477-.32.556-.32.32-.238.637-.64 1.036-.88l1.432-.72c.078 0 .317-.32.476-.32.159-.08.956-.4 1.115-.56.078 0 .396-.16.557-.16l.16-.16.238-.08c.157 0 .716-.4.794-.4h.24l.237-.08c.081 0 .318-.079.479-.079.318-.16.635-.32.953-.4.557-.24 1.273-.32 1.831-.4 0 0 .157-.08.239-.08a13.79 13.79 0 0 1 1.75-.4c.159 0 .398-.08.398-.08.077 0 .159-.24.159-.4h1.274l.158-.08zM264.59 0c.705 0 2.815.175 3.254.175 1.317 0 2.286.87 3.252 1.567l.703.435c.178 0 .617.438.617.698v.697c0 .61 0 1.48-.265 2.004l-.174.61.174.348-.174.349-.528.784c-.353.175-1.055 1.481-1.232 1.83 0 .175-1.142 3.223-1.32 3.921-.172.61-.263 2.091-.35 2.876-.176 1.569-.176 1.218-.792 2.44-.263.521-.174 1.045-.263 1.567l.263.349c0 .61-.44 1.306-.877 1.48v6.536c0 .522.79 1.393.174 1.393-.791.35-1.935.612-2.462 1.483-.265 0-1.142.347-1.407.347l-.176.524c.176 0 1.583.173 1.846.173l.442.174c1.757.61 3.165.61 3.165 2.964v.696l-.353.871.177.524s-.177.61-.44.784l-.44.697v.523l-.176.087-.791.696-.265.61c-.086.523-.264.523-.877.959-.266.263-1.144 1.134-1.233 1.308l-.264.347c-.791.871-1.934 1.22-2.197 2.44h1.406c3.43-.26 6.332-.435 9.673-.435h.352s1.493.696 2.021.784l.527.261.617.871c1.407.697 1.582.35 1.582 2.091 0 .698-.087 1.046-.438 1.656-.178.349-1.32 1.394-1.761 1.743-.792.61-1.669 1.568-2.724 2.527-.265.26-1.231.87-1.934 1.394-.97.783-2.025 1.22-2.904 1.917-.437.26-1.055.696-1.757 1.045h4.572l.703.175c3.693.174 6.508.696 10.2.87l.263.261-.263.089.263.435c-.263 0-1.669.35-1.847.61-.263 0-.526.435-.526.435-.438 0-1.847.175-2.2.175h-.437c-.705.175-2.464.347-2.464.347v.438c-.173 0-.965.174-1.142.174l-.527.261-.176-.26-.352.26h-4.22l-.44.175h-1.76l-.35.086s-2.551.349-3.694.349h-2.989l-.617-.35h-.174c-.792 0-4.397-.26-5.277-.26-.701-.435-1.319-.873-1.319-1.569 0-.522-.263-1.83-.263-2.003.44-.523.79-1.482.88-1.655l1.846-.437c.174 0 .791-.785.88-.785l1.143-.434c2.638-1.22 4.748-2.614 6.945-4.358 1.406-1.132 3.253-1.655 4.133-3.136-.615.523-2.023.174-2.901.174l-.353.35h-1.318c-.616 0-1.758.61-2.462.61-.176 0-.529 0-.703-.263l-.176.437s-1.143.173-1.847.173h-5.186c-.178-.61-1.144-.348-1.496-1.307v-.435l-.177-.175c0-.87 0-1.83.353-2.7 0-.262.44-.61.44-.61.262-.262 2.285-2.092 2.725-2.615 1.758-1.481 3.341-2.787 4.924-4.182.264-.174.967-.87 1.143-1.045.089-.175 1.144-1.481 1.318-1.656l.528-.349v-.173l-.702-.262-.792.262c-.263 0-2.374.173-2.637.173-.263 0-1.496.35-1.672.35h-.352c-.175 0-1.23.696-1.495.696l-.966.088c-.178 0-1.142.87-1.233.87-.527.175-1.405.35-2.021.35-1.407 0-2.639-.524-3.429-1.83-.176-.175-.528-.524-.528-.697 0-.262 0-.784.528-1.047 2.55-.783 5.45-1.83 8.352-2.09.178 0 1.144-.35 1.32-.35.792 0 4.748-.347 5.627-.347-1.142-1.134-1.494-2.701-2.022-4.008-.353-.698-.703-1.221-.967-1.83v-.61c0-.61-.352-2.526-.352-2.789l-.265-.347h-.262c-.967 0-1.935.783-2.462 1.132l-.617.174-.966.436h-.264l-.439.435c-.617.35-1.32.175-2.023.436l-.615.696c-.177 0-.968.263-1.143.263-1.672.608-3.078 1.306-4.748 2.004-.616.087-1.319.348-1.847.61l-.44.434c-.615.088-1.583.088-2.11.088-1.67 0-2.55-.349-3.077-1.83l-.177-.347v-.176c0-.175 0-.175.177-.434.263-.175 1.846-1.047 2.022-1.308l.527-.087.528-.174c2.11-1.742 5.1-2.352 7.299-4.007.791-.699 1.846-.873 2.55-1.395l.615-.61.702-.263c2.374-.957 4.573-3.05 6.508-5.052.527-.61.527-1.395.702-2.178 0 0 .44-.784.44-.959v-.87h-.263c-.617 0-1.934.26-1.934.26-.528.087-1.232.958-2.024.785l.178.347v.175c0 .435-.88.435-1.144.435l-.703.35c-.178 0-1.32.696-1.583.696l-.88.523c-.791.436-2.022.436-2.901.871-.09 0-1.319.871-1.495.871h-.352c-.352.088-1.494.524-1.758.524l-.704.61h-.175c-.265 0-1.144-.61-1.32-.61-.263 0-.966-.261-1.23-.261-1.232-.175-3.605-.96-3.605-2.528 0-.175 0-.436.263-.697 1.936-.522 3.78-1.306 5.627-2.004l.968-.087s.44-.26.616-.26c2.902-.96 4.923-1.832 7.737-2.18.792-.26 1.231-.523 2.023-.523 1.758 0 4.044.698 4.836 2.353.703-.959.703-1.655.792-2.789v-.174c.615-2.09 1.055-4.704 2.725-6.099 0 0 .35-.26.616-.26.176 0 1.142-.175 1.142-.175zm114.965 45.717l.063.063v.064c-.063.063-.188.128-.188.128v.192l.125.13-.252.192.252.257v.127l-.125.128v.321h-.188c-.19.13-.064.13-.064.257h.252c0 .45-.441.642-.441 1.155h.063l.126.128c0 .386-.126.449-.25.77-.189.385-.189.577-.189.899h.188l.062.127s.19-.127.253-.127c.061 0 .313-.13.376-.13h1.004c.378.13.566.257.942.257v.065c.125.13.44.45.5.45l.442.127c0 .064.315.643.315.706.061.194.313.833.313 1.027 0 .128-.188.063-.188.512v.257c.124 0 .061.322.061.322 0 .063.378.32.378.384.063.32.063.514.25.642l.126.129.062.255.253.322v.063l-.063.129.063.257v.127c0 .194-.253.706-.315.706v.707c-.313 0-.313.256-.376.513 0 0-.315.255-.378.322-.125.255-.501 0-.816.255-.188.065-.313.322-.376.514v.192s-.063.192-.126.192c-.125.065-.501.257-.566.45-.062.129-.501.835-.565.962l-.063.063-.313.13-.125.256c-.19.128-.502.514-.879.705-.126 0-.502 0-.502.066l-.315.32c-.186.065-.313.065-.689.32-.125 0-.754.194-.88.257l-.751.384h-1.006l-.251.257h-.127c-.25 0-.564-.257-.75-.257a2.71 2.71 0 0 1-.315-.063c-.127-.064-.19-.321-.315-.384l-.376-.257-.19-.192v-1.028s-.251-.257-.251-.32v-1.284l.19-.257.125-.128-.125-.192v-.192l.061-.13c.064-.192.19-.706.19-.706v-.64s.063-.45.125-.578l.125-.129c0-.128.126-.577.126-.64l.188-.321c.127-.13.313-.77.313-.77v-.385l.065-.128s.064-.514.064-.641c0-.194.313-.77.437-.9.064-.32.064-.642.064-.897.125-.194.188 0 .25-.194l.126-.32c0-.192.376-.706.44-.898v-.32l.124-.129v-.192c.065-.13.44-1.026.501-1.155l.192-.193v-.321l.123-.128c.314-.833.754-1.412 1.255-2.053.253-.385.315-.834.819-.834 0 .128 0 .32-.127.45l.189.192s.314-.193.376-.257c0-.065 0-.385.188-.385h.063l.125.063h.126l.252-.19h.125zm-221.314-6.21h1.869c.45.127 1.416.252 1.416.883v.317c-.128.125-.967.884-1.158 1.01l-.067.316-.642.63c-.195.19-.902 1.2-1.16 1.58l-.452.378-.386.503c0 .128-.646.886-.646 1.012 0 .252-.32.567-.32.567-.324.253-1.354 1.39-1.677 1.642v.126h4.64c.643 0 3.415.127 4.059.127.13 0 .516.19.516.19.386 0 .709.377 1.095.567.967.252 1.74.694 1.74 1.767v.253l-.129.378v.317c-.13.442-1.03.316-1.611.63-2.255 2.4-5.027 4.23-7.28 6.944l-.387.379-.13.316h-.193l-.193.19.193.126c.193 0 .645.19.71.19h3.157c2.512 0 4.832-.19 7.346-.317.45 0 .902-.189 1.804-.189.514 0 .644 0 .644.506 0 .189-.321.569-.516.756l-.58.57h-.773l-.128.125h-.193l-.194-.126c-.902.126-2.062.504-2.9.82l-.129.128c-1.095.378-1.74.378-2.964.378l-.452.19c-.128 0-2.19.188-2.318.188-.193 0-1.353.126-1.611.126h-.388c-.322 0-2.512-.126-2.835-.126h-.128l-.71.126-.32-.126h-2.707v-.189c-.258-.189-.646-.567-.709-.694v-.317c0-.504.256-2.019.451-2.335.258-.125.902-.695.965-.946.516-.443 2.707-2.968 3.158-3.473l.323-.19c.128-.188.772-.758.902-.945l.644-.253c.258-.189 1.096-1.831 1.16-1.706l.9-.756v-.19s-.706-.127-.964-.127c-.322 0-1.03-.062-1.419.128-1.351.189-2.771.252-4.188.63-.774.19-1.48.506-2.127.506h-.321c-.193 0-.644-.63-.837-.884-.258-.38-.258-1.264-.258-1.767 0-1.326.644-1.768 1.225-2.968l.191-.442.516-.568c.13-.252.516-.63.646-.758l.191-.378c.195-.128 1.096-1.137 1.226-1.39l.386-.694.579-.63v-.127c-1.803.19-4.188.947-5.411 2.335l-.193.506-.258.378h-.71c-1.095 0-1.676-.19-2.513-.693-.193-.19 0-.316-.193-.444 0-.189.193-.378.193-.63 1.29-1.325 2.514-2.272 4.318-2.778 1.674-.378 3.222-.505 4.834-1.073.514-.125 1.158-.253 1.61-.378.901-.317 1.675-.127 2.77-.127zM215.377 22c.445 0 1.716.19 1.716.19l.953.946c-.19.126.445.946.445 1.073v2.965l-.126.316v2.335c-.637.947 0 2.336-.637 3.281 0 .758-.317 4.165-.317 4.985v.317c0 1.703.762 3.407 1.397 4.985 0 .316 0 .569.192.883l-.192 2.334c0 .317-.317.506-.635.506-.127 0-1.716.127-1.842.127l-.509.19h-.318l-.634-.506h-.446l-.317-.126h-.637c-.317 0-.762.062-1.08.19-1.016.505-1.778 1.703-2.541 2.461-.128.125-.764.947-.89 1.073-.19.189-1.144 1.072-1.27 1.261l-.319.126c-.318.19-.19.505-.318.821-.127.317-.762.317-.762.631 0 .126.319.758.445.758h.19c.127 0 .89-.19 1.08-.19.319 0 2.162-.126 2.479-.126 0 0 .826-.127.954-.316l.316-.126h1.59l.444-.189h.19c1.209 0 2.67.315 3.75.315.128 0 .445.316.445.442v.947l-.317.316-.128.315-.19.505h-.127c-1.272.253-2.352.758-3.75.884h-.318c-.062.252-.507.63-.635.63l-.318-.127c-.636 0-.952.631-1.588.631h-.763c-1.08.127-2.034.633-3.114.758h-.316c-.19 0-.637.127-.637.127-.19 0-.826.504-.952.504h-.317c-.637.127-1.4.63-1.59 1.262l-.318-.188c-.444 0-.573.504-1.08.504-.128 0-.635 0-.763-.19l-1.906-1.892v-.569c0-.63.127-1.261.255-1.892.126-.442.19-1.075.507-1.453l.7-.945 3.876-3.85c0-.126.19-.442.319-.442h.443c.19 0 .318-.82.637-.946.635-.632 1.397-1.073 2.222-1.578l.128-.127.319-.506c.189-.125.952-.567 1.08-.756l.635-.125.19-.191c.445-.631 1.271-1.073 1.59-1.83.126-.315 0-.946.254-1.26V40.11c0-.82-.447-1.578-.447-2.334v-1.264c0-.44-.126-1.703-.126-1.703l-.19-.19-.128.19-.508.63-1.081 1.073s-.443.317-.636.444l-.444.314v.317l-.19.189c-.636.314-.953.63-1.4 1.072-.126.19-.76.631-.951.758-1.08.82-2.034 1.577-3.114 2.208l-.51.127c-1.08.316-2.031.63-3.111.82 0 0-.319.125-.447.125 0 0-.633.316-.825.316-.317 0-1.716.19-2.034.19v-.315c-.127-.19-1.08-1.136-1.207-1.263l-.635-.946-.19-.316v-.442l-.128-.314-.317-.506v-.127c.126-.63.445-2.965 1.08-2.965.19 0 .19.314.317.441-.127.948-.127 1.893 1.08 1.893.192 0 .637-.315.825-.315.128 0 .51-.316 1.209-.63.572-.253 1.144-.631 1.589-.758l.444-.19c.19-.127 1.461-1.072 1.59-1.2.19 0 .76-.63.953-.63 1.08-.757 1.587-1.577 2.477-2.524.19-.125.826-.758.954-.883 1.27-1.453 2.224-2.967 3.178-4.543.443-.759.89-1.578 1.08-2.526v-.567c0-.19.444-.505.635-.63 0 0 .317-.192.445-.192l.635-.125.317-.316c.446-.315.953-.19 1.272-.504h1.715zm88.226 6.201c1.175 0 2.225 1.407 2.905 3.006.74 1.661 1.173 3.645 1.05 4.538.06.065.185.13.185.13 0 .19-.185.638-.185.638 0 .127.185.831.185 1.151l.125.448v2.044c0 .194.123.768.123.897 0 .319.185.319.185.575h-.185c0 .64 0 1.022-.248 1.47l.248 1.086h.185c.123 0 .678-.191.678-.191l.435-.448.555-.256s.432-.318.62-.447l.122-.192.74-.383c-.062-.127-.062-.32.125-.32.063 0 .063.129.063.193 1.295-.576 2.657-1.087 4.076-1.663l.247-.127c.187 0 .618.127.743.127.555.256.555.895.865 1.343l.432.576v.575c0 .256.06.574-.06.83.06-.062.183-.127.183-.062 0 .109 0 .124-.077.126h-.106c-.063.063-.127.128-.25.128 0 0-.555.191-.678.191h-.617c-.556.13-.556.448-.99.577-.123 0-.865.447-.99.447l-.31.128-.678.128c-.555.32-1.297 1.214-1.73 1.662 0 .129-.68.574-.68.703-.308.448-.865 1.47-1.05 2.111 0 0-.246.83-.246 1.15-.187.767-.744 1.598-.867 2.366 0 .127-.122.895-.122 1.022l-.184.32c-.557 1.343-.249 2.942-.249 4.285 0 .127-.185.445-.185.574l-.123.127v.575c-.31.641-1.422.641-1.978.641-.432 0-.742-.448-1.174-.64-.125-.128-1.236-.576-1.42-.703 0 0-.25-.129-.25-.32 0-.127-.183-.254-.183-.254v-2.367c-.248-.192-.248-.319-.248-.575 0-.32.556-.447.556-.768V49.94c.124-.448.124-.768.124-1.216 0-.447 0-.895-.124-1.15v-2.686c0-.256.31-.575.31-.895v-.254c0-.32-.186-2.24-.186-2.559v-4.092c0-.192-.249-1.022-.249-1.214 0-.129-.183-1.022-.183-1.15 0-.128-.125-.769-.125-.769l-.123-.127c-.187-.448-.187-1.343-.742-1.343-.555 0-.865.192-1.11.575-.31-.254-.745-.704-.745-1.15 0-1.47.99-2.239 1.98-2.94l.185-.13c.432-.639.863-.639 1.42-.639zm114.9-.85v.318c.186 0 .806-.128.933-.128l.433.254h.126l.125-.126c.185.632 1.74 1.011 2.114 1.708 0 .125.31.696.31.822-.31.57-.56 1.203-.808 1.771l-.124.697c-.311 1.139-1.058 2.72-1.058 3.86l.125.505c0 .128-.125.76-.125.886s-.25.191-.25.507v.125l.126.128v.315l.249.57v.887s.185.443.185.568c.127.57.25 1.9.872 1.9.372 0 .87-.381 1.241-.57.19-.127 1.308-.444 1.433-.633.933-.443 1.677-.95 2.425-1.519.31-.127.744-.506.995-.506.123 0 .87.127.992.127.25 0 .5.505.623.38.126.125.808.821.932.885l.498.38v.253l.125.315v.191c0 .569 0 .95-.125 1.58l-.187.128-.435.19-.435.443h-.247c-.126 0-.498.568-.622.568-.127.064-.498 0-.81.064-.372.19-.56.507-.994.633-.498.127-1.306.317-1.802.506-.125 0-.374.317-.5.317-.121 0-.682.505-.87.505l-.435.19c-.56.128-1.304.57-1.802.822-.124 0-.622.507-.745.507h-.312l-.249.127h-.373c-.933.316-1.182 1.329-1.803 1.836l-.25.126c-.248.19-1.18 1.137-1.305 1.454h-.125l-.032.036c-.123.138-.572.642-.839.914l-.185.253c-.125.126-.872.95-.995 1.075v.128h.621c.125 0 .559.126.747.126h3.108c.437-.254.996-.126 1.306-.126.125 0 .686-.128.686-.128h.123c.124 0 1.43-.125 1.492-.125h5.845c.124 0 .371.253.371.253v.126c0 .632-1.055.696-1.243 1.011-.56.254-.56.633-1.055.633-.312 0-.685-.062-.933.127v-.127c-.622.886-1.68.76-2.614 1.013-.122 0-.62.252-.743.252-.126 0-.933.127-.996.127-.247 0-1.18.318-1.243.318-.436.125-.996.44-1.306.44h-.56l-.497.192a22.087 22.087 0 0 1-5.845.633c-.125 0-.311.19-.437.19h-.311l-.371.314s-.559.128-.81.128h-.123c-.526 0-.557-1.12-.56-1.675v-.793c0-.126.25-1.012.25-1.14 0-.061.123-.821.123-.947v-.57c.187-.759.996-1.202 1.49-1.519l.312-.379c.126 0 .622-.253.812-.253l.122-.19.188-.127 2.425-2.53.122-.317s.062-.064.062-.126c-.062-.064-.062-.317.063-.317.063 0 .063.127.063.19.372-.38 1.055-1.14 1.367-1.392.125-.19.746-.76.933-.885l.249-.254c0-.443-.436-.126-.56-.443-.062-.19-.062-.632-.185-.95-.312-.504-.75-.949-.81-1.454 0-.127-.061-.632-.061-.632v-.633l-.249-.57v-.633c0-.19-.373-1.011-.373-1.139l-.249-.505c-.125-.253-.125-.76-.25-1.013v-2.72c0-.064-.122-.886-.122-1.013v-.76l.122-.316v-1.013c.25-1.455.872-2.656 1.182-4.048.06 0 .498-.38.498-.507l.125-.632.187-.254c.31 0 1.117.128 1.492-.19zM378.615 53.8c-.44 0-.63.322-.88.642v.384c0 .065-.062.257-.062.322 0 .129-.125.898-.125 1.026 0 0-.065.256-.065.386 0 .064-.125.384-.125.384l-.188.386v.513l-.063.127v.579l.063.129v.704l.064.065c.25 0 1.067-.642 1.191-.836l.252-.19.251-.322c.376-.256.69-.769 1.004-1.282v-.065l-.063-.065c0-.257.314-.77.314-.96 0-.195 0-.322-.063-.45 0-.13-.438-.45-.501-.514-.188-.384-.376-.641-.754-.641-.125 0-.188-.192-.188-.192-.062 0-.062-.065-.062-.13zm-42.323-15.911l.37.126c.43.125 1.164.249 1.716.562.491.312.92.752.92 1.314v.312c0 .126-.796.815-.796.94-.676.875-1.104 1.75-1.533 2.627-.37.688-.677 1.377-1.104 2.065-.491 1.063-1.104 2.064-1.657 3.003-.12.187-.305.562-.489.939-.244.562-.491 1.124-.491 1.438l-.553 2.314.677.688.367.126c.307 0 2.022.188 2.33.188 1.716-.063 2.084.124 3.74-.126.428-.062 1.534-.062 1.901-.062l.122-.126s.736-.187 1.35-.187h.674c.304 0 .611.124.919.375a.843.843 0 0 1 .245.627c-.245.375-.553.75-1.042 1.063-.797.562-.735.436-1.715.687-.553.126-.982.25-1.84.438-.737.126-1.412.564-1.901.814-.982.626-1.35.75-2.392.75-.121 0-.982.19-1.103.19-1.655.124-2.514-.19-3.925-.565-.184-.063-1.348-.375-1.471-.5 0 0-.797-.5-.98-.626-.368-.125-.675-.501-.859-.876-.43-.876-.858-1.375-.858-2.377 0-.813.122-1.44.307-2.127.184-.688.427-1.44.735-2.253.307-.875.735-1.814 1.102-2.627.247-.626.493-1.127.613-1.501.187-.125.307-.626.307-.626 0-.187.431-.937.431-1.063-.43 0-.92.187-1.351.375-.428.187-.795.438-1.164.564-.122 0-.797.312-.92.436-.306.126-.733.5-1.164.878-.43.374-.92.812-1.35 1.25-.243.25-.305.25-.49.75l-.183.878c-.307.623-1.104.813-1.777.937-.125 0-.307.438-.43.438-.184 0-1.288.124-1.472.124l-.613-.061h-.489c-.125 0-.307.312-.982-.25-.551-.314-1.351-.439-1.718-.94 0 0-.184-.562-.184-.688 0-.187-.122-.312-.122-.5 0-.439.613-1.126 1.473-1.814.427-.375.918-.688 1.408-1.063.676-.501 1.411-.94 2.022-1.377.677-.438 1.29-.813 1.595-1.064.37-.187.982-.875 1.35-1 .49-.189.92-.438 1.287-.688.675-.501 1.595-.876 2.27-1.19.367-.124 2.33-1 2.697-1.124.369-.127.858-.25 1.41-.377.552-.124 1.163-.25 1.656-.312l1.653-.063 1.471-.063zm-259.06-7.764c.895 0 3.663 3.04 3.663 3.946 0 .41 0 .575-.163.904-.161.163-1.302 1.396-1.465 1.561l-.489.903c-1.057 1.316-2.279 2.384-3.174 3.616-.161.247-.732 1.399-.732 1.563l-.57.575-.163.492-.324.248c-.408.329-.734 1.233-.734 1.973-.814 0-1.71 3.863-1.71 4.438 0 .163 0 .163.164.412.163.163.977.492.977.492h1.464c.327 0 .896.165 1.222.165 4.396 0 6.756.163 9.605.163 0 0 .732.165.977.165.488.164 1.22 0 1.22.74 0 .656-.732.493-1.059.493-.406 0-1.301.412-1.709.575 0 .165-.163.657-.326.657-1.138 0-1.383.33-1.952.494-.406.083-.896.575-1.304.74l-.65.164h-.896c-.161 0-.814.822-.977.822-.243 0-.569.165-.569.165h-.245c-.243.245-.814.41-.814.41-.406 0-.569-.165-.732-.165-.569 0-1.301.083-1.79.083-.195-.066-.443-.08-.701-.082h-3.532v-.246c-.163 0-.57-.165-.732-.165-.164 0-.896-.33-1.06-.33h-.568l-.163-.162c-2.605-1.48-3.5-.987-3.907-4.276-.163-.74-.326-2.053-.326-2.795v-.492c0-.165.326-.822.326-.986v-.41c.57-1.646 1.628-3.042 2.36-4.521.162-.493 1.384-2.63 1.547-3.042l.326-.493c-.163-.164-.326-.411-.49-.411-.406 0-1.872.576-2.278.74-.326.164-.732.41-.732.74l-1.954.575c0 .492-.896.492-1.302.74-.244 0-.734.986-.977.986-.49.33-1.385.74-1.954 1.069l-.326.327c-.243 0-.732.248-.977.248 0 0-.894-.41-1.057-.575-.977-.575-2.198-.904-2.605-2.056 0-.247-.326-.984-.326-1.15 0-.164-.569-.74-.569-.903v-.165c0-1.069.57-1.479 1.302-1.973l.326-.41s.732-.33 1.058-.33c.325 0 1.708-.657 1.871-.657l.57-.329c.895-.577 2.524-1.151 3.42-1.479.65-.165 1.383-.165 1.709-.576.406 0 .569-.165 1.058-.328 0 0 .57-.165.733-.165l.161-.247h.571c.163 0 1.465-.492 1.628-.492l.814-.165.569-.247h.49c.405 0 .732-.328 1.138-.328 2.28-.576 4.721-1.233 7.245-1.069.163-.164.326-.164.569-.164zM291.122 22c.06 0 .31.127.37.192l.124.191c.063.129.494.385.618.448.125.129.248.32.248.32l.185.319c.06.129.555.45.555.512v.129c0 .127.25.383.25.445v.833h-.063l-.187.127c-.06.064-.308.383-.369.512l-.126.192c-.245.191-.555.128-.988.256 0 0-.123.191-.247.191-.184.192-.678.768-.865.96v.256s-.123.127-.184.127c-.742.512-1.112 1.215-1.67 1.854l-.12.32c-.189.255-.497.19-.62.576l-.37.383c-.187.383-.495.512-.62.703l-.062.192c-.183.256-.8.768-.925.895-.186.064-.803 1.022-.988 1.087-.063.383-.37.703-.433 1.022v.193l-.372.51c-.123.065-.432.577-.493.64.06.193.121.255.31.255.43 0 .8-.318 1.173-.445l.123-.194h.123l.186-.127c.123 0 .495-.064.495-.064l.121-.127h.187c.123 0 .556-.32.556-.32h.372l.185-.128.124.127h.246l.247-.127c.595-.056.953-.063 1.365-.064h.18c.556 0 .68 0 1.111.064.372.127.805.319 1.298.319v.129c.681.639 1.05.512 1.05 1.854v.063c0 .064-.123.32-.123.383 0 .129-.062.448-.062.448 0 .193.062.256-.123.32l-.187.127v.256c0 .13-.183.256-.183.256h.062c0 .192-.247.383-.247.51v.256c0 .065-.25.32-.25.385v.127c0 .065 0 .192.063.192-.246.193-.433 1.087-.433 1.407l-.368.64v.19l.12.13s-.12.191-.12.256c-.189.383-.189.766-.372 1.213 0 .13-.063.32-.125.385v.063l.062.064v.192c-.247 0-.183.064-.183.32 0 .128 0 .192.121.192l.125-.064c.123 0 .865-.128.865-.128.246 0 .495.255.618.32l.245.128c.187.063.31.319.557.319l.187-.063.308-.193h.62l.245-.063h.123l.125.127.308.129c.186.063.247.254.31.383.245.254.434.51.68.704.183.127.183.574.371.83 0 .063.369.446.369.512v.702l.124.129-.124.192v.127c-.185.32-.557.512-.618.768v.512c-.308.256-.368.51-.803.893.125.193-.31.385-.372.45l-.12.19c-.125 0-.373.32-.435.32-.183.064-.183.256-.372.383l-.43.193-.125.063-.37.256-.309.191-.123.192c-.126.064-.31.256-.494.32.06 0 .06.127 0 .127s-.125 0-.125-.062c-.062.062-.185.062-.185.062h-.37c-.37.065-.68.32-.99.45h-.308l-.185.062c-.062 0-.247.127-.247.127-.063 0-.372.065-.495.065l-.123.064c-.557.192-.678.127-1.113.192-.062 0-.372.191-.432.191h-.06c-.682 0-1.115-.383-1.67-.383 0-.064-.063-.129-.063-.129-.123-.127-.494-.383-.494-.383l-.246-.256c-.062-.062-.556-.447-.556-.51l-.062-.383c0-.064-.124-.385-.124-.385s-.063-.064-.186-.064c0-.319 0-.448-.185-.767l-.06-.127c0-.064.06-.256.06-.256 0-.193.557-1.086.557-1.407 0-.32.184-.576.431-.766v-.832l.063-.192v-.064c0-.065-.063-.192-.063-.255v-.066c0-.254.063-.766.063-.766l.185-.192v-.574l.186-.256c0-.065.061-.512.061-.575l.123-.256v-.129l-.123-.191.123-.128v-.384s.185-.51.185-.64v-.191l.187-.256-.062-.192v-.129l.124-.254v-.256c0-.191.06-1.022.06-1.086l.186-.385c0-.127.124-.255.124-.319v-.768l.061-.127c.125-.32.125-.512.187-.704l.06-.129v-.127a.648.648 0 0 0-.308.127l.061.13c-.06.19-.493.19-.68.32l-.308.191-.247.192c-.308.32-1.236.576-1.545.766l-.061.129-.062.192h-.246c-.682.32-.249 1.407-1.176 1.407h-.186c-.06 0-.617-.32-.617-.448-.185-.064-.68-.512-.74-.703-.063.064-.371-.256-.371-.384v-.383s-.062-.129-.126-.129h-.06c-.186-.064-.186-.256-.186-.447 0-.065.185-.383.185-.448.125-.191.187-.512.37-.895.495-.512.99-1.47 1.485-2.109l.06-.32c.125-.129.125-.32.186-.448 0-.129.31-.318.31-.447 0-.065.307-.575.307-.704.805-1.342 1.608-2.556 2.288-3.963.062-.13.245-.768.308-.831.31-.64.681-1.28.927-1.79.31-.64.555-.96.742-1.536l.06-.19.373-.385c.245-.319.185-.639.37-.958.185-.129.493-.129.555-.32l.063-.127v-.32c.064-.32.31-.64.37-1.023v-.193l.31-.192.062-.254c0-.064.246-.45.246-.512.186-.256.557-.385.557-.64.185 0 .802-.128.988-.128zm113.266 9.97c.247.128 1.058.254 1.18.381.126.19.685.822.873.948.497.57.994.57.994 1.582v.19l-.187.315c0 .128-.56.95-.56 1.077l-.56.505c-.682 1.141-.993 2.342-1.493 3.482-.247.505-.621 1.265-.621 1.897 0 .317 0 .443.374.443.247 0 .372-.569.747-.569h.122l1.184.759c.435-.062.682.379.868.379h.436c.062 0 .374.253.374.443v.19l.124.127c.123.315.621 1.265.621 1.39v.318c0 .38-.249 1.899-.498 2.214 0 0-.247.317-.433.317l-.188.19s-.31.253-.31.38c-.312.568-.87 1.012-1.43 1.392-.062.125-.559.505-.748.696l-.497.632s-.372.252-.496.252h-.25c-.56.127-1.056.38-1.616.634h-.124c-.125 0-.808.316-1.057.316.25-.19-.188-.316-.311-.316h-.124l-.374.126-.247-.126c-.25-.127-.81 0-1.059-.253-.124-.128-.559-.507-.684-.633-.187-.506-.248-.95-.434-1.328l-.249-.507v-.886l-.186-.253.186-.126c.124-1.772.496-3.48.994-5.19.498-1.516 1.057-3.036 1.494-4.427 0-.127.683-1.392.683-1.52 0-.126.186-1.075.186-1.201h-.186c-.124 0-.683.443-.745.443-.128 0-.686.253-.81.253l-.373.38-.249.125-.186.507s-.249.317-.312.507c0 .125-.247.253-.247.253h-.808l-.25.126h-.124c-.247 0-.247 0-.498-.126-.808-.253-.808-.569-1.057-1.393 0-.19-.247-.632-.247-.822v-.127c.122-.252.434-.95.434-1.138.188-.506.746-.634 1.12-1.075.497-.507.744-.95 1.616-1.075.061 0 .373.125.56.125.123 0 .872-.317 1.182-.379a9.808 9.808 0 0 1 2.05-.57c.124 0 .622-.126.622-.126h.87c.126 0 .622-.128.622-.128h.312zM291.122 49.172c-.618 0-.679.64-.74.64l-.186-.128h-.062c0 .127.062.192.062.319 0 .383-.247.639-.247 1.024l.122.256c.063.256-.122.639.31.639.555 0 .865-.383 1.298-.64.37-.32.74-.449.74-.896 0-.19 0-.446-.06-.575-.187-.383-.928-.639-1.237-.639zM497.96 12l.504.554v.158l.574.396.143-.08c.143.712.432 1.11.79 1.505.217.554.578 1.425.72 2.058.144.238.144.238.215.554v1.267l.072.158c.074.159-.072.713-.072.713-.143.475-.289 1.029-.357 1.187-.144.238-.29.08-.361.475 0 .792 0 1.82.072 2.614h-.072l-.217.396v.316s-.07.157-.143.157l.072.556c.07.156-.142.396-.215.631l.073.16v.157l-.145.24c-.144.156-.072.552-.072.712v.316l.217.317c-.073 0-.36.237-.36.237-.074.159.071.317.071.395l.36-.078-.36.238c0 .158.072.475 0 .475 0 .156.216.316.216.474l.073.396-.145.08.072.158-.216.237v.08l.072.237c.144.158.144.317-.072.396l-.216-.238h-.072c.143.238.288.396.432.95.072.317-.072.317-.144.633l.144.317-.072.317.072.158s-.144.237-.216.237l-.144.238v.475c.07.158.144.237.216.317 0-.08.216 0 .216.079l-.216.395.072.159c0 .316-.072.316.072.791v.396l.072 1.03c.073.316 0 .316-.072.474v.159l.145.158c0 .158-.217.396-.289.633h.072c0 .158-.072.396 0 .635 0 0-.288.157-.43.157-.073 0-.145.16-.145.316 0 0 0 .159.215.317.072 0 .288-.237.432 0 0 .08-.144.158-.144.158l-.216.477c.07.157-.215 1.027-.142 1.344 0 0 0 .16.07.08l-.07.237c.07.318.213.239.286.239 0 .552-.216.475-.286.791l.07.157a.73.73 0 0 0-.359.16l-.072.157h-.073l.073.318h.647c0 .475-.286.077-.36.554l.074.238s.07.316.07.475l-.07.079c-.217.396-.36.712-.36 1.187l.071.475-.072.158c-.217.159-.073.792-.073.95l-.07.396c.07.158.143.633.143.713-.286.079-.143.079-.36.237l-.287-.158h-.071l-.216.633s-.36-.317-.431-.317c-.072.08-.36.317-.36.317h-.072c-.071 0-.215-.237-.287-.158-.647-1.188-1.078-1.9-1.653-3.088-.072-.158-.144-.791-.361-1.187 0 0-.144-.08-.144-.237-.143-.317-.143-.634-.214-.95-.072-.159-.072-.24-.072-.554l-.43-3.246-.074-.16c-.07-.236-.214-1.346-.286-1.583v-1.03a17.933 17.933 0 0 1-.144-1.978c0-.159-.144-.792-.144-.792v-.633s-.073-.792-.073-.95c-.072-.158 0-.238-.072-.396h.145v.238l.144-.08.216-.079v.08l.072.316c0-.317.071-.554.285-.554h.218c0 .08-.074.158-.074.158l.217.475-.143.396c.071.158.071.158-.144.317 0-.08-.217-.317-.217-.317l-.07-.237-.144.237-.072.158.215.554.144-.079.214.159.145.316.072-.079c.143-.554.286-.87.216-1.504-.144-.317-.144-.317-.144-.633-.072-.08-.072-.238-.072-.396-.072-.396-.143-.712-.36-.87 0-.238-.144-1.109 0-1.109.217 0 .217.158.217.158.143.159-.144.317-.144.554.07.238.07.238.215.396l.072.238.143-.08c-.143-.158-.07-.95 0-.95l-.07-.316v-.158c0-.159-.073-.396-.145-.554l-.289-.08v-.158c-.07-.475.361-.475.361-.475 0-.16-.217-.712-.217-.872-.07-.236.217-.792.217-.948 0-.16-.143-.24-.143-.24.071-.235.071-.633.071-.948l-.145-.317.145-.16c.072-.156.072-.552.072-.712.36.08.286 0 .286-.158-.07 0-.286 0-.286-.159 0-.395.143-.554.072-.87 0-.157-.072-.396-.144-.555-.071-.316-.503-.158-.646-.079 0 0 .072-1.029.143-1.029.144 0 .432.159.432.317.143 0 .143-.317.286-.554h-.143c-.072 0-.217-.159-.217-.159l-.07-.158h-.074l-.143.317c-.142 0-.142-.159-.142-.159-.072-.395.285-.554.285-.554v-.316c-.07-.317 0-.317.074-.475l.07-.238c0-.237.217-.079.145-.396l-.215-.158c0-.079.287-.158.287-.316v-.159l-.143-.158v-.158h.143c0-.159.216-.555.216-.871.07.158.144.475.144.475s.143-.238.287-.238c.072-.079-.072-.712-.072-1.029l.144-.316.072-.238c-.072.08-.144 0-.144 0-.072-.317.072-.317.072-.317v-.158l-.072.08c-.072-.159.072-.397.286-.555v-.396c.074-.158.433-.158.505-.395h-.288c-.073-.159.144-.475.144-.475l.072-.159c.072-.397.358-.95.575-1.345.144-.16.36-.08.503-.396l1.078-.396h.216zm-94.754 32.879h-.311s-.187.126-.187.315c-.249.696-.435 1.772-.623 2.532-.186.822-.37.822-.37 1.644.993 0 .993-.822 1.676-1.455l.374-.19c.187-.316.622-1.709.622-1.835l-.186-.19c-.25-.316-.995-.821-.995-.821zm-35.956-20.72l.378.064c.063 0 1.067.192 1.128.192l.378.065.188-.065h.062c.253 0 .314 0 .441.065v.961l.063.322v.257c0 .32-.063.641-.19 1.09 0 0-.314.385-.314.45l.253.127c0 .384-.315.384-.376.578 0 .193.061.063.061.255v.194c0 .19-.188.899-.314 1.026-.125.385-.313.512-.252.834-.061.065-.5.77-.564.898-.125.257-.125.77-.251 1.028 0 .127-.25.447-.25.576v.322l-.188.577c0 .064-.19.513-.378.833-.251.45-.44.834-.564 1.285l-.125.384c0 .065-.128.255-.128.255h-.124v.579c0 .065-.126.449-.25.514-.316.321-.127.321-.377.706l-.19 1.025c-.125.577-.125.962-.376 1.156 0 .512-.19 1.41-.253 1.988a4.385 4.385 0 0 1-.375.834v.065s-.19.192-.314.384l-.188.065s-.127.127-.127.192l-.061.32c0 .064-.252.643-.252.706 0 .065-.19.77-.251 1.027l-.188.577c-.125 0-.315.128-.315.128 0 .706-.125.45-.313 1.157-.125.19 0 .32-.314.32h-1.192c-.315 0-.565-.771-.628-.834.063-.77-.126-.898-.126-1.54v-.45c.126 0 .251-.256.251-.256 0-.192-.062-.578-.062-.77 0-.256.25-.577.25-.962v-.193c.003-.285.014-.734.063-.834l.188-.128c.064-.257 0-.833.313-.833l.129-.771c.061-.257.061-.706.123-.834l.251-.321c0-.193.127-.77.127-.834 0-.321.063-.514.126-.835.062-.32.062-.642.123-.642 0-.127.127-.576.127-.706l.188-.576c.126-.705.441-1.218.441-1.99 0-.127.313-.962.375-1.219.063-.384.124-.512.314-.833.252-.448.376-.834.628-1.475.314-.706.689-1.09.689-2.246 0-.192-.187-.192-.313-.385-.123-.194.126-.513-.188-.513h-.127l-.313.064c-1.065.385-2.322.45-3.264.961-.376.13-.816.642-1.067 1.028l-.313.128c-.503.064-.754.576-.88.833l.253.257c.061.13.124.45.124.45 0 .064-.124.45-.124.513v.065c0 .32.124.449.124.512-.063.064-.627.386-.815.45l-.313.385c-.063 0-.63.063-.756.063l-.313.194h-.315c-.186 0-.186 0-.564-.065-.125-.129-.564-.192-.564-.192l-.503-.449-.125-.065h-.314l-.378-.384-.25-.065c-.126-.384-.063-.512-.126-.769 0-.064-.315-.321-.315-.386V29.74c.063-.064.378-.192.378-.384v-.385l.313-.257.19-.064c1.316-1.604 3.579-2.373 5.648-3.144l.44-.13c.315-.32.753-.32 1.194-.384-.065 0-.065-.127.064-.127.037 0 .051.045.044.082l-.014.029.093-.047c.126 0 .69-.194.69-.194.064 0 .943-.255 1.13-.255.44 0 .88-.065 1.446-.257.123 0 .815-.065.942-.065h1.693zm91.503.921c0 .32.637.48.957.56.076 0 .556.16.634.16l.16.08c.158 0 .478.48.556.48.16 0 .478.16.557.16l.16.16v.08c0 .082.158.32.24.48.556-.16.556.4.556.8 0 .641-.159.721-.479 1.2v.241c-.077.32-.875.64-.716 1.12-.08.08-.477.72-.556.8 0 .078-.16.478-.16.56 0 .08-.396.48-.396.56-.08.24-.399.56-.399.8v.16c0 .16.239.72.239.72s.32.48.556.56l.16.16c.08 0 .238.08.238.08.239 0 .239-.24.478-.24h.08l.476.48c.239.24.398.24.48.4l.077.24c.082.24.638.96.797 1.12v.72c.08.24.716.24.796.56v.24l.08.319v.08c0 .24-.319.64-.319.96v.8l-.081.16-.16.4c-.079.32-.236.48-.316.72 0 .16-.24.48-.24.561-.159.4-.318.479-.635.8l-.08.158s-.476.32-.558.4l-.159.08s-.318.162-.318.32l-.08.162c-.159.158-.556.478-.875.558-.237.082-.318.162-.636.242-.239.158-1.032.56-1.114.56l-.477.16c-.477.158-.873.4-1.354.64l-.714.238h-.796c-.081 0-.318.242-.398.322h-1.909c-.238-.24-.477-.08-.716-.24 0 0-.318-.16-.397-.16-.16 0-.796-.4-.875-.4l-.24-.08c-.24-.08-.558-.32-.558-.32 0-.16-.318-.72-.318-.88v-.482c-.08-.32-.475-.478-.475-.8v-.24l.159-.318v-.401c0-.08.316-.48.316-.56.081-.32 0-.479.318-.56v-.64c.082-.4.319-.4.319-.96 0-.08-.078-.16-.078-.4l.157-.16v-.48l.24-.16c.078-.24.319-1.04.319-1.36v-.4c.157-.24.316-.4.397-.56 0 0 .078-.32.078-.4.081-.16.081-.72.32-.96l.16-.08s.077-.24.077-.4c.081-.32.24-.64.24-1.04v-.24c-.318.4-.716.24-.956.48-.078 0-.396.24-.475.4-.24.16-.48.32-.716.56l-.319.32c-.24.4-.479.56-.797.8l-.316.08-.24.24-.476.08c-.318.16-.638.4-1.034.4l-.082-.08-.238.16h-.08c-.08 0-.477-.16-.557-.16-.397-.08-.636 0-1.034-.32l-.239-.24c-.08-.08-.875-.64-1.034-.64 0 0-.397.08-.397-.08V35c-.24 0-.559-.96-.559-1.12 0-.32.24-.4.32-.56l.159-.4.636-.64.796-.64h.16c.397-.16.635-.799.795-1.039l.159-.242h.238l.318-.32.319-.238.238-.162c.24-.158.637-.32.875-.558.398-.32.716-.72 1.114-.72.16 0 .318 0 .318.079l.082-.079.077-.241.082-.08h.237l.397-.4h.24l.079-.079h.397c.24-.081.48-.321.716-.561.32-.158.638-.24.957-.32.08 0 .397-.238.397-.238l.16-.162c.158-.08 1.272-.56 1.431-.56h.08l.318.08s.477-.08.557-.08c.159 0 .396-.08.396-.08l.32-.32s.238-.08.318-.08c.16 0 .477-.08.557-.08l.318-.08h1.193zm-272.418 4.87c0 .253.128.886.192 1.578.063.633.127 1.326.127 1.578v1.2l.317.631.192.504.316-.19s.572.506.764.822c.445.567.635 1.83.761 2.65 0 .126.319 1.074.319 1.199v.19c-.126.315-.445 1.263-.445 1.388-.318.947-.954 1.578-1.589 2.334-.38.506-1.715 2.02-2.35 2.336-.319.19-1.08.631-1.273.631h-.316c-.255 0-.572 0-.764-.19-.126-.126-1.08-1.073-1.27-1.199l-.127-.314c0-.191-.19-.506-.19-.506v-2.967c.317-.756.317-1.703.507-2.587l.127-.314v-.316l.192-.19v-.127c.316-.82.761-1.45.953-2.207 0-.127.127-.758.127-.758l-.127-.189.317-.316c.126-.126.571-1.073.571-1.198v-.317c0-.189.636-1.136.636-1.261 0-.128.318-.759.318-.948l.19-.125c.19-.19.19-.38.255-.631.064-.19.064-.442.064-.63h.445c.316 0 .761 0 .761.44zm-.888 8.141a.58.58 0 0 0-.446.191c-.317.315-.445.946-.507 1.198l-.381.947c-.128.315-.319.631-.447.948l-.126 1.261.126 1.326c.636-.38 1.018-.695 1.335-1.075.509-.629.635-1.262.763-2.207.064-.316.126-.758.126-1.136 0-.253 0-.506-.126-.758-.128-.378-.317-.695-.317-.695zm273.068-2.53l-.161.08-.235.08c-.24.16-.481.64-.559.88 0 .08-.398.48-.398.64-.159.32-.24.96-.557 1.28-.08.239-.238 0-.318.239-.397.32-.397.88-.557 1.44 0 .08-.477.72-.477.8-.081.401 0 .56-.159.88v1.041c0 .158.16.4.318.4h.239c.954 0 1.828-.72 2.068-1.761l.08-.32c.08-.4.555-.64.636-1.04 0-.08.318-.64.318-.72.16-.56.239-.88.239-1.52 0-.4 0-.64-.08-1.04-.077-.32-.477-.72-.477-1.2l.08-.16zM141.22 2v.081c.483.082.965.408 1.447.49h.483l.242.08.078.08h.564c.161 0 .401.49.401.49.242.244.564.244.564.487v.081c0 .244-.161.487-.161.569 0 .163-.482.814-.482.894l-.08.489c0 .081-.161.161-.322.244h.08c.161 0 .161.243 0 .243-.16 0-.16-.08-.08-.161-.161.081-.242.161-.242.161l-.08.407-.162.082v.731c0 .082-.159.326-.32.326 0 .895-.242 1.463-.322 2.358-.08.487-.161 1.057-.242 1.463l-.24.244c0 .406.32.813.32 1.058 0 .243 0 .324-.08.568V15.5c-.213.288-.237.384-.24.517v.051c0 .162 0 .326.32.488v.731c0 .163-.08.407-.08.489v2.195c0 .244-.32 1.87-.32 2.359 0 0-.081.243-.081.405l-.08.326c0 .082-.081.65-.081.732v.568c0 .245-1.045.732-1.366.814l-.4.407-.565.081-.16.082h-1.127c-.079 0-.481.161-.481.161h-.161c-.242 0-.323 0-.401-.243-.162-.244-.081-.407-.081-.57l-.08-.324c0-.082-.242-1.139-.242-1.22 0-.163-.161-.65-.161-.814v-1.381c0-.408-.32-.57-.401-.813v-.326c0-.163-.403-.487-.403-.569v-.326l-.161-.407-.079-.487-.161-.244v-.406c0-.082-.242-.489-.242-.65l-.08-.326v-.895c0-.081-.08-.405-.16-.487-.162.976-1.367 1.545-1.85 2.195h-.24c-.323.081-.323.569-.725.731l-.16.082c-.16.163-.241 0-.402.244a7.1 7.1 0 0 1-2.01 1.79l-.321.08c-.401.164-.723.488-1.045.732.08 0 .08.162 0 .162-.081 0-.081-.08-.081-.08a4.71 4.71 0 0 1-.562.326l-.24.161h-.161c-.645.244-.965.65-1.529 1.057v-.163c-.642 0-1.205.65-1.688.895-.08 0-.562.163-.643.163h-.241c-.401.161-.723.324-1.126.731l-.079.082c.079 0 .079.163 0 .163-.08 0-.08-.082-.08-.082l-.081.082c-.08.081-1.045.487-1.126.568-.242.082-.08.326-.32.408 0 0-.403.243-.484.243l-.723.488-.322.326h-.079l-.08.161-.403.082-.08.244-.081.163c-.643.324-1.447.976-1.608 1.706v.246l-.08.161c-.401.57-.562 1.22-.885 1.952l-.16.082c0 .081-.24.243-.24.243v.081l.159.407s-.16.326-.16.406l-.08.244c0 .163-.08.732-.08.813-.081.408-.482.815-.482 1.384 0 .161.32.161.32.324s-.32.57-.32.733v.406l-.08.324c0 .245.08.895-.081 1.22l-.323.408c-.32.324 0 .893-.32 1.381 0 0-.403.488-.725.732-.24.244-.804.244-1.205.326-.402.08-.564.326-.884.326h-.161c-.161-.082-.723-.326-.723-.326l-.242-.326-.08-.244c-.482-.243-.643-.569-.965-1.056 0 0-.24-.245-.24-.489l-.08-.243-.323-.489-.08-.325-.402-.406v-.326l-.241-.487v-.406l-.242-.081s-.08-.245-.08-.326v-.163c0-.082.241-.244.241-.326 0-.161-.16-.161-.16-.324 0-.489.321-.57.482-1.058.301-.228.321-1.517.323-1.953v-.243l-.244-.161.244-.245c.159-.894.078-1.789.481-2.52 0-.244-.16-.326-.16-.569 0-.407.16-.489.24-.813.16-.57.402-1.22.24-1.789.242-.081.242-.244.242-.326 0-.081-.08-.487-.241-.568l.241-.163v-.652l.08-.324v-.65c0-.082.162-.57.162-.65v-.815c.242-.65.401-1.463.481-1.869 0-.244.081-.976.081-1.057 0 0 0-.082.08-.163.162-.163.402-.406.402-.569 0-.081 0-.326-.08-.407.08-.081.24-.894.323-1.463-.163 0-.163-.163 0-.163 0-.081.079-.163.079-.244 0-.08.16-.65.322-.976l.161-.162v-.568c0-.082.16-.733.16-.896v-.65c-.321 0-.563-.082-.885-.082h-.08l-.482.163c-.32.244-1.126.407-1.527.569-.08 0-.32.57-.564.57-.16.244-.4.244-.802.406-.08 0-.322.325-.322.325l-.161.245-.322.08c-.08.163-.32.733-.401.814l-.403.082h-1.847c-.08 0-.806-.082-1.126-.163l-.643-.326h-.161l-.242.081h-.08l-.24-.325s-.322-.163-.403-.163c-.403-.08-.965-.325-1.446-.73-.161-.082-.08-.082-.08-.408 0-.244 0-.325.08-.568.08-.082.723-.652.803-.733.563-.569.724-.975 1.366-1.382.161 0 .804-.326.885-.326l.4-.324.323-.082c.16 0 .403-.163.483-.163.804-.65 1.688-.976 2.572-1.463h.08c.08 0 .563-.081.563-.081.08 0 .482-.245.562-.245h.242l.16-.081h.081l.323.081c.078 0 .562-.324.721-.324.806-.326 1.688-.326 2.494-.326.078 0 .562-.081.642-.081h1.205c.242 0 .884.081 1.045.081h.965c.562.082.885.569 1.608.569v.081c.642.732 1.527 1.382 1.527 2.358 0 .244-.08.326-.08.65 0 .165.08.165.16.407v1.302l-.08.325v.244l.08.163c0 .568-.4 1.056-.562 1.544l-.08.488c0 .244-.242.65-.242.814-.16.569-.24 1.137-.403 1.708v.161l-.24.407c-.08.408-.08.732-.16 1.138 0 .081-.162.488-.162.651v.487h.08l.323-.242.481-.163c.081 0 .564-.245.724-.326.644-.326 1.206-.813 1.849-1.057 1.126-.732 2.25-.976 3.376-1.627l.241-.244c.162-.161.804-.569.965-.65.08 0 .643-.407.804-.487l.401-.082c.08 0 .403-.488.483-.488.562-.243.643-.162 1.046-.65.16-.326.322 0 .562-.326.241-.162.241-.65.562-.73.403-.082.725-.165 1.126-.408l.08-.081c.162-.163.32-.487.403-.487l.482-.163c.32-.408.723-.813.965-1.22.723-.814 1.607-1.627 2.25-2.521l.08-.163c.08-.326.643-1.056.885-1.3l.4-.326c.242-.487.163-1.056.403-1.463.242-.326.482-.407.562-.65v-.408l.242-.325v-.162s.242-.163.322-.163h.242l.079-.244c0-.081.483-.489.483-.569.08-.244 1.527-.894 1.688-.894l.242.163h.24c.16 0 .483-.326.725-.326.08 0 .882-.163 1.043-.163zm25.14 29.616s.902.189 1.03.189c.323.189 1.225.253 1.225.253v.189c0 .125-.644.82-.902.947-.45.251-1.548.126-1.999.695v-.127c-.965.822-2.318.694-3.22 1.2-1.547 0-2.707 0-4.125.125l-.516.19c-.192 0-1.159.252-1.354.252l-.256.128h-.774c-.128 0-.837.189-.902.189l-.707.063c-.067 0-.84.126-.967.126l-.387.378h-.13c-.258 0-.965.19-1.095.19-.774.127-1.032.505-1.676.632h-.193c-.707.188-1.804.757-2.448 1.135l-.517.506h-.32c-1.096 0-2.128-1.073-2.128-1.957 0-.506 0-.884.13-1.262l.193-.128s.967-.758 1.223-.945c.13 0 .774-.317.774-.317s.258-.189.451-.189c1.16-.316 2.19-.633 3.288-.884.837-.316 1.996-.442 2.835-.822l.128-.125h1.997l.581-.19c1.095-.063 2.254-.063 3.286-.441h7.475zm66.312-23.339c1.847 0 3.341.785 4.396 2.091v2.091c0 .261-.439.785-.439.96v.61l-.616.696v.435l-.526.524c0 .172-.441 1.22-.441 1.394l-.703.871-.176.522c0 .263-.616.959-.616 1.308v.173l-.527.523V21c-.352.522-.704 2.177-1.67 2.003v1.133c-.176.61-1.407 1.568-1.407 1.83l.174.436v.174c0 .175-.703 1.393-.79 1.83l-.263.087-.353.26c0 .436.176.697.176.785v.522l-.176.263s-.44 1.132-.44 1.393c-.175 1.045-.878 2.004-1.054 3.138v.696c0 .698-.265 1.046-.265 1.742 0 .175.089.263.089.698 0 .436-1.408.785-1.76.785-.792 0-.792-.175-1.318-.785-.176-.435-.176-.523-.352-1.045v-5.23c.176-1.131.352-2.265.528-3.309l.35-.174.177-1.047.44-.609c0-.174.175-.872.175-1.133h.09l-.09-.436.352-.435c.616-1.132.792-2.701 1.408-3.921.176-.349 1.67-2.962 1.846-3.397l.177-.785c0-.174.35-.612.615-.784l-.265-.261.529-.175c.791-.959 1.407-2.353 1.494-3.572.35.348.616-.959.616-.959l-.09-.523h-.175c-1.495.523-2.9.523-4.395.87-1.144.35-2.023 1.395-3.254 1.395-.528 0-1.144 0-1.144-.61 0-.957.968-1.655 1.847-2.003 2.199-1.308 5.275-1.569 7.826-1.569zM378.113 18c1.005 0 1.945.32 2.888.769.061 0 .5.384.627.384l.125.065v.192l.126.065c.187.065.378.834.378.898l.25.385v.449c0 .064.062.384.125.384v2.054c0 .129.061.321.061.384 0 .194.129.706.129.77v3.082l-.129.577v2.694l-.061.193v.449l-.063.127v.836l.063.255v.192h.19c.125 0 .313.257.437.257h1.697l.125-.257c.061 0 .376.194.439.194h.188l.125-.194h1.193c.816 0 1.697.065 2.51.194.943.128 1.948.32 2.827.512.064 0 .501.065.628.065h.125l.061.192c.253.192 1.006.45 1.194.641.19.13.251.514.314.514 0 .385.315.514.315.834 0 .192-.063.129-.315.321-.063 0-.314.322-.376.322-.063 0-.504.19-.566.19l-.251.194s-.062.063-.188.063h-.25l-.315.257s-.312-.065-.376-.065l-.128-.127-.313.127h-.061c-.062 0-.062-.127-.19-.127-.375 0-.628.127-1.004.384h-.94c-.567 0-1.257.065-1.885.257l-.125.128c-.125 0-.314.066-.314.066h-.503c-.25 0-.44.128-.69.128-.377 0-.69-.065-.878-.065h-.19s-.25.065-.438.065h-2.01l-.125.063h-.69v-.063c-.44 0-.69.063-1.13.063h-.44c-.063-.19-.44-.19-.69-.257-.127 0-.44-.32-.501-.32l-.441-.065-.438-.449v-.063s-.127-.194-.19-.257c-.125-.127-.69-.578-.752-.641.061-.192-.252-.386-.313-.706 0-.065-.065-.45-.065-.514-.063 0-.376-.32-.44-.384.064 0 .252-.065.252-.322 0 0-.315-.32-.315-.384 0-.065-.125-.257-.125-.385v-.514c0-.064-.188-.32-.188-.449v-1.54c0-.448 0-.962.062-1.411l.126-.128c.315-.514.252-1.283.315-1.796l.125-.128c.125-.578 0-1.028.125-1.604 0-.065.128-.45.128-.579v-.449c0-.127.061-.577.061-.641v-.385c0-.192 0-.706-.126-.77.05-.548.062-.748.064-1.112v-.813l-.064-.192v-.192c0-.13.065-.13.065-.45 0-.128 0-1.027-.378-1.154h-.19s-.251-.193-.251-.322v-.192l.314-.13.377-.32h.378l.25-.256c.25-.063.314-.063.628-.063zm-52.732 6c.612 0 .798.562.798 1.002v.562c0 .125-.491 1.502-.677 1.94 0 .25-.367.562-.367.688v2.19l-.307.124s-.12.689-.12 1v.19c0 .374.12.374.427.374.553 0 .858-.374 1.35-.564 1.654-.436 2.084-.625 3.25-1.063.243-.061 1.347-.375 1.469-.375.676-.25 1.166-.688 1.84-.813 1.164-.376 2.146-1.063 3.372-1.063.553 0 1.042 0 1.042.687 0 .126 0 .376-.184.5l-.612.314c-.552.375-.673 1.188-1.35 1.502-.122 0-.98.5-1.104.562-.55.189-1.164.5-2.022.939-.244.124-.797.5-.797.5-.185 0-.98.439-1.165.439-.306 0-.859.249-1.348.625-.124.125-.858.689-1.471.937-1.164.501-.799.19-1.717.878-.186 0-.98.813-1.168.813-.182.124-.794.686-1.164.686-.305 0-1.102-1.063-1.102-1.375v-.688c0-1.501 0-2.815.308-4.129 0-.187.367-.876.367-1 0-.126.122-.815.122-1.002.305-1.626.98-2.69 1.657-4.13.12-.374.305-1.25.673-1.25zM11.873 12.24c1.259 0 3.696.476 4.089 1.908.238.478.315 1.672.315 1.672l-.392.715c-.158.317-1.18 2.624-1.338 3.261-.708 1.272-1.494 2.387-1.652 3.818.473.08 1.652.558 1.81.558.157 0 .786.158.786.158 1.337.797 2.437 1.592 3.302 2.704 0 .16.787 1.035.787 1.194l.315.477c.157.16.157.716.394 1.114a51.3 51.3 0 0 1 2.043 3.5c.629.796.944 1.113.944 2.068 0 .717-1.101.558-1.415.478h-.786l-.552-.399c-.234 0-.943-.317-1.101-.317l-.471-.478-.314-.24c-.394-.316-1.966-2.624-2.36-3.021-.55-.796-1.809-3.5-2.594-3.5-.315 0-.315.637-.943.239-.158.318-.944 1.034-1.102 1.272-.158.318-1.259 1.114-1.259 1.273l-.313.955-.394.317c-.55.795-.63 1.513-.944 2.228-.314.636-.629.796-.787 1.352l-.313.795c-.236.16-.71.796-.944.876h-.157c-.55 0-.944-.16-1.337-.16h-.709c-.47 0-1.1.24-1.572.24-.156-.16-.944-.557-1.1-.796l-.158-.317.08-3.104s.234-.319.393-.476c.785-.955 1.1-1.75 1.807-2.865a28.186 28.186 0 0 1 2.124-3.976 23.759 23.759 0 0 0 1.965-4.296l.237-.399c.55-.954.865-2.067 1.336-3.181.079-.24.707-.875.707-1.114v-.317c-2.122-.08-2.908 2.226-4.245 3.26 0 0-.236.16-.394.16l-.943.397c-1.415.478-1.258 1.431-2.674 1.431h-.63s-.707-.873-.864-1.032c-.158-.16-.55-.796-.55-.796v-.319c.079-3.42 4.64-5.966 7.55-6.681 1.1-.32 2.043-.32 3.144-.477l.55-.16h.629zm465.34.2c.078.082.396.082.476.082.24 0 .477-.082.716-.082.24 0 .24.162.4.162h.077l.08-.08h.318c.32 0 .557.158.875.238.16 0 .716.162.797.162 0 0 .237.08.398.158l.078.08c0 .08.159.481.159.561l.32.159v.161c0 .159.078.639.078.639.08.161.24.161.24.32v.161l-.081.238c0 .082.08.562.08.642v.32l.079.158s-.078.322-.078.402l-.081.16v.24c0 .24-.16 1.2-.16 1.28l-.077.16c0 .08-.16.4-.16.4v.48l-.079.08c0 .08-.159.48-.159.64l-.081.48-.078.32v.64l-.398.8v.32l-.159.24v.24c0 .16-.16.72-.16.8 0 .08-.08.4-.08.4l-.08.079.08.16c0 .72-.16 1.12-.237 1.68v.16l.078.162v.078l-.078.08c0 .08-.161.4-.161.4l.16.161v.559l-.16.241v.32l-.16.32c0 .238.082.318.082.558v.242l-.081.4.081.32v.238c0 .082-.081.482-.081.562l.081.158v.322c0 .4-.159.56-.159.8v.56l-.081.24.159.24c0 .08.081.72.081.88v.56l.078.16c0 .4-.16.48-.398.88l-.157.16h-.32c-.476.08-.955.56-1.193.88h-.158l-.24-.24-.318.24h-.08c-.078 0-.716-.48-.953-.48l-.16.16h-.24c-.556 0-.556-.48-.795-.96 0-.08-.237-.56-.237-.64-.08-.24-.4-.56-.4-.8v-.56c0-.16-.397-.48-.397-.56V33l-.08-.16c-.159-.4-.238-.56-.318-1.04 0-.08-.318-.56-.318-.56v-.482l-.159-.4c-.159-.32-.318-1.04-.4-1.44v-.32l-.157-.238V27.8l-.159-.239-.08-.481c0-.08-.238-.4-.238-.56 0-.078-.081-.4-.081-.56l-.158-.24v-.32l-.078-.08v-.48l-.08-.16c-.08-.32-.4-1.2-.4-1.52 0-.08 0-.16.16-.24l-.238-1.68c-.157-.24-.081-.56-.081-.8 0 0-.076-.24-.076-.32l-.082-.32v-.08c.158-.64.239-1.28.317-2.08 0-.16.24-.319.24-.559v-.16c0-.08-.08-.402-.08-.48 0-.08.16-.48.16-.56.08-.4.08-.881.08-1.201 0-.08.08-.4.08-.48.078-.4.236-.72.556-1.04 0 0 .318-.08.396-.08.08 0 .48-.079.558-.079l.158-.08h.32l.159-.161.318-.158c.477-.08 1.113 0 1.433-.162h1.432zM201.27 28.878c.764 0 1.716 1.263 1.716 1.894v.125c0 .19-.19.631-.19.631s-.127.19-.32.19c-.889.443-1.84.883-2.794 1.515l-.129-.316.764-.756v-.191c0-.125-.19-.253-.317-.253-.447 0-.954.253-1.399.253l-.316-.125h-.319l-.445.316c-.825.314-1.462 0-1.589.945-1.396.631-3.113 1.831-4.702 1.831-.572 0-.636.064-1.016-.19-.381-.252-.381-.504-.255-.883.19-.441.38-.63.635-.947.255-.316.636-.567 1.08-.947.573-.505 1.399-1.073 2.225-1.387l.763-.127c.19 0 .635-.19.635-.19.127-.125 1.653-.82 1.906-.883.254-.064.509-.064.7-.19.254-.126.444-.315.698-.315h2.67zM407.435 19c.31 0 1.43.126 1.68.317l.31.315c.372.635 1.055.95 1.055 1.583 0 0-.622 1.013-.683 1.013-.498.252-1.182.126-1.554.443l-.436.441-.372.317c-.126.126-.56.443-.56.443-.434.507-.434 1.012-.87 1.456-.062.126-.311.316-.437.316h-.433c-.126 0-1.059 2.025-1.243 2.276l-.437.445c-.063.252-.312.884-.746 1.075h-.56s-.186.126-.186.254l-.497.758c-.249.126-.933.95-1.058 1.075 0-.125-.185-.442-.185-.568v-.128c.434-.758.683-1.708.994-2.466l.25-.128c.121-.504.93-2.087 1.117-2.593.559-.886.87-2.025 1.492-2.973l.312-.191c0-.126.498-1.012.498-1.138.123-.253.37-.443.621-.696.124-.128.31-.317.436-.57l.186-.506h.312c.435-.127.497-.57.994-.57zm-254.09 1c.193.19.644.378.837.506.321.567.45 1.198.902 1.514 1.416.946 3.479.442 3.479 2.65 0 .57 0 1.2-.386 1.642l-.258.253c-.129 0-.838.506-.966.695-.453.19-.967.062-1.353.378l-.258.317c-.451.189-.71.189-1.032.252-.321.253-1.288.568-1.416.568l-.453.316c-.45.251-.966.126-1.417.251-.709.191-1.418.884-2.255.884-.451 0-.772 0-1.16-.125-.515-.253-.451-.568-.71-1.01-.256-.316-.32-.316-.32-.884v-.252l.064-.506c0-.695-.065-1.137.257-1.768 0-.125.644-1.01.644-1.073 0-.189.065-.316.065-.505.193-.19 1.097-1.137 1.16-1.137l.323-.504.128-.442c1.095-1.642 2.255-2.02 4.125-2.02zm.193 3.66h-.516c-.71 0-1.547 1.58-1.805 2.336h.774c.128 0 .58-.315.838-.315.065 0 1.674-.63 1.804-.63.128 0 .258-.253.451-.38-.323-.252-.451-.568-.902-.568v-.19s-.451-.252-.644-.252zM452.15 11c.159 0 .797.082.956.082.078 0 .239.158.318.158l.398.16s.318.082.398.082l.477.078.16.242h.238c.477.078.477.238.796.638.477.482 1.032.8 1.032 1.44v.241c-.078.079-.396.32-.476.479l-.238.321-.239.24c-.159.08-.08.238-.318.32l-.398.32-.318.24-.16.16-.32.16-.077.08v.16l-.08.16c-.399.24-.558.64-.715.96l-.16.32-.636.64c.08.48-.239.72-.557 1.04l-.159.24-.08.16c0 .08-.24.72-.24.8 0 .24 0 .4-.159.4h-.078l-.238-.08c-.16 0-.24.72-.24.8 0 0-.079.24-.079.32-.24.32-.08.72-.24 1.2 0 .4-.237.8-.398 1.199-.159 0-.634-.08-.716-.08-.716-.16-.477-1.6-.716-2v-2.4c-.077-.32-.077-.48-.077-.72 0-.32.077-1.04.159-1.44.078-.24.078-.64.157-.959l.16-.16-.16-.24c0-.16 0-.48.318-.48 0-.24.24-.882.24-.96.158-.321.238-.48.317-.721.081-.32.4-1.84.716-1.84 0-.558.24-1.278.716-1.52l.318-.158.24-.082h.158zM67.953 9c.163 0 .732.165.895.165.164.164.164.904.164 1.069 0 .986-.733 1.726-1.06 2.712.164 0 .896.328 1.06.328h.732l.163.165c.163.164.732.904.732.904 0 .164.325.904.325 1.069 0 0 .734.574.734.739v1.479l.163.494v.657l-.326.577c-1.059 1.806-2.117 3.287-4.314 4.026-.163 0-1.139.328-1.385.328-1.057.494-1.79.824-3.011.824h-.57c-.325 0-1.464-.165-1.464-.165s-.57-.659-.734-.822c-.243-.412-.243-1.069-.243-1.48 0-2.137 1.71-4.274 2.605-6.247 0-.163.406-1.315.406-1.48l.163-.327v-.576l.163-.165.406-.163c.163-.165 1.222-1.151 1.385-1.398.732-.74 2.605-1.644 3.01-2.713zm-1.059 5.507h-.487l-.571.74c-.162.165-1.057 1.151-1.057 1.316-.163.165-1.059 2.465-1.465 2.958-.163.574-.326 1.15-.326 1.643h1.954s1.14-1.069 1.71-1.479c.242-.164.895-.904.895-.904.57-.657.894-2.383.894-3.37 0-.329-1.057-.904-1.547-.904z"/>
</svg>
